<svg width="200" height="200" viewBox="0 0 200 200" fill="none" xmlns="http://www.w3.org/2000/svg">
<g transform="translate(30, 30) scale(0.7)">
<path d="M158.74 86.2871C167.403 82.1363 180.891 83.4249 190 93.8115C194.176 98.5725 190.945 105.462 184.935 107.455C182.037 108.416 179.412 110.044 176.958 111.861C176.68 112.067 176.397 112.274 176.111 112.479C168.541 117.911 163.669 126.048 163.185 135.353L162.961 139.646C162.977 141.146 162.949 142.654 162.87 144.163C160.656 165.346 146.989 183.604 127.288 191.698C110.081 198.768 90.7804 198.768 73.5734 191.698C53.8726 183.604 40.2061 165.346 37.9914 144.163L37.5324 135.353C37.0478 126.048 32.1763 117.911 24.6066 112.479C24.3202 112.274 24.037 112.067 23.759 111.861C21.3055 110.044 18.6805 108.416 15.7824 107.455C9.77193 105.461 6.54164 98.5724 10.717 93.8115C19.8264 83.4248 33.3148 82.1362 41.9777 86.2871C45.121 87.7933 48.2651 89.3003 51.5119 90.4092L58.1515 92.6768C69.4306 96.2306 80.5632 94.7934 91.4904 91.3916C97.1729 88.5412 103.041 88.9923 108.855 91.3916C120.354 96.1373 130.372 96.126 142.553 92.7607L142.566 92.6768L149.205 90.4092C152.452 89.3003 155.597 87.7934 158.74 86.2871ZM100.358 109.676C91.0873 109.676 82.6589 113.756 75.8547 118.651C69.454 123.256 64.2661 128.742 60.8644 132.783L60.2082 133.572C58.6271 135.492 56.842 137.448 56.842 140.38L56.8468 140.651C56.9532 143.433 58.6765 145.328 60.2082 147.188C63.5801 151.281 69.0273 157.195 75.8547 162.107C82.6588 167.003 91.0874 171.083 100.358 171.083C109.628 171.083 118.055 167.003 124.86 162.107C131.687 157.196 137.134 151.281 140.506 147.188L141.105 146.464C142.456 144.824 143.776 143.075 143.868 140.651L143.873 140.38C143.873 137.448 142.087 135.492 140.506 133.572C137.134 129.478 131.687 123.563 124.86 118.651C118.055 113.756 109.628 109.676 100.358 109.676ZM100.358 115.586C103.156 115.586 105.911 116.047 108.59 116.856C117.686 120.379 124.247 129.406 124.247 140.147C124.247 154.012 113.315 165.022 100.111 165.022C86.906 165.022 75.9742 154.012 75.9738 140.147C75.9738 130.13 81.6809 121.603 89.8283 117.642C93.2198 116.351 96.7519 115.586 100.358 115.586ZM100.111 120.694C89.3659 120.694 80.6545 129.406 80.6545 140.151L80.6613 140.653C80.9238 151 89.2629 159.34 99.6095 159.602L100.111 159.608C110.689 159.608 119.295 151.167 119.562 140.653L119.569 140.151C119.569 129.574 111.127 120.968 100.613 120.701L100.111 120.694ZM100.111 126.112C107.865 126.112 114.15 132.398 114.15 140.151C114.149 147.904 107.864 154.189 100.111 154.189C92.3586 154.189 86.0729 147.904 86.0724 140.151C86.0724 132.398 92.3583 126.112 100.111 126.112ZM127.286 128.227C130.865 131.465 133.821 134.753 135.944 137.33L136.577 138.104C137.134 138.79 137.475 139.237 137.706 139.624C137.88 139.916 137.938 140.085 137.955 140.233L137.962 140.38C137.962 140.576 137.938 140.746 137.706 141.135C137.475 141.522 137.134 141.969 136.577 142.655L135.944 143.429C133.755 146.086 130.683 149.501 126.953 152.836C128.592 149.199 129.551 145.172 129.655 140.929L129.665 140.147C129.665 135.915 128.816 131.885 127.286 128.227ZM72.6418 128.947C71.2961 132.412 70.5558 136.191 70.5558 140.147L70.5656 140.929C70.6634 144.885 71.5021 148.653 72.9435 152.093C69.9131 149.303 67.3513 146.502 65.3918 144.175L64.7707 143.429C63.8193 142.274 63.316 141.651 63.008 141.135C62.834 140.843 62.7775 140.674 62.7599 140.525L62.7521 140.38C62.7521 140.184 62.776 140.013 63.008 139.624C63.3159 139.108 63.8193 138.485 64.7707 137.33L65.3918 136.584C67.2857 134.335 69.7432 131.644 72.6418 128.947ZM100.111 131.53C95.35 131.53 91.4907 135.39 91.4904 140.15L91.5011 140.594C91.7246 145.001 95.2594 148.536 99.6672 148.76L100.111 148.771C104.722 148.77 108.489 145.148 108.72 140.594L108.731 140.15C108.73 135.539 105.108 131.772 100.554 131.541L100.111 131.53ZM100.111 136.948C101.879 136.948 103.312 138.382 103.313 140.15C103.312 141.918 101.879 143.352 100.111 143.353C98.3424 143.352 96.9086 141.918 96.9084 140.15C96.9086 138.382 98.3425 136.948 100.111 136.948ZM100.68 3C109.957 3 117.478 10.5206 117.478 19.7979V61.6738C117.478 63.293 118.791 64.6055 120.41 64.6055C122.018 64.6052 123.326 63.31 123.342 61.7021L123.672 27.0908C123.672 25.383 125.808 23.4696 127.237 23.0518C141.202 18.971 154.034 26.5837 154.034 46.373L154.921 82.5479C139.876 90.2273 125.399 91.8084 108.801 86.6494C102.467 83.5437 97.9031 84.0909 91.3761 86.6455C74.9157 90.3432 60.9196 90.5098 46.0695 82.873L46.9845 46.7441C46.9845 27.7064 58.1236 18.2756 74.2365 23.0518C75.6533 23.4719 77.6886 25.3795 77.6886 27.0723L78.0187 61.7021C78.0342 63.3102 79.3422 64.6055 80.9504 64.6055C82.5694 64.6054 83.882 63.2929 83.882 61.6738V19.7979C83.8822 10.5207 91.4027 3.00011 100.68 3Z" fill="#464646"/>
</g>
</svg>
