<svg width="272" height="64" viewBox="0 0 272 64" fill="none" xmlns="http://www.w3.org/2000/svg">
<g filter="url(#filter0_f_4099_2393)">
<circle cx="62.7388" cy="39.2388" r="3.55122" transform="rotate(-12.5656 62.7388 39.2388)" fill="#C0B6B6"/>
</g>
<circle cx="62.7388" cy="39.2388" r="3.2901" transform="rotate(-12.5656 62.7388 39.2388)" fill="url(#paint0_linear_4099_2393)" stroke="white" stroke-width="0.522238"/>
<path d="M76.6066 15.3211C76.6066 15.9659 76.0839 16.4887 75.439 16.4887C74.7942 16.4887 74.2715 15.9659 74.2715 15.3211C74.2715 14.6763 74.7942 14.1536 75.439 14.1536C76.0839 14.1536 76.6066 14.6763 76.6066 15.3211Z" fill="#D5FF5C"/>
<path d="M219.835 31.1676C219.835 31.8124 219.312 32.3351 218.668 32.3351C218.023 32.3351 217.5 31.8124 217.5 31.1676C217.5 30.5227 218.023 30 218.668 30C219.312 30 219.835 30.5227 219.835 31.1676Z" fill="#D5FF5C"/>
<path opacity="0.2" d="M57.2003 11.6112C57.2003 12.256 56.6776 12.7787 56.0328 12.7787C55.388 12.7787 54.8652 12.256 54.8652 11.6112C54.8652 10.9663 55.388 10.4436 56.0328 10.4436C56.6776 10.4436 57.2003 10.9663 57.2003 11.6112Z" fill="white"/>
<path opacity="0.2" d="M25.8351 43.1676C25.8351 43.8124 25.3124 44.3351 24.6676 44.3351C24.0227 44.3351 23.5 43.8124 23.5 43.1676C23.5 42.5227 24.0227 42 24.6676 42C25.3124 42 25.8351 42.5227 25.8351 43.1676Z" fill="white"/>
<path opacity="0.2" d="M2.67166 48.0858C2.67166 48.6855 2.18552 49.1717 1.58583 49.1717C0.986142 49.1717 0.5 48.6855 0.5 48.0858C0.5 47.4861 0.986142 47 1.58583 47C2.18552 47 2.67166 47.4861 2.67166 48.0858Z" fill="white"/>
<path opacity="0.2" d="M232.672 51.0858C232.672 51.6855 232.186 52.1717 231.586 52.1717C230.986 52.1717 230.5 51.6855 230.5 51.0858C230.5 50.4861 230.986 50 231.586 50C232.186 50 232.672 50.4861 232.672 51.0858Z" fill="white"/>
<path opacity="0.2" d="M258.574 43.0859C258.574 43.6316 258.131 44.074 257.586 44.074C257.04 44.074 256.598 43.6316 256.598 43.0859C256.598 42.5402 257.04 42.0978 257.586 42.0978C258.131 42.0978 258.574 42.5402 258.574 43.0859Z" fill="white"/>
<path d="M7.83512 30.1676C7.83512 30.8124 7.31238 31.3351 6.66756 31.3351C6.02273 31.3351 5.5 30.8124 5.5 30.1676C5.5 29.5227 6.02273 29 6.66756 29C7.31238 29 7.83512 29.5227 7.83512 30.1676Z" fill="#D5FF5C"/>
<path opacity="0.2" d="M155.956 10.0748C155.956 10.7196 155.433 11.2423 154.789 11.2423C154.144 11.2423 153.621 10.7196 153.621 10.0748C153.621 9.42996 154.144 8.90723 154.789 8.90723C155.433 8.90723 155.956 9.42996 155.956 10.0748Z" fill="white"/>
<path opacity="0.5" d="M179.129 -55.9535C228.675 -57.3832 269.528 -34.6898 270.377 -5.26629C271.226 24.1572 231.75 49.1687 182.204 50.5985C132.658 52.0282 91.8044 29.3347 90.9553 -0.0887645L90.9553 -23.553" stroke="white" stroke-width="0.561545"/>
<ellipse cx="180.5" cy="-24" rx="90" ry="53" stroke="url(#paint1_linear_4099_2393)" stroke-width="0.561545"/>
<g style="mix-blend-mode:hard-light">
<path fill-rule="evenodd" clip-rule="evenodd" d="M160.559 -44.6088C154.095 -44.4324 148.223 -43.9186 143.728 -43.4062C141.552 -43.1581 140.39 -43.0183 139.543 -42.8347C138.904 -42.6963 138.709 -42.5878 138.513 -42.4455C138.317 -42.3033 138.172 -42.1654 138.032 -41.739C137.845 -41.1734 137.761 -40.4097 137.625 -38.9811C137.335 -35.9391 137.207 -31.9557 137.714 -27.6246C139.735 -31.2375 142.865 -34.6961 147.111 -37.7745C151.071 -40.6461 155.648 -42.9297 160.559 -44.6088ZM194.868 6.40997C202.2 6.30322 208.907 5.7312 213.91 5.161C216.086 4.91293 217.248 4.7731 218.095 4.58954C218.734 4.45114 218.929 4.34259 219.125 4.20036C219.321 4.05812 219.466 3.92027 219.606 3.49381C219.793 2.92817 219.877 2.16453 220.013 0.73587C220.317 -2.45002 220.443 -6.66848 219.848 -11.2376C217.826 -7.63431 214.701 -4.18524 210.466 -1.11435C205.933 2.17215 200.593 4.68854 194.868 6.40997ZM209.542 -41.3985C199.606 -47.1481 186.489 -49.4144 174.298 -50.0829C162.065 -50.7536 150.309 -49.8412 142.598 -48.9623C142.37 -48.9364 142.141 -48.9108 141.912 -48.8851C138.498 -48.5038 134.926 -48.1047 132.178 -46.1116C129.429 -44.1184 129.218 -41.7748 129.016 -39.5349L129.016 -39.5328C129.002 -39.3828 128.989 -39.2333 128.974 -39.0844C128.492 -34.023 128.413 -26.354 130.815 -18.5556C133.21 -10.7839 138.16 -2.5963 148.096 3.15329C158.032 8.90287 171.149 11.1692 183.34 11.8377C195.573 12.5084 207.329 11.596 215.04 10.7172C215.266 10.6914 215.493 10.666 215.721 10.6406L215.726 10.64C219.14 10.2586 222.712 9.85951 225.461 7.86638C228.209 5.87325 228.421 3.52958 228.622 1.28968C228.636 1.13901 228.649 0.988804 228.664 0.839215C229.146 -4.22222 229.225 -11.8912 226.823 -19.6896C224.428 -27.4613 219.478 -35.6489 209.542 -41.3985ZM154.391 -1.75478C168.24 6.25916 190.517 5.08981 204.13 -4.78037C217.743 -14.6505 217.035 -29.1202 203.186 -37.1341C189.337 -45.1481 167.059 -43.9787 153.446 -34.1085C139.833 -24.2383 140.541 -9.76871 154.391 -1.75478ZM192.797 -11.0182C185.447 -5.68936 173.107 -5.0624 165.235 -9.61789C157.362 -14.1734 156.938 -22.1863 164.288 -27.5151C171.637 -32.844 183.977 -33.471 191.85 -28.9155C199.723 -24.36 200.147 -16.3471 192.797 -11.0182ZM199.133 -7.35222C188.516 0.345083 170.692 1.2507 159.32 -5.32948C147.948 -11.9097 147.336 -23.4839 157.952 -31.1812C168.568 -38.8785 186.393 -39.7841 197.764 -33.2039C209.136 -26.6237 209.749 -15.0495 199.133 -7.35222ZM180.648 -18.0417C179.56 -17.2523 177.731 -17.1594 176.565 -17.8342C175.399 -18.5091 175.336 -19.6962 176.425 -20.4856C177.514 -21.2751 179.342 -21.368 180.508 -20.6931C181.674 -20.0182 181.737 -18.8312 180.648 -18.0417ZM186.984 -14.3757C182.629 -11.2178 175.316 -10.8463 170.651 -13.5458C165.985 -16.2454 165.734 -20.9938 170.089 -24.1517C174.445 -27.3095 181.757 -27.6811 186.423 -24.9815C191.088 -22.2819 191.339 -17.5336 186.984 -14.3757Z" stroke="url(#paint2_linear_4099_2393)" stroke-width="1.09071"/>
</g>
<g filter="url(#filter1_f_4099_2393)">
<ellipse cx="125.113" cy="45.1269" rx="34.68" ry="21.3415" fill="#C9C9C9" fill-opacity="0.06"/>
</g>
<mask id="path-16-outside-1_4099_2393" maskUnits="userSpaceOnUse" x="93.5459" y="13.2404" width="63.7457" height="43.6911" fill="black">
<rect fill="white" x="93.5459" y="13.2404" width="63.7457" height="43.6911"/>
<path d="M124.606 15.6028C111.909 16.1626 101.285 21.7593 97.257 29.1731L95.3128 29.2628L95.5567 34.7955C95.5206 35.2897 95.5125 35.7878 95.5346 36.2891C96.0062 46.9854 109.786 55.0653 126.313 54.3367C142.84 53.608 155.856 44.3466 155.385 33.6504C155.356 32.9987 155.276 32.357 155.151 31.7262L154.922 26.53L152.981 26.6186C148.279 19.6409 137.246 15.0455 124.606 15.6028Z"/>
</mask>
<g filter="url(#filter2_i_4099_2393)">
<path d="M124.606 15.6028C111.909 16.1626 101.285 21.7593 97.257 29.1731L95.3128 29.2628L95.5567 34.7955C95.5206 35.2897 95.5125 35.7878 95.5346 36.2891C96.0062 46.9854 109.786 55.0653 126.313 54.3367C142.84 53.608 155.856 44.3466 155.385 33.6504C155.356 32.9987 155.276 32.357 155.151 31.7262L154.922 26.53L152.981 26.6186C148.279 19.6409 137.246 15.0455 124.606 15.6028Z" fill="#1C271E"/>
</g>
<path d="M124.606 15.6028L124.572 14.8414L124.572 14.8414L124.606 15.6028ZM97.257 29.1731L97.9267 29.537L97.7215 29.9147L97.2921 29.9345L97.257 29.1731ZM95.3128 29.2628L94.5513 29.2963L94.5178 28.5364L95.2777 28.5014L95.3128 29.2628ZM95.5567 34.7955L96.3181 34.7619L96.3201 34.8065L96.3169 34.851L95.5567 34.7955ZM95.5346 36.2891L94.7731 36.3227L94.7731 36.3227L95.5346 36.2891ZM126.313 54.3367L126.347 55.0981L126.347 55.0981L126.313 54.3367ZM155.385 33.6504L156.146 33.6168L156.146 33.6168L155.385 33.6504ZM155.151 31.7262L154.404 31.8745L154.392 31.8176L154.39 31.7597L155.151 31.7262ZM154.922 26.53L154.887 25.7686L155.65 25.7339L155.684 26.4965L154.922 26.53ZM152.981 26.6186L153.015 27.38L152.588 27.3995L152.349 27.0445L152.981 26.6186ZM124.606 15.6028L124.639 16.3643C112.095 16.9174 101.781 22.4439 97.9267 29.537L97.257 29.1731L96.5873 28.8092C100.79 21.0747 111.723 15.4079 124.572 14.8414L124.606 15.6028ZM97.257 29.1731L97.2921 29.9345L95.3479 30.0242L95.3128 29.2628L95.2777 28.5014L97.2219 28.4117L97.257 29.1731ZM95.3128 29.2628L96.0742 29.2292L96.3181 34.7619L95.5567 34.7955L94.7952 34.829L94.5513 29.2963L95.3128 29.2628ZM95.5567 34.7955L96.3169 34.851C96.2829 35.3164 96.2753 35.7847 96.296 36.2555L95.5346 36.2891L94.7731 36.3227C94.7497 35.791 94.7583 35.2631 94.7965 34.7399L95.5567 34.7955ZM95.5346 36.2891L96.296 36.2555C96.5166 41.2592 99.8555 45.7539 105.289 48.9397C110.714 52.121 118.141 53.934 126.28 53.5752L126.313 54.3367L126.347 55.0981C117.959 55.468 110.232 53.6054 104.518 50.2547C98.8112 46.9087 95.0241 42.0153 94.7731 36.3227L95.5346 36.2891ZM126.313 54.3367L126.28 53.5752C134.418 53.2164 141.657 50.7567 146.782 47.1103C151.913 43.4587 154.844 38.6876 154.623 33.6839L155.385 33.6504L156.146 33.6168C156.397 39.3094 153.055 44.5171 147.665 48.3524C142.268 52.1929 134.735 54.7283 126.347 55.0981L126.313 54.3367ZM155.385 33.6504L154.623 33.684C154.596 33.0723 154.522 32.4689 154.404 31.8745L155.151 31.7262L155.899 31.5779C156.031 32.2451 156.116 32.9252 156.146 33.6168L155.385 33.6504ZM155.151 31.7262L154.39 31.7597L154.161 26.5636L154.922 26.53L155.684 26.4965L155.913 31.6926L155.151 31.7262ZM154.922 26.53L154.957 27.2915L153.015 27.38L152.981 26.6186L152.946 25.8572L154.887 25.7686L154.922 26.53ZM152.981 26.6186L152.349 27.0445C147.849 20.3665 137.127 15.8137 124.639 16.3643L124.606 15.6028L124.572 14.8414C137.365 14.2773 148.709 18.9152 153.613 26.1927L152.981 26.6186Z" fill="white" mask="url(#path-16-outside-1_4099_2393)"/>
<path d="M124.266 7.88211C115.94 8.24924 108.481 10.7658 103.152 14.5579C97.8265 18.3472 94.5876 23.4456 94.8308 28.9657C95.0742 34.486 98.7493 39.2802 104.387 42.5863C110.029 45.8946 117.681 47.745 126.007 47.3779C134.333 47.0108 141.792 44.4942 147.121 40.7022C152.447 36.9127 155.685 31.8138 155.442 26.2934C155.198 20.7732 151.523 15.9798 145.885 12.6738C140.243 9.36538 132.592 7.51503 124.266 7.88211Z" fill="#1C271E" stroke="white" stroke-width="0.762198"/>
<mask id="mask0_4099_2393" style="mask-type:alpha" maskUnits="userSpaceOnUse" x="95" y="8" width="61" height="40">
<path d="M124.307 8.63809C116.106 8.9997 108.794 11.4787 103.601 15.1736C98.4052 18.8712 95.3726 23.7514 95.6006 28.9271C95.8288 34.1029 99.2792 38.6981 104.781 41.924C110.278 45.1477 117.78 46.9725 125.981 46.611C134.182 46.2494 141.495 43.7713 146.687 40.0764C151.883 36.3788 154.917 31.4978 154.689 26.3219C154.46 21.1462 151.009 16.5519 145.508 13.326C140.01 10.1024 132.508 8.27651 124.307 8.63809Z" fill="#F384BD" stroke="#EDC00C" stroke-width="0.762198"/>
</mask>
<g mask="url(#mask0_4099_2393)">
<ellipse cx="20.6977" cy="20.9255" rx="20.6977" ry="20.9255" transform="matrix(0.855134 0.518408 -0.834131 0.551566 125.006 4.66846)" fill="url(#paint3_linear_4099_2393)" fill-opacity="0.4" stroke="white" stroke-width="0.762198"/>
<path d="M134.234 20.479C137.048 22.1077 138.413 24.4016 139.064 26.5145C139.719 28.64 139.695 30.7195 139.565 32.0829C139.561 32.1211 139.558 32.1597 139.555 32.1995C139.504 32.7638 139.456 33.6 138.477 34.3096C137.499 35.019 136.222 35.1434 135.362 35.2394L135.36 35.2395L135.184 35.2592C133.107 35.4959 129.92 35.7448 126.585 35.5619C123.271 35.3802 119.598 34.7602 116.783 33.1316C113.969 31.503 112.605 29.2084 111.954 27.0956C111.299 24.9701 111.323 22.8906 111.453 21.5272C111.456 21.489 111.46 21.4503 111.463 21.4105L111.515 20.9424C111.595 20.4361 111.806 19.8332 112.54 19.301C113.519 18.5914 114.796 18.4667 115.656 18.3706C115.717 18.3638 115.775 18.3575 115.834 18.3508C117.911 18.1141 121.098 17.8653 124.432 18.0481C127.747 18.2299 131.419 18.8504 134.234 20.479ZM124.979 32.1935C123.094 32.1807 121.232 31.7532 119.745 30.8926C118.258 30.0321 117.394 28.8824 117.163 27.6707C117.352 28.9151 118.201 30.0855 119.679 30.9408C121.157 31.7961 123.048 32.2114 124.979 32.1935ZM128.33 24.6678C126.616 23.6758 123.931 23.8136 122.333 24.972C120.736 26.1304 120.827 27.8736 122.541 28.8656C124.255 29.8577 126.94 29.7208 128.538 28.5625C130.136 27.4041 130.045 25.6599 128.33 24.6678ZM128.133 24.8111C129.727 25.7337 129.815 27.358 128.323 28.4393C126.832 29.5206 124.33 29.6466 122.736 28.7241C121.142 27.8015 121.054 26.1771 122.545 25.0958C124.037 24.0146 126.538 23.8886 128.133 24.8111ZM135.536 31.104C135.226 31.3909 134.89 31.6716 134.521 31.9397C134.103 32.2426 133.659 32.5217 133.197 32.7784C133.725 32.7332 134.215 32.6843 134.654 32.6343C135.036 32.5907 135.267 32.5623 135.421 32.54C135.438 32.4384 135.455 32.2869 135.478 32.0364C135.505 31.7544 135.526 31.4411 135.536 31.104ZM117.453 20.8639C117.064 20.9 116.699 20.9376 116.364 20.9758C115.982 21.0194 115.751 21.0467 115.597 21.069C115.58 21.1706 115.563 21.3223 115.539 21.5737C115.518 21.8004 115.501 22.0473 115.489 22.3107C115.793 22.0325 116.121 21.7612 116.48 21.5008C116.791 21.2755 117.117 21.0637 117.453 20.8639ZM125.531 26.6976C125.476 26.6657 125.387 26.669 125.332 26.7084L125.303 26.7408C125.283 26.7753 125.296 26.814 125.337 26.8381C125.393 26.8701 125.482 26.8663 125.537 26.8268C125.577 26.7972 125.585 26.7573 125.563 26.7258L125.531 26.6976ZM131.322 22.4987C128.911 21.1036 125.402 20.8785 122.415 21.7984C125.306 20.9868 128.708 21.243 131.125 22.6414C133.559 24.0494 134.327 26.2307 133.377 28.1928C134.483 26.1566 133.749 23.903 131.322 22.4987Z" stroke="white" stroke-width="1.5244"/>
</g>
<g filter="url(#filter3_f_4099_2393)">
<path d="M38.751 14L39.498 20.259L45.0019 21.1084L39.498 21.9579L38.751 28.2169L38.004 21.9579L32.5 21.1084L38.004 20.259L38.751 14Z" fill="#CCABAB"/>
</g>
<path d="M38.751 14L38.998 16.0696C39.2935 18.546 41.2029 20.5221 43.6677 20.9025L45.0019 21.1084L43.6677 21.3144C41.2029 21.6948 39.2935 23.6709 38.998 26.1473L38.751 28.2169L38.504 26.1473C38.2084 23.6709 36.299 21.6948 33.8342 21.3144L32.5 21.1084L33.8342 20.9025C36.299 20.5221 38.2084 18.546 38.504 16.0696L38.751 14Z" fill="white"/>
<g filter="url(#filter4_f_4099_2393)">
<path d="M188.003 45L188.611 50.0949L193.092 50.7864L188.611 51.4778L188.003 56.5727L187.395 51.4778L182.915 50.7864L187.395 50.0949L188.003 45Z" fill="#CCABAB"/>
</g>
<path d="M188.003 45L188.204 46.6847C188.445 48.7005 189.999 50.3091 192.006 50.6187L193.092 50.7864L192.006 50.954C189.999 51.2636 188.445 52.8722 188.204 54.888L188.003 56.5727L187.802 54.8881C187.562 52.8722 186.008 51.2636 184.001 50.954L182.915 50.7864L184.001 50.6187C186.008 50.3091 187.562 48.7005 187.802 46.6847L188.003 45Z" fill="white"/>
<g filter="url(#filter5_f_4099_2393)">
<circle cx="242.739" cy="14.2389" r="3.55122" transform="rotate(-12.5656 242.739 14.2389)" fill="#C0B6B6"/>
</g>
<circle cx="242.739" cy="14.2389" r="3.2901" transform="rotate(-12.5656 242.739 14.2389)" fill="url(#paint4_linear_4099_2393)" stroke="white" stroke-width="0.522238"/>
<defs>
<filter id="filter0_f_4099_2393" x="57.6308" y="34.1307" width="10.216" height="10.2163" filterUnits="userSpaceOnUse" color-interpolation-filters="sRGB">
<feFlood flood-opacity="0" result="BackgroundImageFix"/>
<feBlend mode="normal" in="SourceGraphic" in2="BackgroundImageFix" result="shape"/>
<feGaussianBlur stdDeviation="0.778112" result="effect1_foregroundBlur_4099_2393"/>
</filter>
<filter id="filter1_f_4099_2393" x="82.6582" y="16.011" width="84.9087" height="58.2319" filterUnits="userSpaceOnUse" color-interpolation-filters="sRGB">
<feFlood flood-opacity="0" result="BackgroundImageFix"/>
<feBlend mode="normal" in="SourceGraphic" in2="BackgroundImageFix" result="shape"/>
<feGaussianBlur stdDeviation="3.88721" result="effect1_foregroundBlur_4099_2393"/>
</filter>
<filter id="filter2_i_4099_2393" x="94.5176" y="14.795" width="61.6416" height="40.3495" filterUnits="userSpaceOnUse" color-interpolation-filters="sRGB">
<feFlood flood-opacity="0" result="BackgroundImageFix"/>
<feBlend mode="normal" in="SourceGraphic" in2="BackgroundImageFix" result="shape"/>
<feColorMatrix in="SourceAlpha" type="matrix" values="0 0 0 0 0 0 0 0 0 0 0 0 0 0 0 0 0 0 127 0" result="hardAlpha"/>
<feOffset dx="5.2618" dy="-6.76517"/>
<feComposite in2="hardAlpha" operator="arithmetic" k2="-1" k3="1"/>
<feColorMatrix type="matrix" values="0 0 0 0 0.162692 0 0 0 0 0.212515 0 0 0 0 0.146084 0 0 0 1 0"/>
<feBlend mode="normal" in2="shape" result="effect1_innerShadow_4099_2393"/>
</filter>
<filter id="filter3_f_4099_2393" x="29.5366" y="11.0366" width="18.4288" height="20.1438" filterUnits="userSpaceOnUse" color-interpolation-filters="sRGB">
<feFlood flood-opacity="0" result="BackgroundImageFix"/>
<feBlend mode="normal" in="SourceGraphic" in2="BackgroundImageFix" result="shape"/>
<feGaussianBlur stdDeviation="1.48171" result="effect1_foregroundBlur_4099_2393"/>
</filter>
<filter id="filter4_f_4099_2393" x="180.503" y="42.5877" width="15.0013" height="16.3973" filterUnits="userSpaceOnUse" color-interpolation-filters="sRGB">
<feFlood flood-opacity="0" result="BackgroundImageFix"/>
<feBlend mode="normal" in="SourceGraphic" in2="BackgroundImageFix" result="shape"/>
<feGaussianBlur stdDeviation="1.20613" result="effect1_foregroundBlur_4099_2393"/>
</filter>
<filter id="filter5_f_4099_2393" x="237.631" y="9.13067" width="10.216" height="10.2163" filterUnits="userSpaceOnUse" color-interpolation-filters="sRGB">
<feFlood flood-opacity="0" result="BackgroundImageFix"/>
<feBlend mode="normal" in="SourceGraphic" in2="BackgroundImageFix" result="shape"/>
<feGaussianBlur stdDeviation="0.778112" result="effect1_foregroundBlur_4099_2393"/>
</filter>
<linearGradient id="paint0_linear_4099_2393" x1="62.7388" y1="35.6876" x2="62.9017" y2="55.3301" gradientUnits="userSpaceOnUse">
<stop stop-color="#2E3128"/>
<stop offset="1" stop-color="#8E977B"/>
</linearGradient>
<linearGradient id="paint1_linear_4099_2393" x1="105.633" y1="-17.6201" x2="180.211" y2="29.458" gradientUnits="userSpaceOnUse">
<stop stop-color="#A2A895"/>
<stop offset="1" stop-color="#999999"/>
</linearGradient>
<linearGradient id="paint2_linear_4099_2393" x1="136.322" y1="-38.8921" x2="134.695" y2="29.9616" gradientUnits="userSpaceOnUse">
<stop stop-color="#A2A895"/>
<stop offset="1" stop-color="#999999" stop-opacity="0.33"/>
</linearGradient>
<linearGradient id="paint3_linear_4099_2393" x1="75.8662" y1="-12.6733" x2="9.71804" y2="63.2727" gradientUnits="userSpaceOnUse">
<stop offset="0.239531" stop-color="#D5FF5C" stop-opacity="0.8"/>
<stop offset="0.577962" stop-color="#D5FF5C" stop-opacity="0.4"/>
<stop offset="1" stop-opacity="0"/>
</linearGradient>
<linearGradient id="paint4_linear_4099_2393" x1="242.739" y1="10.6876" x2="242.902" y2="30.3301" gradientUnits="userSpaceOnUse">
<stop stop-color="#2E3128"/>
<stop offset="1" stop-color="#8E977B"/>
</linearGradient>
</defs>
</svg>
