<svg width="142" height="59" viewBox="0 0 142 59" fill="none" xmlns="http://www.w3.org/2000/svg">
<path d="M39.0151 38.6794C39.0151 39.1606 38.625 39.5507 38.1438 39.5507C37.6626 39.5507 37.2725 39.1606 37.2725 38.6794C37.2725 38.1982 37.6626 37.8081 38.1438 37.8081C38.625 37.8081 39.0151 38.1982 39.0151 38.6794Z" fill="#D5FF5C"/>
<path d="M49.3334 8.87131C49.3334 9.35252 48.9433 9.74262 48.4621 9.74262C47.9809 9.74262 47.5908 9.35252 47.5908 8.87131C47.5908 8.3901 47.9809 8 48.4621 8C48.9433 8 49.3334 8.3901 49.3334 8.87131Z" fill="#D5FF5C"/>
<path d="M119.48 39.7297C119.48 40.2109 119.09 40.601 118.609 40.601C118.127 40.601 117.737 40.2109 117.737 39.7297C117.737 39.2485 118.127 38.8584 118.609 38.8584C119.09 38.8584 119.48 39.2485 119.48 39.7297Z" fill="#D5FF5C"/>
<path opacity="0.2" d="M20.6718 18.0429C20.6718 18.5242 20.2817 18.9143 19.8005 18.9143C19.3193 18.9143 18.9292 18.5242 18.9292 18.0429C18.9292 17.5617 19.3193 17.1716 19.8005 17.1716C20.2817 17.1716 20.6718 17.5617 20.6718 18.0429Z" fill="white"/>
<path opacity="0.2" d="M107.803 16.8965C107.803 17.3777 107.413 17.7678 106.932 17.7678C106.451 17.7678 106.061 17.3777 106.061 16.8965C106.061 16.4152 106.451 16.0251 106.932 16.0251C107.413 16.0251 107.803 16.4152 107.803 16.8965Z" fill="white"/>
<path opacity="0.5" d="M137.062 -32.249C180.815 -33.5116 216.893 -13.4712 217.642 12.5126C218.392 38.4963 183.531 60.5838 139.777 61.8464C96.0231 63.109 59.9458 43.0685 59.196 17.0848L59.196 -3.63636" stroke="white" stroke-width="0.468493"/>
<ellipse cx="138.41" cy="-3.91644" rx="79.4096" ry="47.0836" stroke="url(#paint0_linear_4086_2410)" stroke-width="0.468493"/>
<g style="mix-blend-mode:hard-light">
<path fill-rule="evenodd" clip-rule="evenodd" d="M122.94 -26.0748C117.251 -25.9195 112.084 -25.4674 108.128 -25.0165C106.213 -24.7982 105.191 -24.6751 104.445 -24.5136C103.884 -24.3918 103.712 -24.2963 103.539 -24.1711C103.366 -24.046 103.239 -23.9246 103.116 -23.5494C102.951 -23.0516 102.877 -22.3796 102.758 -21.1224C102.503 -18.4454 102.39 -14.9401 102.836 -11.1287C104.615 -14.3081 107.369 -17.3516 111.105 -20.0606C114.59 -22.5876 118.618 -24.5972 122.94 -26.0748ZM153.131 18.8217C159.584 18.7278 165.486 18.2244 169.888 17.7226C171.804 17.5043 172.826 17.3813 173.571 17.2198C174.133 17.098 174.305 17.0024 174.478 16.8773C174.65 16.7521 174.778 16.6308 174.901 16.2555C175.065 15.7577 175.139 15.0857 175.259 13.8285C175.526 11.0249 175.637 7.3127 175.114 3.29189C173.335 6.46276 170.585 9.49795 166.858 12.2003C162.869 15.0925 158.17 17.3069 153.131 18.8217ZM166.045 -23.2497C157.301 -28.3093 145.758 -30.3037 135.03 -30.892C124.265 -31.4822 113.919 -30.6793 107.134 -29.9059C106.933 -29.883 106.732 -29.8605 106.53 -29.838C103.526 -29.5023 100.383 -29.1512 97.9639 -27.3972C95.5448 -25.6433 95.3591 -23.5808 95.1816 -21.6097L95.1814 -21.6079C95.1695 -21.476 95.1577 -21.3444 95.1452 -21.2133C94.7208 -16.7593 94.6508 -10.0105 96.7653 -3.14797C98.8725 3.69114 103.228 10.8962 111.972 15.9559C120.716 21.0155 132.259 23.0099 142.987 23.5981C153.752 24.1884 164.098 23.3854 170.883 22.6121C171.082 22.5894 171.281 22.5671 171.482 22.5447L171.487 22.5441C174.491 22.2085 177.634 21.8573 180.053 20.1034C182.472 18.3494 182.658 16.287 182.835 14.3159C182.847 14.1833 182.859 14.0511 182.872 13.9195C183.296 9.4654 183.366 2.71668 181.252 -4.14588C179.144 -10.985 174.788 -18.1901 166.045 -23.2497ZM117.512 11.6368C129.699 18.689 149.303 17.66 161.282 8.97423C173.262 0.288481 172.639 -12.4448 160.451 -19.4971C148.264 -26.5493 128.66 -25.5203 116.68 -16.8345C104.701 -8.14879 105.324 4.58449 117.512 11.6368ZM151.309 3.4849C144.841 8.17432 133.982 8.72605 127.054 4.71721C120.126 0.708377 119.753 -6.34295 126.221 -11.0324C132.688 -15.7218 143.548 -16.2735 150.476 -12.2647C157.404 -8.25585 157.777 -1.20452 151.309 3.4849ZM156.884 6.711C147.542 13.4846 131.856 14.2816 121.849 8.49101C111.842 2.70045 111.303 -7.48484 120.645 -14.2585C129.988 -21.0321 145.673 -21.829 155.68 -16.0385C165.687 -10.2479 166.226 -0.062631 156.884 6.711ZM140.618 -2.69574C139.66 -2.00103 138.051 -1.91929 137.025 -2.51318C135.999 -3.10707 135.943 -4.15169 136.901 -4.84641C137.86 -5.54112 139.468 -5.62285 140.495 -5.02897C141.521 -4.43508 141.576 -3.39046 140.618 -2.69574ZM146.193 0.530358C142.361 3.30928 135.926 3.63623 131.82 1.26061C127.715 -1.115 127.494 -5.29358 131.326 -8.0725C135.159 -10.8514 141.594 -11.1784 145.7 -8.80276C149.805 -6.42715 150.026 -2.24857 146.193 0.530358Z" stroke="url(#paint1_linear_4086_2410)" stroke-width="0.959825"/>
</g>
<g filter="url(#filter0_f_4086_2410)">
<ellipse cx="79.2385" cy="43.0547" rx="25.8806" ry="15.9265" fill="#C9C9C9" fill-opacity="0.06"/>
</g>
<mask id="path-11-outside-1_4086_2410" maskUnits="userSpaceOnUse" x="55.193" y="18.9926" width="48.3198" height="33.0401" fill="black">
<rect fill="white" x="55.193" y="18.9926" width="48.3198" height="33.0401"/>
<path d="M78.8606 21.0202C69.3847 21.438 61.456 25.6147 58.4499 31.1478L57.0003 31.2147L57.1819 35.3347C57.1545 35.7062 57.1484 36.0808 57.165 36.4576C57.5169 44.4399 67.8014 50.4705 80.135 49.9267C92.4684 49.3828 102.182 42.4706 101.83 34.4884C101.808 33.9991 101.749 33.5171 101.654 33.0435L101.484 29.1743L100.036 29.24C96.5275 24.033 88.2932 20.6045 78.8606 21.0202Z"/>
</mask>
<g filter="url(#filter1_i_4086_2410)">
<path d="M78.8606 21.0202C69.3847 21.438 61.456 25.6147 58.4499 31.1478L57.0003 31.2147L57.1819 35.3347C57.1545 35.7062 57.1484 36.0808 57.165 36.4576C57.5169 44.4399 67.8014 50.4705 80.135 49.9267C92.4684 49.3828 102.182 42.4706 101.83 34.4884C101.808 33.9991 101.749 33.5171 101.654 33.0435L101.484 29.1743L100.036 29.24C96.5275 24.033 88.2932 20.6045 78.8606 21.0202Z" fill="#1C271E"/>
</g>
<path d="M78.8606 21.0202L78.8355 20.452L78.8355 20.452L78.8606 21.0202ZM58.4499 31.1478L58.9497 31.4194L58.7966 31.7012L58.4761 31.716L58.4499 31.1478ZM57.0003 31.2147L56.432 31.2397L56.407 30.6726L56.9741 30.6465L57.0003 31.2147ZM57.1819 35.3347L57.7502 35.3096L57.7517 35.3432L57.7492 35.3766L57.1819 35.3347ZM57.165 36.4576L56.5967 36.4827L56.5967 36.4827L57.165 36.4576ZM80.135 49.9267L80.1601 50.495L80.1601 50.495L80.135 49.9267ZM101.83 34.4884L102.398 34.4633L102.398 34.4633L101.83 34.4884ZM101.654 33.0435L101.097 33.1547L101.088 33.1121L101.086 33.0686L101.654 33.0435ZM101.484 29.1743L101.458 28.606L102.027 28.5802L102.052 29.1492L101.484 29.1743ZM100.036 29.24L100.062 29.8083L99.7429 29.8228L99.5644 29.5579L100.036 29.24ZM78.8606 21.0202L78.8856 21.5885C69.5235 22.0013 61.8257 26.1257 58.9497 31.4194L58.4499 31.1478L57.9501 30.8763C61.0862 25.1038 69.246 20.8748 78.8355 20.452L78.8606 21.0202ZM58.4499 31.1478L58.4761 31.716L57.0265 31.7829L57.0003 31.2147L56.9741 30.6465L58.4237 30.5796L58.4499 31.1478ZM57.0003 31.2147L57.5685 31.1896L57.7502 35.3096L57.1819 35.3347L56.6137 35.3597L56.432 31.2397L57.0003 31.2147ZM57.1819 35.3347L57.7492 35.3766C57.7233 35.7263 57.7176 36.0784 57.7332 36.4326L57.165 36.4576L56.5967 36.4827C56.5791 36.0831 56.5856 35.6862 56.6147 35.2927L57.1819 35.3347ZM57.165 36.4576L57.7332 36.4326C57.8979 40.1666 60.3897 43.5211 64.4446 45.8988C68.4936 48.273 74.0364 49.6262 80.11 49.3585L80.135 49.9267L80.1601 50.495C73.9001 50.771 68.1338 49.3808 63.8692 46.8801C59.6104 44.3829 56.784 40.7309 56.5967 36.4827L57.165 36.4576ZM80.135 49.9267L80.11 49.3585C86.1834 49.0906 91.5853 47.2549 95.4095 44.5335C99.2392 41.8082 101.426 38.2475 101.261 34.5135L101.83 34.4884L102.398 34.4633C102.585 38.7115 100.091 42.598 96.0691 45.4604C92.0413 48.3266 86.42 50.2189 80.1601 50.495L80.135 49.9267ZM101.83 34.4884L101.261 34.5135C101.241 34.0535 101.185 33.6003 101.097 33.1547L101.654 33.0435L102.212 32.9323C102.312 33.4339 102.375 33.9447 102.398 34.4633L101.83 34.4884ZM101.654 33.0435L101.086 33.0686L100.916 29.1993L101.484 29.1743L102.052 29.1492L102.223 33.0185L101.654 33.0435ZM101.484 29.1743L101.51 29.7425L100.062 29.8083L100.036 29.24L100.01 28.6718L101.458 28.606L101.484 29.1743ZM100.036 29.24L99.5644 29.5579C96.2065 24.5746 88.2045 21.1777 78.8856 21.5885L78.8606 21.0202L78.8355 20.452C88.3819 20.0312 96.8484 23.4915 100.508 28.9222L100.036 29.24Z" fill="white" mask="url(#path-11-outside-1_4086_2410)"/>
<path d="M78.6068 15.2586C72.3934 15.5326 66.8269 17.4108 62.85 20.2407C58.8761 23.0685 56.4594 26.8729 56.6408 30.9924C56.8225 35.112 59.5647 38.6896 63.7722 41.1569C67.9827 43.6258 73.6929 45.0068 79.9063 44.7329C86.1197 44.4589 91.6863 42.5807 95.6631 39.7508C99.6371 36.9229 102.054 33.1178 101.872 28.9982C101.69 24.8788 98.9482 21.3018 94.7409 18.8346C90.5305 16.3657 84.8202 14.9847 78.6068 15.2586Z" fill="#1C271E" stroke="white" stroke-width="0.568804"/>
<mask id="mask0_4086_2410" style="mask-type:alpha" maskUnits="userSpaceOnUse" x="56" y="15" width="46" height="30">
<path d="M78.6377 15.8226C72.5175 16.0924 67.0603 17.9428 63.1852 20.7003C59.3078 23.4596 57.0444 27.1012 57.2145 30.9635C57.3848 34.826 59.96 38.2549 64.0653 40.6624C68.168 43.0681 73.767 44.4311 79.8872 44.1613C86.0072 43.8914 91.4636 42.041 95.3387 39.2836C99.2165 36.5241 101.481 32.8819 101.31 29.0194C101.14 25.1569 98.564 21.7289 94.4586 19.3215C90.3559 16.9158 84.7578 15.5528 78.6377 15.8226Z" fill="#F384BD" stroke="#EDC00C" stroke-width="0.568804"/>
</mask>
<g mask="url(#mask0_4086_2410)">
<ellipse cx="15.446" cy="15.6161" rx="15.446" ry="15.6161" transform="matrix(0.855134 0.518408 -0.834131 0.551566 79.1597 12.8602)" fill="url(#paint2_linear_4086_2410)" fill-opacity="0.4" stroke="white" stroke-width="0.568804"/>
<path d="M86.0453 24.6594C88.1456 25.8748 89.1641 27.5866 89.65 29.1633C90.1387 30.7495 90.1206 32.3015 90.0236 33.319C90.0209 33.3475 90.0185 33.3764 90.0158 33.4062C89.9779 33.8272 89.9427 34.4508 89.2127 34.9802C88.4823 35.5098 87.5291 35.6028 86.8874 35.6745L86.8857 35.6746C86.8408 35.6796 86.7974 35.6844 86.7545 35.6893C85.2046 35.866 82.8262 36.0513 80.3381 35.9149C77.8647 35.7793 75.1235 35.3166 73.0231 34.1012C70.9226 32.8858 69.905 31.1735 69.4192 29.5967C68.9305 28.0106 68.9478 26.4591 69.0447 25.4416C69.0474 25.4132 69.0499 25.3841 69.0525 25.3544L69.0911 25.0047C69.1513 24.6268 69.3088 24.1768 69.8564 23.7798C70.5868 23.2504 71.5394 23.1578 72.181 23.0861C72.2264 23.081 72.2704 23.0762 72.3139 23.0713C73.8639 22.8946 76.2428 22.7086 78.731 22.8451C81.2044 22.9807 83.9449 23.444 86.0453 24.6594ZM79.1903 33.4006C77.7659 33.3986 76.3569 33.0804 75.2334 32.4303C74.1276 31.7904 73.4831 30.9365 73.3077 30.0358C73.4519 30.9608 74.0845 31.8303 75.1836 32.4664C76.2999 33.1124 77.7318 33.422 79.1903 33.4006ZM81.6397 27.7853C80.3604 27.0451 78.357 27.1475 77.1646 28.0118C75.9724 28.8762 76.0397 30.1777 77.319 30.9181C78.5986 31.6585 80.6026 31.5556 81.7949 30.6911C82.9869 29.8265 82.9191 28.5256 81.6397 27.7853ZM81.4919 27.8925C82.6817 28.581 82.7474 29.7933 81.6345 30.6003C80.5215 31.407 78.6543 31.501 77.4645 30.8126C76.2748 30.1242 76.2093 28.9118 77.322 28.1049C78.4349 27.2979 80.3021 27.204 81.4919 27.8925ZM87.0142 32.5918C86.7836 32.8047 86.5341 33.0126 86.2596 33.2117C85.9481 33.4376 85.6156 33.6446 85.2707 33.8361C85.6653 33.8023 86.0309 33.768 86.3585 33.7306C86.6425 33.6983 86.814 33.6753 86.9288 33.6587C86.9414 33.5829 86.9566 33.4701 86.9744 33.2841C86.9943 33.0746 87.0064 32.8421 87.0142 32.5918ZM73.5216 24.9461C73.2315 24.9731 72.9597 25.0015 72.7099 25.03C72.4261 25.0623 72.2543 25.0842 72.1395 25.1009C72.1268 25.1766 72.1118 25.2899 72.094 25.4765C72.0779 25.6459 72.0654 25.8303 72.0567 26.027C72.2832 25.8191 72.5289 25.6163 72.7973 25.4217C73.029 25.2537 73.2709 25.0952 73.5216 24.9461ZM79.5509 29.2998C79.5096 29.2759 79.4429 29.279 79.4021 29.3085L79.3796 29.3326C79.3656 29.3582 79.3754 29.3869 79.4063 29.4047C79.4371 29.4226 79.4821 29.4257 79.5199 29.4138L79.5543 29.3966L79.5768 29.3725C79.5864 29.3553 79.586 29.3367 79.575 29.3209L79.5509 29.2998ZM83.8724 26.1665C82.0758 25.127 79.4629 24.9586 77.2363 25.6413C79.3911 25.0392 81.9248 25.2313 83.7254 26.2731C85.5261 27.3151 86.106 28.9246 85.4242 30.3792C86.2217 28.8694 85.6691 27.2061 83.8724 26.1665Z" stroke="white" stroke-width="1.13761"/>
</g>
<g filter="url(#filter2_f_4086_2410)">
<path d="M42.0907 12.2583L42.6481 16.9292L46.7556 17.5631L42.6481 18.197L42.0907 22.8679L41.5332 18.197L37.4258 17.5631L41.5332 16.9292L42.0907 12.2583Z" fill="#CCABAB"/>
</g>
<path d="M42.0907 12.2583L42.275 13.8028C42.4956 15.6508 43.9205 17.1255 45.7599 17.4094L46.7556 17.5631L45.7599 17.7168C43.9205 18.0007 42.4956 19.4754 42.275 21.3234L42.0907 22.8679L41.9064 21.3234C41.6858 19.4754 40.2609 18.0007 38.4215 17.7168L37.4258 17.5631L38.4215 17.4094C40.2609 17.1255 41.6858 15.6508 41.9064 13.8028L42.0907 12.2583Z" fill="white"/>
<g filter="url(#filter3_f_4086_2410)">
<path d="M104.112 47.8604L104.566 51.6625L107.91 52.1785L104.566 52.6946L104.112 56.4967L103.658 52.6946L100.315 52.1785L103.658 51.6625L104.112 47.8604Z" fill="#CCABAB"/>
</g>
<path d="M104.112 47.8604L104.262 49.1176C104.442 50.6219 105.602 51.8224 107.099 52.0534L107.91 52.1785L107.099 52.3036C105.602 52.5347 104.442 53.7351 104.262 55.2395L104.112 56.4967L103.962 55.2395C103.783 53.7351 102.623 52.5347 101.125 52.3036L100.315 52.1785L101.125 52.0534C102.623 51.8224 103.783 50.6219 103.962 49.1176L104.112 47.8604Z" fill="white"/>
<rect width="36" height="59" transform="matrix(-1 0 0 1 142 0)" fill="url(#paint3_linear_4086_2410)"/>
<defs>
<filter id="filter0_f_4086_2410" x="47.5561" y="21.3264" width="63.3648" height="43.4566" filterUnits="userSpaceOnUse" color-interpolation-filters="sRGB">
<feFlood flood-opacity="0" result="BackgroundImageFix"/>
<feBlend mode="normal" in="SourceGraphic" in2="BackgroundImageFix" result="shape"/>
<feGaussianBlur stdDeviation="2.9009" result="effect1_foregroundBlur_4086_2410"/>
</filter>
<filter id="filter1_i_4086_2410" x="56.4072" y="20.4175" width="46.0005" height="30.1121" filterUnits="userSpaceOnUse" color-interpolation-filters="sRGB">
<feFlood flood-opacity="0" result="BackgroundImageFix"/>
<feBlend mode="normal" in="SourceGraphic" in2="BackgroundImageFix" result="shape"/>
<feColorMatrix in="SourceAlpha" type="matrix" values="0 0 0 0 0 0 0 0 0 0 0 0 0 0 0 0 0 0 127 0" result="hardAlpha"/>
<feOffset dx="3.92671" dy="-5.04863"/>
<feComposite in2="hardAlpha" operator="arithmetic" k2="-1" k3="1"/>
<feColorMatrix type="matrix" values="0 0 0 0 0.162692 0 0 0 0 0.212515 0 0 0 0 0.146084 0 0 0 1 0"/>
<feBlend mode="normal" in2="shape" result="effect1_innerShadow_4086_2410"/>
</filter>
<filter id="filter2_f_4086_2410" x="35.2143" y="10.0468" width="13.7526" height="15.0326" filterUnits="userSpaceOnUse" color-interpolation-filters="sRGB">
<feFlood flood-opacity="0" result="BackgroundImageFix"/>
<feBlend mode="normal" in="SourceGraphic" in2="BackgroundImageFix" result="shape"/>
<feGaussianBlur stdDeviation="1.10576" result="effect1_foregroundBlur_4086_2410"/>
</filter>
<filter id="filter3_f_4086_2410" x="98.5147" y="46.0602" width="11.1951" height="12.2367" filterUnits="userSpaceOnUse" color-interpolation-filters="sRGB">
<feFlood flood-opacity="0" result="BackgroundImageFix"/>
<feBlend mode="normal" in="SourceGraphic" in2="BackgroundImageFix" result="shape"/>
<feGaussianBlur stdDeviation="0.900099" result="effect1_foregroundBlur_4086_2410"/>
</filter>
<linearGradient id="paint0_linear_4086_2410" x1="72.3521" y1="1.75127" x2="138.41" y2="43.1671" gradientUnits="userSpaceOnUse">
<stop stop-color="#A2A895"/>
<stop offset="1" stop-color="#999999"/>
</linearGradient>
<linearGradient id="paint1_linear_4086_2410" x1="101.611" y1="-21.0441" x2="100.179" y2="39.5471" gradientUnits="userSpaceOnUse">
<stop stop-color="#A2A895"/>
<stop offset="1" stop-color="#999999" stop-opacity="0.33"/>
</linearGradient>
<linearGradient id="paint2_linear_4086_2410" x1="56.6166" y1="-9.45771" x2="7.25226" y2="47.2184" gradientUnits="userSpaceOnUse">
<stop offset="0.239531" stop-color="#D5FF5C" stop-opacity="0.8"/>
<stop offset="0.577962" stop-color="#D5FF5C" stop-opacity="0.4"/>
<stop offset="1" stop-opacity="0"/>
</linearGradient>
<linearGradient id="paint3_linear_4086_2410" x1="3.5" y1="2.01657e-07" x2="30.5" y2="20" gradientUnits="userSpaceOnUse">
<stop stop-color="#1B1B1B"/>
<stop offset="1" stop-color="#1B1B1B" stop-opacity="0"/>
</linearGradient>
</defs>
</svg>
