<svg width="16" height="16" viewBox="0 0 16 16" fill="none" xmlns="http://www.w3.org/2000/svg">
    <rect width="16" height="16" rx="8" fill="#fff"/>
    <path d="m4.93 11.068-.03.064a2.163 2.163 0 0 0 .483 2.39 2.254 2.254 0 0 0 3.146 0l4.093-4.034a2.227 2.227 0 0 0 .665-1.585c0-.534-.167-1.048-.533-1.452a1 1 0 0 0-.574-.065.985.985 0 0 0-.464.252l-3.888 3.933a.969.969 0 0 1-.245.181c.047-.029.094-.059.14-.09l-.011.005.011-.008.012-.008-.023.016a3.294 3.294 0 0 1-2.783.4Z" fill="#104ADE"/>
    <path d="m7.712 10.667.023-.016a.973.973 0 0 1-1.327-1.022.963.963 0 0 1 .276-.558l1.294-1.287 1.89-1.863a.617.617 0 0 0 .009-.007l.016-.013.284-.28c.145-.029.293-.042.44-.04.332 0 .615.031.897.111a2.191 2.191 0 0 1 1.244.76 1.002 1.002 0 0 0-.578-.066.986.986 0 0 0-.464.252l-3.888 3.933a.969.969 0 0 1-.245.181c.047-.029.094-.059.14-.09l-.011.005Z" fill="#0038C7"/>
    <path d="M10.85 3.184a2.027 2.027 0 0 0-.448-.659 2.418 2.418 0 0 0-3.376 0l-3.37 3.32a3.142 3.142 0 0 0-.07 4.42l.035.033.037.037a3.289 3.289 0 0 0 4.078.316.973.973 0 0 1-1.327-1.022.963.963 0 0 1 .275-.558L7.98 7.784l1.89-1.863.024-.02.509-.502a2.01 2.01 0 0 0 .447-2.214Z" fill="#0F75FC"/>
</svg>
