<svg width="249" height="166" viewBox="0 0 249 166" fill="none" xmlns="http://www.w3.org/2000/svg">
<mask id="mask0_3222_2135" style="mask-type:alpha" maskUnits="userSpaceOnUse" x="2" y="1" width="245" height="164">
<path d="M245.146 78.759C246.923 81.1578 246.923 84.3191 245.146 86.7179C233.01 103.101 183.604 164.477 124.5 164.477C65.3963 164.477 15.9896 103.101 3.85413 86.7179C2.07728 84.3191 2.07727 81.1578 3.85412 78.759C15.9896 62.3757 65.3962 1 124.5 1C183.604 1 233.01 62.3757 245.146 78.759Z" fill="#D9D9D9"/>
</mask>
<g mask="url(#mask0_3222_2135)">
<path d="M27.4121 111.296C36.5402 110.75 50.0802 97.2591 55.7092 90.582C46.5811 101.281 37.9094 103.785 38.3658 102.874C38.8222 101.963 38.1376 100.598 36.312 99.9148C34.8515 99.3685 32.965 101.66 32.2044 102.874C30.6069 103.329 29.9223 104.923 29.9223 107.654C29.9223 109.839 28.2489 110.993 27.4121 111.296Z" fill="white" stroke="black" stroke-width="0.148132"/>
<path d="M54.1052 90.536C54.1052 93.5087 52.8019 96.177 50.7356 98.0007C48.9811 99.5493 46.6764 100.489 44.1522 100.489C38.6553 100.489 34.1992 96.0328 34.1992 90.536C34.1992 90.301 34.2074 90.0679 34.2234 89.837C34.247 89.4965 34.2877 89.1608 34.3448 88.8305C35.1536 84.1462 39.2368 80.583 44.1522 80.583C49.6491 80.583 54.1052 85.0391 54.1052 90.536Z" fill="url(#paint0_radial_3222_2135)"/>
<path d="M44.1522 100.489C38.6553 100.489 34.1992 96.0328 34.1992 90.536C34.1992 90.301 34.2074 90.0679 34.2234 89.837M44.1522 100.489C46.6764 100.489 48.9811 99.5493 50.7356 98.0007M44.1522 100.489V99.818M44.1522 80.583C49.6491 80.583 54.1052 85.0391 54.1052 90.536C54.1052 93.5087 52.8019 96.177 50.7356 98.0007M44.1522 80.583V85.5595M44.1522 80.583C39.2368 80.583 35.1536 84.1462 34.3448 88.8305M44.1522 90.536V89.837M44.1522 90.536H41.0069M44.1522 90.536V91.9339M44.1522 95.5125H49.2685V94.6737M44.1522 95.5125V98.0007M44.1522 95.5125V91.9339M44.1522 85.5595V89.1381M44.1522 85.5595H47.0878M44.1522 89.1381H37.8617V90.536H41.0069M44.1522 89.1381V89.837M44.1522 89.837H35.6251M34.2234 89.837C34.247 89.4965 34.2877 89.1608 34.3448 88.8305M34.2234 89.837H35.6251M44.1522 98.0007H50.7356M44.1522 98.0007V99.818M50.7356 98.0007C48.8953 98.038 45.1251 98.1629 44.7673 98.3641C44.4094 98.5654 44.2081 99.4172 44.1522 99.818M41.0069 90.536C41.9249 90.5453 43.593 90.5639 43.8446 90.8715C44.1096 91.1953 44.0963 91.7009 44.1522 91.9339M47.0878 85.5595H49.2685V84.553C49.2871 84.8046 49.1007 85.196 48.933 85.3079C48.5579 85.5579 47.3114 85.5315 47.0878 85.5595ZM34.3448 88.8305C34.3056 89.194 34.5068 89.9041 35.6251 89.837" stroke="black" stroke-width="0.104881"/>
<path d="M44.1533 98.002H50.7368C48.8964 98.0392 45.1263 98.1641 44.7684 98.3654C44.4105 98.5667 44.2092 99.4185 44.1533 99.8192V98.002Z" fill="black" stroke="black" stroke-width="0.104881"/>
<path d="M49.2647 84.6262V85.5582H47.084C47.3076 85.5303 48.5541 85.5567 48.9292 85.3066C49.0812 85.2053 49.2484 84.8746 49.2647 84.6262V84.5518C49.2664 84.5754 49.2664 84.6004 49.2647 84.6262Z" fill="black"/>
<path d="M49.2647 85.5582V84.5518C49.2833 84.8034 49.0969 85.1948 48.9292 85.3066C48.5541 85.5567 47.3076 85.5303 47.084 85.5582H49.2647Z" stroke="black" stroke-width="0.104881"/>
<path d="M41.0056 90.5361H44.1508V91.934C44.0949 91.701 44.1083 91.1955 43.8433 90.8716C43.5917 90.5641 41.9235 90.5455 41.0056 90.5361Z" fill="black"/>
<path d="M37.8604 90.5361H41.0056M41.0056 90.5361H44.1508V91.934C44.0949 91.701 44.1083 91.1955 43.8433 90.8716C43.5917 90.5641 41.9235 90.5455 41.0056 90.5361Z" stroke="black" stroke-width="0.104881"/>
<path d="M54.104 90.535C54.104 85.0381 49.6479 80.582 44.1511 80.582C46.1086 81.0853 48.7925 82.0918 50.4416 84.3563C52.6515 87.391 52.8462 91.8612 50.7345 95.5394C48.9047 98.7266 44.1515 99.5094 44.1515 99.5094C44.1515 99.5094 42.49 99.5645 41.4396 99.4256C40.211 99.263 38.3643 98.6427 38.3643 98.6427C38.3643 98.6427 39.5259 99.4631 40.9364 99.9568C42.6138 100.544 44.1511 100.488 44.1511 100.488C46.6753 100.488 48.98 99.5483 50.7345 97.9997C52.8008 96.176 54.104 93.5077 54.104 90.535Z" fill="black" fill-opacity="0.21" stroke="black" stroke-width="0.104881"/>
<path d="M34.2197 89.8424C34.2433 89.5019 34.2841 89.1661 34.3411 88.8359C34.3055 89.1666 34.4687 89.7842 35.3405 89.8424H35.6214C35.5205 89.8485 35.427 89.8482 35.3405 89.8424H34.2197Z" fill="black" stroke="black" stroke-width="0.104881"/>
<path d="M165.34 -25.9077C166.228 -26.7393 167.073 -27.5311 167.867 -28.2754C167.171 -27.567 166.314 -26.7688 165.34 -25.9077C151.462 -12.9065 127.203 9.82074 124.12 12.7156C120.018 16.5655 89.0301 34.2301 83.3337 37.8536C77.6374 41.4771 85.1566 28.5684 91.3086 26.3037C97.4606 24.039 96.5492 26.3037 99.2835 21.5479C102.018 16.792 106.575 21.7743 112.499 18.3773C118.423 14.9802 124.575 10.9038 126.854 7.28029C131.553 -0.193199 140.297 -6.76081 140.297 -6.76081C140.297 -6.76081 157.072 -18.6012 165.34 -25.9077Z" fill="white"/>
<path d="M167.867 -28.2754C154.652 -15.8951 127.401 9.63557 124.12 12.7156C120.018 16.5655 89.0301 34.2301 83.3337 37.8536C77.6374 41.4772 85.1566 28.5684 91.3086 26.3037C97.4606 24.039 96.5492 26.3037 99.2835 21.5479C102.018 16.792 106.575 21.7743 112.499 18.3773C118.423 14.9802 124.575 10.9038 126.854 7.28029C131.553 -0.193198 140.297 -6.76081 140.297 -6.76081C140.297 -6.76081 161.26 -21.5568 167.867 -28.2754Z" stroke="black" stroke-width="0.148132"/>
<path d="M192.839 94.0585C192.839 113.432 184.345 130.821 170.879 142.707C159.445 152.799 144.425 158.923 127.975 158.923C92.151 158.923 63.1104 129.882 63.1104 94.0585C63.1104 92.5272 63.1634 91.0083 63.2678 89.5034C63.4217 87.2844 63.6873 85.0961 64.0589 82.9441C69.3302 52.416 95.9405 29.1943 127.975 29.1943C163.798 29.1943 192.839 58.235 192.839 94.0585Z" fill="url(#paint1_radial_3222_2135)"/>
<path d="M127.975 158.923C92.151 158.923 63.1104 129.882 63.1104 94.0585C63.1104 92.5272 63.1634 91.0083 63.2678 89.5034M127.975 158.923C144.425 158.923 159.445 152.799 170.879 142.707M127.975 158.923V154.55M127.975 29.1943C163.798 29.1943 192.839 58.235 192.839 94.0585C192.839 113.432 184.345 130.821 170.879 142.707M127.975 29.1943V61.6264M127.975 29.1943C95.9405 29.1943 69.3302 52.416 64.0589 82.9441M127.975 94.0585V89.5034M127.975 94.0585H107.477M127.975 94.0585V103.169M127.975 126.491H161.318V121.025M127.975 126.491V142.707M127.975 126.491V103.169M127.975 61.6264V84.9484M127.975 61.6264H147.106M127.975 84.9484H86.9789V94.0585H107.477M127.975 84.9484V89.5034M127.975 89.5034H72.4027M63.2678 89.5034C63.4217 87.2844 63.6873 85.0961 64.0589 82.9441M63.2678 89.5034H72.4027M127.975 142.707H170.879M127.975 142.707V154.55M170.879 142.707C158.886 142.95 134.315 143.763 131.983 145.075C129.651 146.387 128.339 151.938 127.975 154.55M107.477 94.0585C113.459 94.1193 124.33 94.2407 125.97 96.245C127.697 98.3557 127.61 101.65 127.975 103.169M147.106 61.6264H161.318V55.0671C161.439 56.707 160.224 59.2578 159.131 59.9866C156.687 61.6163 148.563 61.4442 147.106 61.6264ZM64.0589 82.9441C63.8034 85.3128 65.1146 89.9407 72.4027 89.5034" stroke="black" stroke-width="0.148132"/>
<path d="M127.973 142.707H170.877C158.884 142.95 134.313 143.764 131.981 145.076C129.649 146.388 128.337 151.939 127.973 154.55V142.707Z" fill="black" stroke="black" stroke-width="0.148132"/>
<path d="M161.315 55.5543V61.6286H147.104C148.561 61.4464 156.684 61.6185 159.129 59.9888C160.119 59.3286 161.209 57.1732 161.315 55.5543V55.0693C161.327 55.2237 161.326 55.3861 161.315 55.5543Z" fill="black"/>
<path d="M161.315 61.6286V55.0693C161.437 56.7092 160.222 59.26 159.129 59.9888C156.684 61.6185 148.561 61.4464 147.104 61.6286H161.315Z" stroke="black" stroke-width="0.148132"/>
<path d="M107.476 94.0645H127.974V103.175C127.61 101.656 127.697 98.3616 125.97 96.2509C124.33 94.2467 113.459 94.1252 107.476 94.0645Z" fill="black"/>
<path d="M86.9785 94.0645H107.476M107.476 94.0645H127.974V103.175C127.61 101.656 127.697 98.3616 125.97 96.2509C124.33 94.2467 113.459 94.1252 107.476 94.0645Z" stroke="black" stroke-width="0.148132"/>
<path d="M192.835 94.0585C192.835 58.235 163.794 29.1943 127.971 29.1943C140.728 32.474 158.219 39.0333 168.967 53.7917C183.369 73.5692 184.638 102.701 170.876 126.673C158.951 147.444 127.974 152.546 127.974 152.546C127.974 152.546 117.146 152.905 110.3 151.999C102.293 150.94 90.2578 146.897 90.2578 146.897C90.2578 146.897 97.8283 152.244 107.02 155.461C117.953 159.287 127.971 158.923 127.971 158.923C144.421 158.923 159.441 152.799 170.876 142.707C184.342 130.821 192.835 113.432 192.835 94.0585Z" fill="black" fill-opacity="0.21" stroke="black" stroke-width="0.148132"/>
<path d="M63.2666 89.5036C63.4205 87.2846 63.6861 85.0963 64.0577 82.9443C63.8253 85.0992 64.8895 89.1239 70.5709 89.5036H72.4015C71.7437 89.5431 71.1346 89.5413 70.5709 89.5036H63.2666Z" fill="black" stroke="black" stroke-width="0.148132"/>
<path d="M-6.85254 126.222H36.6937C39.146 125.433 43.7045 123.712 44.8436 123.144C46.2675 122.434 70.0257 123.071 76.6706 124.492C83.3155 125.912 84.0009 127.878 89.4592 127.642C93.8258 127.452 113.27 127.563 122.446 127.642L147.602 121.96H175.13L182.962 121.25L183.911 118.883L188.361 116.581C189.577 115.952 191.029 116.007 192.22 116.683C194.078 117.737 196.28 118.883 196.964 118.883C198.15 118.883 200.286 117.936 202.422 119.593C204.558 121.25 208.592 122.908 210.016 123.854C211.155 124.612 217.768 126.695 220.933 127.642H266.739V190.347H-6.85254V126.222Z" fill="#9D86E6"/>
<path d="M89.4592 127.642C84.0009 127.878 83.3155 125.912 76.6706 124.492C70.0257 123.071 46.2675 122.434 44.8436 123.144C43.7045 123.712 39.146 125.433 36.6937 126.222H-6.85254V190.347H266.739V127.642H220.933C217.768 126.695 211.155 124.612 210.016 123.854C208.592 122.908 204.558 121.25 202.422 119.593C200.286 117.936 198.15 118.883 196.964 118.883C196.28 118.883 194.078 117.737 192.22 116.683C191.029 116.007 189.577 115.952 188.361 116.581L183.911 118.883L182.962 121.25L175.13 121.96H147.602L122.446 127.642C113.27 127.563 93.8258 127.452 89.4592 127.642ZM89.4592 127.642C87.1 128.198 81.632 129.203 78.6338 128.775M78.6338 128.775C74.8859 128.24 70.9596 129.667 68.818 129.667M78.6338 128.775C74.7788 129.061 70.6622 129.786 68.818 129.667M68.818 129.667C67.1047 129.667 65.784 129.646 58.2884 130.024" stroke="black" stroke-width="0.155357"/>
<path d="M71.8519 151.265L107.724 134.846H97.1944L54.8975 140.021L71.8519 151.265Z" fill="#674BC2" stroke="#9D86E6" stroke-width="0.155357"/>
<path d="M52.8601 138.437L48.9131 138.051L48.9181 137.095L49.288 136.333C49.4685 135.962 49.8465 135.727 50.2595 135.731L54.2698 135.762C54.6548 135.765 55.0085 135.974 55.1963 136.311L55.8239 137.434L56.0228 137.79L52.8601 138.437Z" fill="#D9D9D9"/>
<path d="M48.9181 137.095L49.288 136.333C49.4685 135.962 49.8465 135.727 50.2595 135.731L54.2698 135.762C54.6548 135.765 55.0085 135.974 55.1963 136.311L55.8239 137.434M48.9181 137.095L48.9131 138.051L52.8601 138.437L56.0228 137.79L55.8239 137.434M48.9181 137.095C49.9159 137.582 51.3363 137.797 52.6953 137.868C53.3526 137.902 55.3723 137.505 55.3723 137.505L55.8239 137.434" stroke="black" stroke-width="0.155357"/>
<path d="M52.863 138.438L48.916 138.052L48.9209 137.096C49.7447 137.498 51.5706 137.76 52.6981 137.864L52.863 138.438Z" fill="#4E4E4E" stroke="black" stroke-width="0.155357"/>
<path d="M45.2598 138.412L46.0543 137.776C46.1176 137.726 46.1963 137.698 46.2773 137.698H48.1698C48.3443 137.698 48.4932 137.824 48.5219 137.996L48.6507 138.769L48.3997 139.146C48.3335 139.245 48.222 139.304 48.1027 139.304H46.509L45.6075 139.004C45.501 138.968 45.4173 138.885 45.3818 138.778L45.2598 138.412Z" fill="#D9D9D9"/>
<path d="M45.2598 138.412L46.0543 137.776C46.1176 137.726 46.1963 137.698 46.2773 137.698H48.1698C48.3443 137.698 48.4932 137.824 48.5219 137.996L48.6507 138.769M45.2598 138.412L46.509 138.948M45.2598 138.412L45.3818 138.778C45.4173 138.885 45.501 138.968 45.6075 139.004L46.509 139.304M46.509 138.948L48.6507 138.769M46.509 138.948V139.304M48.6507 138.769L48.3997 139.146C48.3335 139.245 48.222 139.304 48.1027 139.304H46.509" stroke="black" stroke-width="0.155357"/>
<path d="M46.509 138.95L45.2598 138.415L45.4382 138.95L46.509 139.307V138.95Z" fill="#272727"/>
<path d="M137.35 138.77L138.144 138.134C138.207 138.083 138.286 138.056 138.367 138.056H140.26C140.434 138.056 140.583 138.182 140.612 138.354L140.741 139.126L140.49 139.503C140.423 139.602 140.312 139.662 140.193 139.662H138.599L137.697 139.361C137.591 139.326 137.507 139.242 137.472 139.136L137.35 138.77Z" fill="#D9D9D9"/>
<path d="M137.35 138.77L138.144 138.134C138.207 138.083 138.286 138.056 138.367 138.056H140.26C140.434 138.056 140.583 138.182 140.612 138.354L140.741 139.126M137.35 138.77L138.599 139.305M137.35 138.77L137.472 139.136C137.507 139.242 137.591 139.326 137.697 139.361L138.599 139.662M138.599 139.305L140.741 139.126M138.599 139.305V139.662M140.741 139.126L140.49 139.503C140.423 139.602 140.312 139.662 140.193 139.662H138.599" stroke="black" stroke-width="0.155357"/>
<path d="M138.599 139.308L137.35 138.772L137.528 139.308L138.599 139.665V139.308Z" fill="#272727"/>
<path d="M41.6924 133.24V132.348L41.8709 131.991L43.2986 131.277L44.7263 131.813L46.511 132.705L45.9756 133.24H43.1201H41.6924Z" fill="#D9D9D9"/>
<path d="M41.6924 132.348V133.24H43.1201M41.6924 132.348L43.1201 133.24M41.6924 132.348L41.8709 131.991L43.2986 131.277L44.7263 131.813M44.7263 131.813L46.511 132.705M44.7263 131.813L45.4402 132.527M46.511 132.705L45.9756 133.24H43.1201M46.511 132.705L45.4402 132.527M43.1201 133.24L45.4402 132.527" stroke="black" stroke-width="0.155357"/>
<path d="M44.0115 133.243L45.3904 132.544L43.1191 133.243H44.0115Z" fill="#4E4E4E" stroke="black" stroke-width="0.155357"/>
<path d="M41.6924 132.349V133.242H43.1201L41.8709 132.171L41.6924 132.349Z" fill="#4E4E4E" stroke="black" stroke-width="0.155357"/>
<path d="M78.6339 128.774C74.886 128.239 71.4951 129.667 69.3535 129.667C71.1977 129.786 74.779 129.06 78.6339 128.774Z" fill="#4E4E4E" stroke="black" stroke-width="0.155357"/>
<path d="M65.5107 112.097C65.4959 111.824 65.7818 111.637 66.0267 111.759L67.4348 112.463C67.5437 112.517 67.6174 112.624 67.6301 112.745L68.1427 117.614L68.9422 122.145L66.0106 121.345L65.6792 115.216L65.5107 112.097Z" fill="#ADB2A6"/>
<path d="M68.1427 117.614L67.6301 112.745C67.6174 112.624 67.5437 112.517 67.4348 112.463L66.0267 111.759C65.7818 111.637 65.4959 111.824 65.5107 112.097L65.6792 115.216M68.1427 117.614L68.9422 122.145L66.0106 121.345L65.6792 115.216M68.1427 117.614L65.6792 115.216" stroke="black" stroke-width="0.155357"/>
<path d="M39.0955 122.677C39.4509 122.321 40.2682 121.131 40.6946 119.212C40.7944 118.763 40.9837 118.315 41.2276 117.883C42.0262 116.469 43.4107 115.226 44.1593 114.681L50.2891 113.615L62.2821 116.014C61.3049 116.636 60.8541 117.973 62.2821 118.412C65.7468 119.479 67.6124 120.811 68.4119 121.078C69.2114 121.344 71.077 120.811 71.077 121.877C71.077 122.73 74.8082 124.009 76.6738 124.542V125.608H75.0747L61.2161 126.674L38.5625 126.408L39.0955 122.677Z" fill="#ADB2A6"/>
<path d="M62.2821 118.412C65.7468 119.479 67.6124 120.811 68.4119 121.078C69.2114 121.344 71.077 120.811 71.077 121.877C71.077 122.73 74.8082 124.009 76.6738 124.542V125.608H75.0747L61.2161 126.674L38.5625 126.408L39.0955 122.677C39.4509 122.321 40.2682 121.131 40.6946 119.212C40.7944 118.763 40.9837 118.315 41.2276 117.883M62.2821 118.412C60.8541 117.973 61.3049 116.636 62.2821 116.014L50.2891 113.615L44.1593 114.681C43.4107 115.226 42.0262 116.469 41.2276 117.883M62.2821 118.412C58.7286 117.613 51.3018 116.067 50.0225 116.28C48.7433 116.494 43.6262 117.438 41.2276 117.883" stroke="black" stroke-width="0.155357"/>
<path d="M62.2811 116.014C61.3038 116.636 60.853 117.973 62.2811 118.412C58.7276 117.613 51.3007 116.067 50.0215 116.28C48.7422 116.494 43.6252 117.438 41.2266 117.883C42.0252 116.469 43.4097 115.226 44.1582 114.681L50.288 113.615L62.2811 116.014Z" fill="#4E4E4E" stroke="black" stroke-width="0.155357"/>
<path d="M39.3614 120.542L40.694 119.742L40.161 126.405H36.6963L36.9628 124.806L37.4958 123.207L39.3614 120.542Z" fill="#ADB2A6" stroke="black" stroke-width="0.155357"/>
<path d="M43.0926 107.752L43.3591 95.4927C44.2475 95.0485 46.1841 94.1602 46.8238 94.1602C47.4634 94.1602 48.5117 94.5155 48.9559 94.6932C49.1691 94.2668 49.7554 94.1602 50.0219 94.1602C51.621 95.0485 55.2456 97.0918 56.9512 98.1578C58.6569 99.2239 59.0833 100.379 59.0833 100.823C58.5503 102.156 59.077 104.284 59.6164 104.554C61.2155 105.354 61.7485 110.595 62.548 112.816V116.281C62.1038 116.37 61.0555 116.494 60.4159 116.281C60.0896 116.172 58.2694 115.874 56.1517 115.548C54.1187 115.236 51.8114 114.899 50.2884 114.682L44.1586 115.748C44.0698 115.037 43.7855 113.189 43.3591 111.483L42.5596 108.285L43.0926 107.752Z" fill="#ADB2A6"/>
<path d="M43.0926 107.752L43.3591 95.4927C44.2475 95.0485 46.1841 94.1602 46.8238 94.1602M43.0926 107.752L42.5596 108.285C42.6484 108.641 42.9327 109.778 43.3591 111.483C43.7855 113.189 44.0698 115.037 44.1586 115.748L50.2884 114.682C51.8114 114.899 54.1187 115.236 56.1517 115.548M43.0926 107.752C45.0115 107.752 46.3796 107.042 46.8238 106.686M59.6164 104.554C61.2155 105.354 61.7485 110.595 62.548 112.816V116.281C62.1038 116.37 61.0555 116.494 60.4159 116.281C60.0896 116.172 58.2694 115.874 56.1517 115.548M59.6164 104.554C59.077 104.284 58.5503 102.156 59.0833 100.823C59.0833 100.379 58.6569 99.2239 56.9512 98.1578C55.2456 97.0918 51.621 95.0485 50.0219 94.1602C49.7554 94.1602 49.1691 94.2668 48.9559 94.6932M59.6164 104.554L55.0857 102.422M48.9559 94.6932C48.5117 94.5155 47.4634 94.1602 46.8238 94.1602M48.9559 94.6932C48.9559 94.6932 49.766 96.5864 50.5549 97.6248C51.2673 98.5624 52.687 99.7569 52.687 99.7569M46.8238 94.1602V106.686M46.8238 106.686C48.867 107.486 53.0069 109.458 53.2201 110.95C53.4866 112.816 56.4182 114.816 56.1517 115.548" stroke="black" stroke-width="0.155357"/>
<path fill-rule="evenodd" clip-rule="evenodd" d="M143.736 43.5233L144.573 44.4998C144.797 44.7605 144.978 45.0481 145.116 45.3525H149.214C151.08 45.3525 152.631 46.7898 152.773 48.6503L153.208 54.3527V54.8881C153.344 55.9061 153.63 56.859 153.95 57.9996C154.01 58.2116 154.071 58.424 154.135 58.6359C155.222 62.2812 156.804 65.8176 156.804 65.8176L157.256 66.31L163.765 73.416L164.122 73.8057L172.867 79.3382C177.516 81.5081 181.428 86.4015 186.211 88.1387L187.898 83.3098C188.462 81.6948 188.75 80.5875 188.75 80.5875V77.9437C188.75 76.1064 189.123 74.2882 189.847 72.5994L191.727 68.2137C192.213 67.0799 193.201 66.2383 194.398 65.9391L195.135 65.7548C196.143 65.5028 197.206 65.8455 197.877 66.6385C198.424 67.2847 198.64 68.1481 198.461 68.9754L197.571 73.0891C197.402 73.8719 197.317 74.6705 197.317 75.4714V84.2609L195.291 92.3632C195.275 92.4912 195.253 92.6199 195.223 92.7489L191.97 106.672C191.474 108.799 189.812 110.382 188.272 111.931C187.292 112.916 186.721 114.084 186.4 115.389C186.246 116.013 186.149 116.669 186.092 117.352C185.882 119.864 186.211 122.739 186.211 125.74H170.547H164.122H160.683V112.818C159.565 112.818 158.156 110.162 156.626 108.785C151.107 103.819 146.572 100.266 142.17 97.1126L139.654 95.656C139.082 95.3248 138.613 94.8413 138.3 94.2592L137.885 93.4895C137.825 93.3782 137.772 93.2641 137.724 93.1475L137.708 92.9018L135.388 89.4366L135.024 87.5719C134.674 85.7829 134.029 84.0645 133.115 82.4873L130.213 77.4792L125.929 67.6634C124.876 65.7914 124.323 63.6796 124.323 61.5317V52.4811C124.323 51.4232 125.001 50.4844 126.005 50.1518L126.507 49.9858C127.248 49.7403 128.064 49.9304 128.621 50.4782C130.21 52.0427 131.105 54.1797 131.105 56.4099V57.9996C131.105 60.6125 131.842 63.165 133.221 65.3679C133.097 63.7076 132.59 56.329 133.247 54.7091C133.732 53.5123 134.328 52.6935 134.945 51.8473C135.27 51.401 135.601 50.947 135.924 50.4259C136.996 48.6951 138.045 46.1519 138.686 44.4743C139.086 43.4256 140.021 42.662 141.134 42.5205C142.115 42.3959 143.093 42.7728 143.736 43.5233Z" fill="#F64E4E"/>
<path d="M156.804 65.8176H154.18C153.046 65.8176 152.001 66.4325 151.45 67.4239V67.4239V67.4239C152.248 66.6266 153.339 66.1936 154.466 66.2271L157.256 66.31M156.804 65.8176L157.256 66.31M156.804 65.8176C156.804 65.8176 155.222 62.2812 154.135 58.6359M164.122 73.8057L172.867 79.3382C177.516 81.5081 181.428 86.4015 186.211 88.1387L187.898 83.3098C188.462 81.6948 188.75 80.5875 188.75 80.5875V77.9437C188.75 76.1064 189.123 74.2882 189.847 72.5994L191.727 68.2137C192.213 67.0799 193.201 66.2384 194.398 65.9391L195.135 65.7548C196.143 65.5028 197.206 65.8455 197.877 66.6385C198.424 67.2847 198.64 68.1481 198.461 68.9754L197.571 73.0891C197.402 73.8719 197.317 74.6705 197.317 75.4714V84.2609L195.291 92.3632C195.275 92.4912 195.253 92.6199 195.223 92.7489L191.97 106.672C191.474 108.799 189.812 110.382 188.272 111.931C187.292 112.916 186.721 114.084 186.4 115.389M164.122 73.8057L160.683 72.5994C158.557 72.0948 153.842 71.237 151.986 71.8426L151.629 70.5933C153.773 70.6528 158.585 70.9859 160.683 71.8426C162.78 72.6992 163.611 73.2485 163.765 73.416M164.122 73.8057L163.765 73.416M156.626 108.785C158.156 110.162 159.565 112.818 160.683 112.818V125.74H164.122M156.626 108.785C151.107 103.819 146.572 100.266 142.17 97.1126L139.654 95.656C139.082 95.3248 138.613 94.8413 138.3 94.2592L137.885 93.4895M156.626 108.785L155.198 104.188M137.885 93.4895C137.825 93.3782 137.772 93.2641 137.724 93.1475L137.708 92.9018M137.885 93.4895C138.455 93.9597 139.302 94.1986 139.654 94.2592C140.28 94.3721 144.554 93.6157 144.554 93.6157C144.554 93.6157 144.549 93.4372 144.547 93.1844M137.708 92.9018L135.388 89.4366L135.024 87.5719C134.674 85.7829 134.029 84.0645 133.115 82.4873L130.213 77.4792L125.929 67.6634C124.876 65.7914 124.323 63.6796 124.323 61.5317V52.4811C124.323 51.4232 125.001 50.4844 126.005 50.1518L126.507 49.9858C127.248 49.7403 128.064 49.9304 128.621 50.4782C130.21 52.0427 131.105 54.1797 131.105 56.4099V57.9996C131.105 60.6125 131.842 63.165 133.221 65.3679C133.097 63.7076 132.59 56.329 133.247 54.7091C133.732 53.5123 134.328 52.6935 134.945 51.8473C135.27 51.401 135.601 50.947 135.924 50.4259C136.996 48.6951 138.045 46.1519 138.686 44.4743C139.086 43.4256 140.021 42.662 141.134 42.5205C142.115 42.3959 143.093 42.7728 143.736 43.5233L144.573 44.4998C144.797 44.7605 144.978 45.0481 145.116 45.3525H149.214C151.08 45.3525 152.631 46.7898 152.773 48.6503L153.208 54.3527V54.8881C153.344 55.9061 153.63 56.859 153.95 57.9996M137.708 92.9018C137.589 91.4988 137.209 88.4044 136.638 86.12M137.708 92.9018V92.9018C138.861 93.5937 140.221 93.8591 141.549 93.6519L142.02 93.5785L144.547 93.1844M144.573 85.4061C145.143 87.3953 144.548 90.7849 144.547 93.1844M155.198 104.188C156.391 105.248 157.551 106.322 158.589 107.358L164.122 112.818V125.74M155.198 104.188C150.913 100.381 146.195 96.7486 145.116 95.656C144.676 95.2111 144.547 94.3059 144.547 93.1844M164.122 125.74H170.547H186.211C186.211 122.739 185.882 119.864 186.092 117.352M186.4 115.389C185.934 116.162 182.682 117.808 178.042 117.709C179.72 117.887 185.679 117.923 186.092 117.352M186.4 115.389C186.246 116.013 186.149 116.669 186.092 117.352M163.765 73.416L157.256 66.31M153.95 57.9996H151.476C151.125 57.9996 150.796 58.1722 150.596 58.4613L149.487 60.0636C149.785 59.6472 150.487 58.7787 150.915 58.6359C151.343 58.4931 153.24 58.5764 154.135 58.6359M153.95 57.9996C154.01 58.2116 154.071 58.424 154.135 58.6359" stroke="black" stroke-width="0.155357"/>
<path d="M186.784 117.715C188.39 114.86 193.923 115.752 193.923 115.752C193.923 115.752 203.679 118.37 205.523 117.715L207.722 119.767L209.92 121.819L213.554 125.211L214.447 126.305L217.57 130.137H209.628L162.334 131.992L164.476 123.712C166.707 123.604 170.101 123.082 173.577 122.352C179.647 121.077 185.967 119.168 186.784 117.715Z" fill="#9D86E6"/>
<path d="M193.923 115.752C193.923 115.752 188.39 114.86 186.784 117.715C185.967 119.168 179.647 121.077 173.577 122.352M193.923 115.752C193.923 115.752 203.679 118.37 205.523 117.715L207.722 119.767M193.923 115.752C195.232 117.952 198.456 122.352 200.883 122.352C203.917 122.352 203.995 119.142 205.523 119.142L207.722 119.767M173.577 122.352C170.101 123.082 166.707 123.604 164.476 123.712L162.334 131.992L209.628 130.137H229.438H217.57L214.447 126.305M173.577 122.352C173.637 123.305 174.898 125.211 179.467 125.211C182.257 125.211 184.169 124.9 185.356 124.563M185.356 124.563C186.113 124.348 186.576 124.123 186.784 123.961C186.784 123.961 190.779 125.591 191.96 125.745C196.064 126.281 194.28 125.567 196.064 126.281C197.191 126.731 193.268 126.394 189.818 125.745C187.803 125.367 185.949 124.604 185.356 124.563ZM209.92 121.819L213.554 125.211L214.447 126.305M209.92 121.819H207.762C207.107 121.819 206.457 121.932 205.841 122.152L201.775 123.604M209.92 121.819L208.667 121.5C207.223 121.132 205.694 121.343 204.404 122.088L201.775 123.604M209.92 121.819L207.722 119.767M201.775 123.604L203.203 125.211M203.203 125.211C204.036 125.092 205.809 124.925 206.237 125.211C206.472 125.367 206.895 125.672 207.308 125.976M203.203 125.211C204.274 125.245 206.594 125.446 207.308 125.976M214.447 126.305L208.2 126.638C207.985 126.476 207.65 126.227 207.308 125.976" stroke="black" stroke-width="0.155357"/>
<path d="M151.472 58.0078H153.947C154.006 58.2198 154.068 58.4321 154.131 58.6441C153.236 58.5846 151.339 58.5013 150.911 58.6441C150.483 58.7869 149.781 59.6554 149.483 60.0718L150.592 58.4695C150.792 58.1803 151.121 58.0078 151.472 58.0078Z" fill="black" stroke="black" stroke-width="0.155357"/>
<path d="M154.177 65.8203H156.697C156.763 65.8203 156.827 65.8483 156.872 65.8975C157.014 66.0526 156.9 66.3022 156.69 66.296L153.399 66.1981C152.951 66.1848 152.517 66.3571 152.199 66.6744L151.447 67.4265C151.998 66.4352 153.043 65.8203 154.177 65.8203Z" fill="black" stroke="black" stroke-width="0.155357"/>
<path d="M160.684 72.6038L164.123 73.8101L163.766 73.4204C163.612 73.2529 162.781 72.7036 160.684 71.8469C158.586 70.9903 153.774 70.6571 151.63 70.5977L151.987 71.8469C153.843 71.2414 158.558 72.0992 160.684 72.6038Z" fill="black" stroke="black" stroke-width="0.155357"/>
<path d="M178.04 117.711C182.68 117.81 185.932 116.164 186.397 115.391C186.244 116.015 186.147 116.671 186.09 117.354C185.677 117.925 179.718 117.889 178.04 117.711Z" fill="black" stroke="black" stroke-width="0.155357"/>
<path d="M137.883 93.491C137.823 93.3797 137.769 93.2656 137.722 93.149L137.706 92.9033C138.861 93.596 140.218 93.8702 141.551 93.6798L144.488 93.2603V93.6172C144.488 93.6172 140.258 94.3701 139.652 94.2607C139.3 94.2001 138.453 93.9612 137.883 93.491Z" fill="black"/>
<path d="M138.298 94.2607L137.883 93.491M137.883 93.491C137.823 93.3797 137.769 93.2656 137.722 93.149L137.706 92.9033V92.9033C138.861 93.596 140.218 93.8702 141.551 93.6798L144.488 93.2603C144.488 93.4387 144.488 93.6172 144.488 93.6172C144.488 93.6172 140.258 94.3701 139.652 94.2607C139.3 94.2001 138.453 93.9612 137.883 93.491Z" stroke="black" stroke-width="0.155357"/>
<path d="M160.682 112.825C159.565 112.825 158.156 110.169 156.626 108.792L155.912 106.494L155.198 104.195C156.391 105.255 157.55 106.328 158.589 107.365C160.902 109.673 162.593 111.54 164.06 112.825H160.682Z" fill="black"/>
<path d="M155.912 106.494L155.198 104.195C156.391 105.255 157.55 106.328 158.589 107.365C160.902 109.673 162.593 111.54 164.06 112.825H160.682C159.565 112.825 158.156 110.169 156.626 108.792L155.912 106.494ZM155.912 106.494L149.308 100.761L146.274 100.226" stroke="black" stroke-width="0.155357"/>
<path d="M144.667 88.8001C147.665 90.5134 150.2 90.9417 152.163 89.3355C150.984 89.8085 149.022 90.2635 147.88 89.6924C146.737 89.1213 145.381 88.2647 144.846 87.9077C143.358 88.1457 141.098 88.6216 139.492 88.4432C138.587 88.3427 136.993 87.3723 136.814 86.6585C136.22 86.48 134.816 85.4092 133.959 83.9814L134.673 86.1231C134.958 86.9797 136.279 87.7293 136.814 87.5508C137.35 88.4432 138.207 89.0499 139.492 89.3355C140.776 89.621 143.477 88.9786 144.667 88.8001Z" fill="black" stroke="black" stroke-width="0.155357"/>
<path d="M155.907 85.0506L152.517 74.035C152.517 74.035 152.869 73.9863 153.409 73.9381C153.409 75.1852 155.075 81.866 155.907 85.0506Z" fill="black"/>
<path d="M173.933 88.263L167.151 81.9958V79.8758L163.939 78.0587C163.939 78.0587 160.402 74.6828 157.514 74.0345C156.252 73.7514 154.469 73.8436 153.409 73.9381M153.409 73.9381C152.869 73.9863 152.517 74.035 152.517 74.035L155.907 85.0506C155.075 81.866 153.409 75.1852 153.409 73.9381Z" stroke="black" stroke-width="0.155357"/>
<path d="M149.479 21.0179C149.479 19.9998 149.072 20.1688 148.665 18.8971C147.851 17.6256 147.851 19.7405 147.851 22.2826V22.2899C147.851 24.8353 149.072 24.9364 149.072 23.9878C149.072 23.1391 149.479 22.2906 149.479 21.0179Z" fill="#EDFFD0" stroke="black" stroke-width="0.157052"/>
<path d="M154.131 16.8069V13.1267C153.045 11.7884 152.503 13.7958 152.503 15.8032C152.503 17.8106 153.045 17.4761 153.588 18.1452C154.131 18.8144 154.131 17.4761 154.131 16.8069Z" fill="#EDFFD0" stroke="black" stroke-width="0.157052"/>
<path d="M145.06 8.3517C145.06 6.99494 144.724 6.2035 144.556 5.97737C144.556 5.86431 144.354 5.77386 143.548 6.31656C142.54 6.99494 143.044 9.70846 143.548 10.0476C144.052 10.3868 145.06 10.0476 145.06 8.3517Z" fill="#EDFFD0" stroke="black" stroke-width="0.157052"/>
<path d="M155.096 50.0015C155.096 48.9894 154.759 48.7363 154.591 48.7363C154.254 48.7363 153.581 49.0737 153.581 50.4233C153.581 52.1102 154.086 52.1102 154.591 52.5319C155.096 52.9537 155.096 51.2667 155.096 50.0015Z" fill="#EDFFD0" stroke="black" stroke-width="0.157052"/>
<path d="M153.581 64.633C153.177 66.6574 149.757 66.9655 148.747 66.5437C148.242 69.7772 147.536 76.4128 148.747 77.0876C150.261 77.9311 154.302 77.9311 154.807 77.0876C155.312 76.2441 155.816 54.7352 154.807 53.8917C153.999 53.2169 153.335 55.4338 152.969 56.685C152.434 58.5169 153.985 62.6087 153.581 64.633Z" fill="#EDFFD0" stroke="black" stroke-width="0.157052"/>
<path d="M151.101 65.2443C151.101 65.2443 151.171 72.4661 152.359 73.8037C154.193 75.8684 154.805 75.8427 154.805 77.472C154.805 80.1524 152.5 81.7605 152.5 81.7605C150.153 82.3051 151.101 82.1828 149.236 81.7605C147.744 81.4226 144.263 81.3378 142.708 81.3376C142.708 77.3936 142.615 68.9986 142.242 66.9703C141.776 64.4349 143.384 38.1027 143.384 36.4124C143.384 34.7221 142.383 30.4286 142.849 28.7383C143.315 27.048 143.781 24.2006 142.849 21.2426C141.916 18.2846 144.107 12.8821 144.573 13.3047C144.947 13.6427 144.729 14.5724 144.573 14.9949L145.04 33.5879C144.573 37.1093 144.2 44.0676 146.439 43.7296C149.236 43.307 148.079 32.2294 149.702 33.1654C151.62 34.2712 149.236 40.7889 151.101 39.5661C152.154 38.8761 150.635 30.6297 152.966 31.0523C154.831 31.3903 150.525 51.7938 151.101 65.2443Z" fill="#EDFFD0" stroke="black" stroke-width="0.157052"/>
<path d="M145.403 54.0451C146.21 53.7077 146.076 52.2176 145.907 51.5147C145.739 50.9524 145.302 49.9121 144.898 50.2495C144.394 50.6712 144.393 54.4668 145.403 54.0451Z" stroke="black" stroke-width="0.157052"/>
<path d="M135.796 42.1676C136.2 41.4928 135.627 40.1995 135.291 39.6372C133.776 38.7937 134.281 42.1676 134.786 43.011C135.291 43.8545 135.291 43.011 135.796 42.1676Z" fill="#EDFFD0" stroke="black" stroke-width="0.157052"/>
<path d="M188.75 77.9491V80.8754C189.44 81.152 190.818 81.6293 192.068 81.8709C192.935 82.0382 193.817 81.8778 194.654 81.5988L195.532 81.3062C194.142 82.1167 192.518 82.495 190.936 82.2047C189.805 81.9972 188.773 81.7083 188.599 81.3062L183.574 95.6882C183.931 96.7344 185.18 99.0557 187.322 99.9715C188.988 100.888 192.283 103.293 192.141 105.578C191.962 106.47 191.641 107.969 191.784 106.827C191.962 105.399 189.464 101.652 186.787 100.581C184.645 99.7241 183.753 96.9621 183.574 95.6882L188.599 81.3062L188.75 80.8754V77.9491C188.75 76.1118 189.123 74.2936 189.847 72.6048L191.726 68.2191C192.212 67.0853 193.2 66.2438 194.397 65.9446L195.135 65.7602C196.143 65.5082 197.206 65.8509 197.877 66.6439C198.424 67.2901 198.639 68.1535 198.46 68.9808L197.571 73.0945C197.402 73.8773 197.316 74.6759 197.316 75.4768V84.2663L196.781 86.4079L196.067 85.7679L196.245 84.6971L197.316 84.2663V75.4768C197.316 74.6759 197.402 73.8773 197.571 73.0945L198.46 68.9808C198.639 68.1535 198.424 67.2901 197.877 66.6439C197.206 65.8509 196.143 65.5082 195.135 65.7602L194.397 65.9446C193.2 66.2438 192.212 67.0853 191.726 68.2191L189.847 72.6048C189.123 74.2936 188.75 76.1118 188.75 77.9491Z" fill="black"/>
<path d="M188.75 80.8754V77.9491C188.75 76.1118 189.123 74.2936 189.847 72.6048L191.726 68.2191C192.212 67.0853 193.2 66.2438 194.397 65.9446L195.135 65.7602C196.143 65.5082 197.206 65.8509 197.877 66.6439V66.6439C198.424 67.2901 198.639 68.1535 198.46 68.9808L197.571 73.0945C197.402 73.8773 197.316 74.6759 197.316 75.4768V84.2663M188.75 80.8754C189.44 81.152 190.818 81.6293 192.068 81.8709C192.935 82.0382 193.817 81.8778 194.654 81.5988L195.532 81.3062V81.3062C194.142 82.1167 192.518 82.495 190.936 82.2047C189.805 81.9972 188.773 81.7083 188.599 81.3062M188.75 80.8754L188.599 81.3062M197.316 84.2663L196.245 84.6971L196.067 85.7679L196.781 86.4079M197.316 84.2663L196.781 86.4079M193.39 99.9715L196.781 86.4079M183.574 95.6882C183.931 96.7344 185.18 99.0557 187.322 99.9715C188.988 100.888 192.283 103.293 192.141 105.578C191.962 106.47 191.641 107.969 191.784 106.827C191.962 105.399 189.464 101.652 186.787 100.581C184.645 99.7241 183.753 96.9621 183.574 95.6882ZM183.574 95.6882L188.599 81.3062" stroke="black" stroke-width="0.155357"/>
<path d="M124.144 63.969C124.154 59.8143 124.237 54.9892 124.285 52.4624C124.306 51.4127 124.987 50.4935 125.983 50.1633L126.429 50.0156C127.217 49.7549 128.084 49.9568 128.675 50.5386C130.237 52.0769 131.173 54.1399 131.299 56.329L131.638 62.2105L135.208 68.0999L141.632 83.909C141.632 83.909 140.026 86.0773 138.063 86.6606C136.261 87.196 135.029 85.5898 135.029 85.5898L134.494 84.8745L130.21 77.4842L129.776 76.4879L125.927 67.6684L124.664 65.4229C124.664 65.4229 124.142 64.5236 124.144 63.969Z" fill="#F64E4E"/>
<path d="M130.21 77.4842L134.494 84.8745L135.029 85.5898C135.029 85.5898 136.261 87.196 138.063 86.6606C140.026 86.0773 141.632 83.909 141.632 83.909L135.208 68.0999M130.21 77.4842L132.19 76.0693C133.057 75.4493 133.507 74.3984 133.356 73.343C133.211 72.3294 133.029 71.0549 132.888 70.0631M130.21 77.4842L129.776 76.4879M135.208 68.0999C135.208 68.0999 133.032 64.5105 131.638 62.2105M135.208 68.0999C135.208 68.0999 132.735 68.9923 132.888 70.0631M131.638 62.2105C131.536 60.4363 131.405 58.1753 131.299 56.329C131.173 54.1399 130.237 52.0769 128.675 50.5386V50.5386C128.084 49.9568 127.217 49.7549 126.429 50.0156L125.983 50.1633C124.987 50.4935 124.306 51.4127 124.285 52.4624C124.237 54.9892 124.154 59.8143 124.144 63.969C124.142 64.5236 124.664 65.4229 124.664 65.4229V65.4229M131.638 62.2105C129.826 63.2268 126.998 64.8129 126.998 64.8129M131.638 62.2105C130.735 62.8356 129.58 63.6354 128.648 64.2806C127.574 65.0245 126.298 65.4229 124.991 65.4229H124.664M132.888 70.0631C132.888 70.9352 132.888 72.052 132.888 72.95C132.888 73.9303 132.385 74.842 131.556 75.365L129.776 76.4879M129.776 76.4879L125.927 67.6684L124.664 65.4229" stroke="black" stroke-width="0.155357"/>
<path d="M128.922 63.7622L131.105 62.5674L128.916 64.091C127.669 64.959 126.186 65.4243 124.666 65.4243L124.323 64.8143H124.809C126.247 64.8143 127.661 64.4525 128.922 63.7622Z" fill="black" stroke="black" stroke-width="0.155357"/>
<path d="M132.19 76.0738L130.211 77.4887L129.776 76.4925L131.556 75.3696C132.385 74.8466 132.888 73.9349 132.888 72.9546V70.0676L133.357 73.3476C133.507 74.403 133.058 75.4539 132.19 76.0738Z" fill="black"/>
<path d="M135.208 68.1045C135.208 68.1045 132.735 68.9968 132.888 70.0676M132.888 70.0676C133.03 71.0595 133.212 72.334 133.357 73.3476C133.507 74.403 133.058 75.4539 132.19 76.0738L130.211 77.4887L129.776 76.4925L131.556 75.3696C132.385 74.8466 132.888 73.9349 132.888 72.9546C132.888 72.0565 132.888 70.9397 132.888 70.0676Z" stroke="black" stroke-width="0.155357"/>
<path d="M143.734 43.5334L144.571 44.5099C145.403 45.4804 145.652 46.8217 145.225 48.0264L141.989 57.1439L142.036 57.9317L142.703 69.2798L142.811 70.0675L143.732 76.8264C143.76 77.03 143.805 77.2308 143.868 77.4266L146.317 85.1222C146.609 86.04 146.271 87.0412 145.482 87.5936C145.181 87.8041 144.832 87.9361 144.468 87.9775L140.327 88.448C138.528 88.6525 136.86 87.4767 136.448 85.713L136.278 84.985L133.244 69.2798V65.8545C133.244 65.7585 133.241 65.6675 133.234 65.5718C133.145 64.4185 132.557 56.4146 133.244 54.7193C133.985 52.8912 134.986 51.9451 135.921 50.436C136.994 48.7052 138.043 46.162 138.683 44.4844C139.084 43.4357 140.019 42.6722 141.132 42.5307C142.113 42.4061 143.09 42.7829 143.734 43.5334Z" fill="#F64E4E"/>
<path d="M141.989 57.1439L145.225 48.0264C145.652 46.8217 145.403 45.4804 144.571 44.5099L143.734 43.5334C143.09 42.7829 142.113 42.4061 141.132 42.5307V42.5307C140.019 42.6722 139.084 43.4357 138.683 44.4844C138.043 46.162 136.994 48.7052 135.921 50.436C134.986 51.9451 133.985 52.8912 133.244 54.7193M141.989 57.1439H139.999C139.545 57.1439 139.096 57.0574 138.675 56.8891L136.278 55.9316M141.989 57.1439L142.036 57.9317M142.703 69.2798L140.725 70.4684C139.828 71.0067 138.741 71.1252 137.75 70.7925L136.278 70.2983M142.703 69.2798L142.811 70.0675M142.703 69.2798L142.036 57.9317M133.244 69.2798L136.278 84.985L136.448 85.713C136.86 87.4768 138.528 88.6525 140.327 88.448L144.468 87.9775C144.832 87.9361 145.181 87.8041 145.482 87.5936V87.5936C146.271 87.0412 146.609 86.04 146.317 85.1222L143.868 77.4266C143.805 77.2308 143.76 77.03 143.732 76.8264L142.811 70.0675M133.244 69.2798V65.8545C133.244 65.7585 133.241 65.6675 133.234 65.5718C133.145 64.4185 132.557 56.4146 133.244 54.7193M133.244 69.2798L136.278 70.2983M133.244 54.7193L136.278 55.9316M142.811 70.0675L140.938 71.0231C139.917 71.5438 138.708 71.5428 137.688 71.0205L136.278 70.2983M142.036 57.9317H140.383C139.685 57.9317 139.002 57.7268 138.418 57.3424L136.278 55.9316" stroke="black" stroke-width="0.155357"/>
<path d="M141.619 57.1356H139.767C139.467 57.1356 139.17 57.0785 138.892 56.9673L136.279 55.9233L138.812 57.5929C139.139 57.8085 139.522 57.9234 139.913 57.9234H141.619C141.845 57.9234 142.025 57.7326 142.012 57.5064C142 57.2982 141.827 57.1356 141.619 57.1356Z" fill="black"/>
<path d="M133.245 54.7109L136.279 55.9233M136.279 55.9233L138.892 56.9673C139.17 57.0785 139.467 57.1356 139.767 57.1356H141.619C141.827 57.1356 142 57.2982 142.012 57.5064V57.5064C142.025 57.7326 141.845 57.9234 141.619 57.9234H139.913C139.522 57.9234 139.139 57.8085 138.812 57.5929L136.279 55.9233Z" stroke="black" stroke-width="0.155357"/>
<path d="M142.24 69.5485L140.104 70.8315C139.602 71.1329 138.993 71.1993 138.438 71.013L136.279 70.2881L137.85 71.0925C138.769 71.5632 139.858 71.5641 140.778 71.0948L142.586 70.1724C142.721 70.1035 142.798 69.9566 142.777 69.8062C142.742 69.5522 142.459 69.4165 142.24 69.5485Z" fill="black"/>
<path d="M133.245 69.2695L136.279 70.2881M136.279 70.2881L138.438 71.013C138.993 71.1993 139.602 71.1329 140.104 70.8315L142.24 69.5485C142.459 69.4165 142.742 69.5522 142.777 69.8062V69.8062C142.798 69.9566 142.721 70.1035 142.586 70.1724L140.778 71.0948C139.858 71.5641 138.769 71.5632 137.85 71.0925L136.279 70.2881Z" stroke="black" stroke-width="0.155357"/>
<path d="M144.858 45.1855C145.21 44.3417 145.918 43.6977 146.791 43.4282C148.043 43.042 149.401 43.4897 150.177 44.544L150.659 45.198C151.283 46.0455 151.568 47.0956 151.458 48.1423L150.986 52.6194C150.939 53.0704 150.853 53.5165 150.729 53.9527L149.308 58.9565L152.016 72.7502L155.734 84.886C155.734 84.886 155.691 87.7249 152.016 89.4746C148.268 91.2593 144.847 87.9088 144.847 87.9088L142.022 76.498L141.962 75.773L140.627 59.7108L140.564 58.9565L141.697 53.5471C141.913 52.5146 142.226 51.5046 142.632 50.5308L144.858 45.1855Z" fill="#F64E4E"/>
<path d="M140.564 58.9565L141.697 53.5471C141.913 52.5146 142.226 51.5046 142.632 50.5308L144.858 45.1855C145.21 44.3417 145.918 43.6977 146.791 43.4282V43.4282C148.043 43.042 149.401 43.4897 150.177 44.544L150.659 45.198C151.283 46.0455 151.568 47.0956 151.458 48.1423L150.986 52.6194C150.939 53.0704 150.853 53.5165 150.729 53.9527L149.308 58.9565M140.564 58.9565L143.505 59.414C144.767 59.6104 146.054 59.5866 147.309 59.3437L149.308 58.9565M140.564 58.9565L140.627 59.7108M142.022 76.498L144.847 87.9088C144.847 87.9088 148.268 91.2593 152.016 89.4746C155.691 87.7249 155.734 84.886 155.734 84.886M142.022 76.498L142.258 76.5185C145.918 76.8363 149.52 75.4455 152.016 72.7502V72.7502M142.022 76.498L141.962 75.773M155.734 84.886L152.016 72.7502M155.734 84.886C159.481 87.7304 163.586 89.3366 167.155 92.7275M152.016 72.7502L149.308 58.9565M152.016 72.7502V72.7502C149.271 75.135 145.64 76.2376 142.033 75.782L141.962 75.773M149.308 58.9565L148.104 59.4106C146.339 60.0756 144.434 60.2787 142.569 60.0005L140.627 59.7108M167.155 92.7275C168.464 92.9654 171.153 93.6198 171.438 94.3337M167.155 92.7275C167.918 93.4518 168.178 95.0207 168.404 96.1184M140.627 59.7108L141.962 75.773M168.404 96.1184C168.567 96.9057 168.671 97.2773 169.118 97.7246L175.186 103.793L175.186 102.722L168.404 96.1184Z" stroke="black" stroke-width="0.155357"/>
<path d="M175.186 103.786L169.118 97.7185C168.671 97.2712 168.567 96.8997 168.404 96.1123L175.186 102.716L175.186 103.786Z" fill="black" stroke="black" stroke-width="0.155357"/>
<path d="M142.888 59.3174L140.563 58.9557L140.625 59.71L141.65 59.8629C144.117 60.2307 146.637 59.9622 148.97 59.0826L149.307 58.9557L147.919 59.2244C146.26 59.5457 144.558 59.5771 142.888 59.3174Z" fill="black" stroke="black" stroke-width="0.155357"/>
<path d="M144.222 76.6907L142.744 76.5624C142.326 76.526 141.994 76.1932 141.959 75.7744L142.03 75.7834C145.638 76.239 149.269 75.1364 152.014 72.7516L150.673 74.1999C149.022 75.9815 146.642 76.9008 144.222 76.6907Z" fill="black" stroke="black" stroke-width="0.155357"/>
<path d="M167.868 82.5571L170.545 82.2002C173.044 84.5203 176.256 87.3758 178.041 88.6251" stroke="black" stroke-width="0.155357"/>
<path d="M186.783 123.954C186.575 124.116 186.112 124.342 185.355 124.556C185.948 124.597 187.802 125.36 189.817 125.739C193.267 126.387 197.19 126.725 196.064 126.274C194.279 125.56 196.064 126.274 191.959 125.739C190.778 125.585 186.783 123.954 186.783 123.954Z" fill="#6451A2" stroke="black" stroke-width="0.155357"/>
<path d="M206.238 125.207C205.81 124.922 204.037 125.088 203.204 125.207C204.275 125.242 206.595 125.443 207.309 125.972C206.896 125.669 206.472 125.363 206.238 125.207Z" fill="#6451A2" stroke="black" stroke-width="0.155357"/>
<path d="M207.209 121.819H209.924L207.404 121.177C206.773 121.017 206.104 121.109 205.539 121.435L201.779 123.604L206.369 121.965C206.639 121.868 206.923 121.819 207.209 121.819Z" fill="#6451A2" stroke="black" stroke-width="0.155357"/>
<path d="M141.376 119.196L144.304 116.56L156.312 112.167L164.512 111.288H165.977V113.631C166.172 114.9 166.738 117.673 167.441 118.61C168.144 119.547 167.734 124.272 167.441 126.517V127.396V130.618L163.341 131.203L160.705 130.618L156.898 133.253L150.455 134.132C148.795 132.668 145.359 129.739 144.89 129.739C144.422 129.739 143.133 130.325 142.547 130.618L141.961 128.86C141.473 126.81 140.497 122.534 140.497 121.831C140.497 121.129 141.083 119.781 141.376 119.196Z" fill="#D9D9D9"/>
<path d="M141.376 119.196C141.376 119.196 143.161 117.589 144.304 116.56L156.312 112.167L164.512 111.288H165.977M141.376 119.196H148.405M141.376 119.196C141.083 119.781 140.497 121.129 140.497 121.831C140.497 122.534 141.473 126.81 141.961 128.86M148.405 119.196L156.312 113.631M148.405 119.196L149.166 122.812M165.977 111.288V113.631M165.977 111.288C165.782 111.971 165.274 113.397 164.805 113.631C164.337 113.865 159.338 116.936 156.898 118.443M165.977 113.631C166.172 114.9 166.738 117.673 167.441 118.61C168.144 119.547 167.734 124.272 167.441 126.517M165.977 113.631L162.755 115.388M155.433 119.488L156.898 118.443M155.433 119.488C154.709 120.213 153.746 121.156 152.798 122.048M155.433 119.488C154.262 120.894 153.719 123.589 153.594 124.76M149.576 124.76C148.639 125.229 143.719 127.396 141.961 128.86M149.576 124.76L149.268 123.296M149.576 124.76C150.127 124.485 151.446 123.319 152.798 122.048M141.961 128.86L142.547 130.618C143.133 130.325 144.422 129.739 144.89 129.739C145.359 129.739 148.795 132.668 150.455 134.132L156.898 133.253L160.705 130.618L163.341 131.203L167.441 130.618V127.396M167.441 126.517V127.396M167.441 126.517L164.659 127.25M149.268 123.296L147.526 124.467H146.647L145.183 125.346L146.647 123.882H147.526L149.166 122.812M149.268 123.296L149.166 122.812M155.141 130.032L158.655 129.739L161.877 127.982L164.659 127.25M155.141 130.032L158.655 130.325L161.877 128.86L167.441 127.396M155.141 130.032L153.594 124.76M156.898 118.443L157.484 118.61L162.755 115.388M152.798 122.048L153.594 124.76M164.659 127.25C164.22 125.444 163.356 122.216 163.048 120.367C162.755 118.61 162.755 116.045 162.755 115.388" stroke="black" stroke-width="0.155357"/>
<path d="M117.897 135.383L128.249 133.776H151.093L150.557 134.49H128.249L117.897 135.383Z" fill="#4E4E4E" stroke="black" stroke-width="0.155357"/>
<path d="M161.878 127.986L167.442 126.521V127.4L161.878 128.864L158.656 130.329L155.142 130.036L158.656 129.743L161.878 127.986Z" fill="#4E4E4E" stroke="black" stroke-width="0.155357"/>
<path d="M165.979 113.631V111.288C165.784 111.971 165.277 113.397 164.808 113.631C164.339 113.865 159.341 116.936 156.9 118.443L157.486 118.61L165.979 113.631Z" fill="#4E4E4E"/>
<path d="M148.407 119.196L156.315 113.631M157.486 118.61L165.979 113.631V111.288C165.784 111.971 165.277 113.397 164.808 113.631C164.339 113.865 159.341 116.936 156.9 118.443L157.486 118.61ZM157.486 118.61C157.584 120.074 157.896 123.237 158.365 124.174" stroke="black" stroke-width="0.155357"/>
<path d="M147.529 124.465L149.27 123.294L149.168 122.81L147.529 123.879H146.65L145.186 125.344L146.65 124.465H147.529Z" fill="#4E4E4E" stroke="black" stroke-width="0.155357"/>
<path d="M147.011 130.066L151.089 133.836H146.927H139.852V129.218V127.593C140.406 127.224 141.041 127.016 141.578 126.9C142.333 126.736 143.095 127.021 143.639 127.57C144.163 128.099 144.746 128.768 144.846 129.218C145.648 129.218 146.422 129.521 147.011 130.066Z" fill="#D9D9D9"/>
<path d="M144.846 129.218V129.218C145.648 129.218 146.422 129.521 147.011 130.066L151.089 133.836H146.927M144.846 129.218L146.927 133.836M144.846 129.218C144.746 128.768 144.163 128.099 143.639 127.57C143.095 127.021 142.333 126.736 141.578 126.9C141.041 127.016 140.406 127.224 139.852 127.593V129.218M144.846 129.218C144.707 129.37 144.497 130.09 143.181 130.09C141.932 130.09 140.268 129.674 139.852 129.218M144.846 129.218C144.846 129.218 143.849 129.546 143.181 129.635C141.88 129.806 139.852 129.218 139.852 129.218M139.852 129.218V133.836H146.927" stroke="black" stroke-width="0.155357"/>
<path d="M135.777 126.473L138.014 127.087C139.098 127.385 139.85 128.371 139.85 129.495V133.834H134.855V127.175C134.855 126.694 135.313 126.345 135.777 126.473Z" fill="#D9D9D9" stroke="black" stroke-width="0.155357"/>
<path d="M131.01 126.631L132.992 126.247C133.885 126.074 134.739 126.69 134.856 127.592V133.835H128.197V130.041C128.197 128.378 129.377 126.948 131.01 126.631Z" fill="#D9D9D9" stroke="black" stroke-width="0.155357"/>
<path d="M134.024 129.673C130.361 130.339 128.613 129.673 128.197 129.257V130.089C130.195 131.088 132.914 130.228 134.024 129.673Z" fill="#4E4E4E" stroke="black" stroke-width="0.155357"/>
<path d="M143.181 130.092C141.932 130.092 140.268 129.675 139.852 129.22C139.852 129.22 141.88 129.808 143.181 129.636C143.849 129.548 144.846 129.22 144.846 129.22C144.707 129.372 144.497 130.092 143.181 130.092Z" fill="#4E4E4E" stroke="black" stroke-width="0.155357"/>
<path d="M117.769 126.227L113.683 127.789H107.368L111.083 127.398L111.826 127.008L113.175 125.022C113.503 124.539 113.99 124.186 114.551 124.025L116.74 123.396L117.026 123.884L117.326 123.103L120.134 121.933C120.559 121.756 121.049 121.861 121.364 122.196C121.443 122.279 121.508 122.375 121.558 122.479L122.597 124.665L121.568 125.387C120.787 125.934 119.858 126.227 118.905 126.227H117.769Z" fill="#D9D9D9"/>
<path d="M113.683 127.789L117.769 126.227M113.683 127.789L111.826 127.008M113.683 127.789H107.368L111.083 127.398L111.826 127.008M117.769 126.227H118.905C119.858 126.227 120.787 125.934 121.568 125.387L122.597 124.665L121.558 122.479C121.508 122.375 121.443 122.279 121.364 122.196V122.196C121.049 121.861 120.559 121.756 120.134 121.933L117.326 123.103L117.026 123.884M117.769 126.227L117.026 123.884M117.769 126.227C116.395 126.617 113.283 127.32 111.826 127.008M117.026 123.884L116.74 123.396L114.551 124.025C113.99 124.186 113.503 124.539 113.175 125.022L111.826 127.008" stroke="black" stroke-width="0.155357"/>
<path d="M117.768 126.223L113.682 127.785L111.825 127.004C113.282 127.316 116.394 126.613 117.768 126.223Z" fill="black" stroke="black" stroke-width="0.155357"/>
<path d="M126.405 127.791L124.164 125.143C123.577 124.448 122.614 124.201 121.765 124.526L113.226 127.791H126.405Z" fill="#D9D9D9" stroke="black" stroke-width="0.155357"/>
<path d="M170.365 141.2L168.616 142.45L165.866 142.843L133.619 147.449L127.87 146.2L122.621 147.449L119.421 149.449L118.621 149.949L111.122 151.949L119.421 149.449L122.621 147.449L120.621 146.949H115.121L113.872 146.45L110.372 146.949L113.872 146.2L115.121 146.949H120.621L122.621 147.449L127.87 146.2L131.87 144.7H136.369L145.368 143.45H150.868L163.116 141.2H170.365Z" fill="black"/>
<path d="M178.615 140.2L170.365 141.2M170.365 141.2L168.616 142.45L165.866 142.843M170.365 141.2H163.116M127.87 146.2L133.619 147.449L165.866 142.843M127.87 146.2L122.621 147.449M127.87 146.2L131.87 144.7H136.369L145.368 143.45H150.868L163.116 141.2M122.621 147.449L119.421 149.449M122.621 147.449L120.621 146.949H115.121M163.116 141.2L165.866 142.843M111.122 151.949L118.621 149.949L119.421 149.449M111.122 151.949L103.373 152.449L99.873 153.449M111.122 151.949L119.421 149.449M115.121 146.949L113.872 146.2L110.372 146.949L113.872 146.45L115.121 146.949Z" stroke="black" stroke-width="0.155357"/>
<path d="M127.87 146.204L133.619 147.453L165.866 142.847L163.116 141.204L150.868 143.454H145.368L136.369 144.704H131.87L127.87 146.204Z" fill="#674BC2" stroke="black" stroke-width="0.155357"/>
<path d="M103.467 131.004C104.074 131.151 104.151 131.086 105.866 130.66C105.969 130.635 106.051 130.732 106.116 130.91C106.869 130.658 107.375 131.413 107.124 131.665V132.333C107.124 132.39 107.11 132.445 107.089 132.498C106.998 132.735 106.864 133.296 106.864 134.18C106.864 134.619 106.545 134.883 106.116 135.033C105.561 135.228 104.821 135.234 104.348 135.187C103.997 135.187 103.254 135.136 103.09 134.935C102.927 134.734 102.886 134.056 102.886 133.743C102.826 133.052 102.927 132.029 103.032 131.291C103.061 131.085 103.264 130.954 103.467 131.004Z" fill="#B4B4B4"/>
<path d="M106.109 134.432C105.646 134.762 103.493 134.833 103.09 134.431C102.977 134.317 102.914 134.066 102.886 133.743M106.109 134.432C106.613 133.677 106.332 132.457 107.124 131.665M106.109 134.432C106.168 134.274 106.212 134.031 106.244 133.743C106.344 132.814 106.302 131.419 106.116 130.91M106.109 134.432L106.116 135.033M107.124 131.665C107.375 131.413 106.869 130.658 106.116 130.91M107.124 131.665V132.333C107.124 132.39 107.11 132.445 107.089 132.498C106.998 132.735 106.864 133.296 106.864 134.18C106.864 134.619 106.545 134.883 106.116 135.033M106.116 130.91C106.051 130.732 105.969 130.635 105.866 130.66C104.151 131.086 104.074 131.151 103.467 131.004C103.264 130.954 103.061 131.085 103.032 131.291C102.927 132.029 102.826 133.052 102.886 133.743M102.886 133.743C102.886 134.056 102.927 134.734 103.09 134.935C103.254 135.136 103.997 135.187 104.348 135.187C104.821 135.234 105.561 135.228 106.116 135.033" stroke="black" stroke-width="0.155357"/>
<path d="M98.5999 130.942C97.9923 131.089 97.9152 131.025 96.2005 130.599C96.0976 130.573 96.0157 130.67 95.9506 130.848C95.1975 130.597 94.691 131.351 94.9426 131.603V132.271C94.9426 132.328 94.9568 132.384 94.9773 132.437C95.0685 132.674 95.2022 133.234 95.2022 134.119C95.2022 134.558 95.5213 134.821 95.9506 134.972C96.5057 135.166 97.2452 135.172 97.7181 135.125C98.0692 135.125 98.8124 135.075 98.976 134.874C99.1396 134.672 99.1805 133.995 99.1805 133.681C99.2399 132.991 99.1398 131.967 99.0349 131.23C99.0055 131.023 98.8027 130.893 98.5999 130.942Z" fill="#B4B4B4"/>
<path d="M95.957 134.37C96.4209 134.7 98.5735 134.772 98.976 134.369C99.0897 134.255 99.1526 134.005 99.1805 133.681M95.957 134.37C95.4538 133.616 95.7346 132.395 94.9426 131.603M95.957 134.37C95.8987 134.213 95.8539 133.969 95.8229 133.681C95.7227 132.753 95.7644 131.358 95.9506 130.848M95.957 134.37L95.9506 134.972M94.9426 131.603C94.691 131.351 95.1975 130.597 95.9506 130.848M94.9426 131.603V132.271C94.9426 132.328 94.9568 132.384 94.9773 132.437C95.0685 132.674 95.2022 133.234 95.2022 134.119C95.2022 134.558 95.5213 134.821 95.9506 134.972M95.9506 130.848C96.0157 130.67 96.0976 130.573 96.2005 130.599C97.9152 131.025 97.9923 131.089 98.5999 130.942C98.8027 130.893 99.0055 131.023 99.0349 131.23C99.1398 131.967 99.2399 132.991 99.1805 133.681M99.1805 133.681C99.1805 133.995 99.1396 134.672 98.976 134.874C98.8124 135.075 98.0692 135.125 97.7181 135.125C97.2452 135.172 96.5057 135.166 95.9506 134.972" stroke="black" stroke-width="0.155357"/>
<path d="M93.5802 111.482C93.8346 110.162 94.5647 109.506 94.9739 109.307C95.0174 109.286 95.0581 109.26 95.0923 109.225L95.095 109.223C95.2108 109.107 95.2329 108.927 95.1487 108.787L94.0178 106.902C93.8983 106.703 93.6239 106.669 93.4678 106.841C92.8543 107.517 92.0215 108.599 92.0215 109.277C92.0215 110.283 92.5246 110.787 92.5246 111.29C92.5246 111.587 92.8906 111.72 93.2171 111.769C93.3952 111.795 93.5462 111.658 93.5802 111.482Z" stroke="black" stroke-width="0.155357"/>
<path d="M109.887 100.219C109.887 99.7277 109.332 99.092 108.899 98.6915C108.754 98.5576 108.53 98.5828 108.406 98.7367L107.701 99.6181C107.651 99.6814 107.623 99.7601 107.623 99.8411V100.413C107.623 100.451 107.629 100.489 107.641 100.525C107.984 101.546 108.683 103.436 108.881 103.238C109.133 102.986 109.887 100.974 109.887 100.219Z" stroke="black" stroke-width="0.155357"/>
<path d="M99.7363 120.061C99.6487 120.344 99.5024 120.952 99.5024 121.516C99.5024 122.27 99.754 124.873 99.0459 128.06C98.8782 128.814 98.6434 130.374 99.0459 130.575C99.5491 130.827 97.788 131.833 97.2848 131.582C97.0408 131.46 96.6193 131.219 96.2785 130.918C95.9166 130.598 95.6458 130.209 95.7754 129.821C96.0269 129.066 96.2785 128.563 96.2785 127.556C96.2785 126.83 95.6239 124.677 95.5425 122.53C95.511 121.701 95.5651 120.914 95.7753 120.283C96.2878 118.746 96.1855 115.995 96.0916 114.891C96.0729 114.671 96.2489 114.482 96.4559 114.558C97.5277 114.954 99.1395 116.617 99.3162 117.324C99.5111 118.104 99.739 119.338 99.7533 119.948C99.7542 119.987 99.7477 120.024 99.7363 120.061Z" fill="#A6A6A6"/>
<path d="M99.5024 121.516C99.5024 120.952 99.6487 120.344 99.7363 120.061C99.7477 120.024 99.7542 119.987 99.7533 119.948C99.739 119.338 99.5111 118.104 99.3162 117.324C99.1395 116.617 97.5277 114.954 96.4559 114.558C96.2489 114.482 96.0729 114.671 96.0916 114.891C96.1855 115.995 96.2878 118.746 95.7753 120.283M99.5024 121.516C99.5024 122.27 99.754 124.873 99.0459 128.06M99.5024 121.516C98.6238 122.273 96.6391 123.758 95.5425 122.53M99.5024 121.516C96.4374 122.921 95.7562 121.372 95.7753 120.283M99.0459 128.06C98.8782 128.814 98.6434 130.374 99.0459 130.575C99.5491 130.827 97.788 131.833 97.2848 131.582C97.0408 131.46 96.6193 131.219 96.2785 130.918M99.0459 128.06C98.6979 129.214 97.6571 131.402 96.2785 130.918M99.0459 128.06C97.2666 131.014 96.1242 130.465 95.7754 129.821M95.7754 129.821C96.0269 129.066 96.2785 128.563 96.2785 127.556C96.2785 126.83 95.6239 124.677 95.5425 122.53M95.7754 129.821C95.6458 130.209 95.9166 130.598 96.2785 130.918M95.7753 120.283C95.5651 120.914 95.511 121.701 95.5425 122.53" stroke="black" stroke-width="0.155357"/>
<path d="M108.344 108.138C108.356 110.901 106.992 119.249 106.616 120.007C106.221 120.804 106.605 121.955 106.605 121.955C106.605 121.955 106.918 125.626 106.113 127.638C105.69 128.695 105.619 129.474 105.695 130.012C105.764 130.5 105.953 130.789 106.113 130.909C105.023 131.664 102.842 132.67 102.842 130.657V127.638C102.675 126.632 102.173 124.342 102.576 122.53L102.589 122.471C102.942 120.842 102.775 119.967 102.617 119.707C102.594 119.668 102.567 119.632 102.55 119.59C102.051 118.38 101.44 115.582 101.836 113.801C102.212 112.111 106.083 108.531 107.961 107.856C108.157 107.786 108.344 107.93 108.344 108.138Z" fill="#A6A6A6"/>
<path d="M106.616 120.007C106.992 119.249 108.356 110.901 108.344 108.138C108.344 107.93 108.157 107.786 107.961 107.856C106.083 108.531 102.212 112.111 101.836 113.801C101.44 115.582 102.051 118.38 102.55 119.59C102.567 119.632 102.594 119.668 102.617 119.707C102.775 119.967 102.942 120.842 102.589 122.471M106.616 120.007C106.221 120.804 106.605 121.955 106.605 121.955M106.616 120.007C106.045 120.809 104.441 122.424 102.589 122.471M106.605 121.955C106.605 121.955 106.918 125.626 106.113 127.638C105.69 128.695 105.619 129.474 105.695 130.012M106.605 121.955C105.901 122.338 104.111 122.991 102.576 122.53M106.113 130.909C105.023 131.664 102.842 132.67 102.842 130.657C102.842 128.645 102.842 127.806 102.842 127.638M106.113 130.909C105.16 130.882 103.173 130.19 102.842 127.638M106.113 130.909C105.953 130.789 105.764 130.5 105.695 130.012M102.842 127.638C102.675 126.632 102.173 124.342 102.576 122.53M102.842 127.638C103.17 128.494 104.2 130.166 105.695 130.012M102.576 122.53C102.58 122.51 102.585 122.491 102.589 122.471" stroke="black" stroke-width="0.155357"/>
<path d="M98.1896 78.1664L98.5577 81.2954C98.5617 81.3294 98.5505 81.3628 98.5263 81.387C97.7602 82.1547 96.2998 83.6671 96.2998 83.865C96.2998 84.1166 100.828 85.6261 102.338 85.6261C103.411 85.6261 104.96 84.6993 105.822 84.0808C105.984 83.9648 106.01 83.7379 105.885 83.5825L104.122 81.3782C104.107 81.3597 104.101 81.3359 104.104 81.3125L104.405 79.0552C104.533 78.093 104.356 77.1148 103.9 76.2583L103.277 75.0909C102.854 74.2974 102.028 73.8018 101.128 73.8018C100.179 73.8018 99.3155 74.354 98.9175 75.2163L98.5225 76.0721C98.2206 76.7262 98.1054 77.451 98.1896 78.1664Z" fill="#7E7E7E" stroke="black" stroke-width="0.155357"/>
<path d="M95.1811 84.6901L98.2331 83.1487C98.283 83.1235 98.3381 83.1104 98.394 83.1104H104.532C104.576 83.1104 104.619 83.1184 104.66 83.1341L107.687 84.2982C107.8 84.3418 107.883 84.4379 107.908 84.5572C108.59 87.897 109.882 94.5587 109.882 95.941C109.882 97.7021 107.869 99.2116 107.869 99.9663C108.144 100.425 108.453 101.077 108.875 102.231C109.059 102.731 109.276 103.348 109.467 103.992C109.642 104.578 109.795 105.187 109.882 105.753L110.335 108.019C110.365 108.168 110.297 108.319 110.167 108.399C108.326 109.528 104.915 112.267 103.192 115.816C102.969 116.276 102.774 116.751 102.615 117.237C102.595 117.295 102.562 117.347 102.518 117.389L99.0274 120.647C98.9024 120.763 98.7128 120.775 98.5751 120.674C97.5992 119.954 95.9784 118.702 95.7932 118.332C95.5416 117.829 95.7932 115.313 95.7932 113.552C95.7932 112.143 95.9609 110.952 96.0447 110.533L93.373 107.132C93.312 107.055 93.2855 106.957 93.3006 106.86C93.653 104.571 94.5234 98.87 94.1298 93.7535C93.7405 88.6926 94.5308 85.7712 95.0383 84.8261C95.0702 84.7667 95.121 84.7205 95.1811 84.6901Z" fill="#A6A6A6"/>
<path d="M107.869 99.9663C107.869 99.2116 109.882 97.7021 109.882 95.941C109.882 94.5587 108.59 87.897 107.908 84.5572C107.883 84.4379 107.8 84.3418 107.687 84.2982L104.66 83.1341C104.619 83.1184 104.576 83.1104 104.532 83.1104H98.394C98.3381 83.1104 98.283 83.1235 98.2331 83.1487L95.1811 84.6901C95.121 84.7205 95.0702 84.7667 95.0383 84.8261C94.5308 85.7712 93.7405 88.6926 94.1298 93.7535C94.5234 98.87 93.653 104.571 93.3006 106.86C93.2855 106.957 93.312 107.055 93.373 107.132L96.0447 110.533M107.869 99.9663C106.36 100.805 102.334 101.627 98.309 98.2053M107.869 99.9663C107.701 101.14 106.913 104.092 105.102 106.507C103.29 108.923 102.837 109.862 102.837 110.03M107.869 99.9663C108.144 100.425 108.453 101.077 108.875 102.231M107.869 99.9663C107.422 100.046 106.676 100.027 105.856 99.7226M96.0447 110.533C95.9609 110.952 95.7932 112.143 95.7932 113.552C95.7932 115.313 95.5416 117.829 95.7932 118.332C95.9784 118.702 97.5992 119.954 98.5751 120.674C98.7128 120.775 98.9024 120.763 99.0274 120.647L102.518 117.389C102.562 117.347 102.595 117.295 102.615 117.237C102.774 116.751 102.969 116.276 103.192 115.816M96.0447 110.533L100.825 116.822M103.192 115.816C104.915 112.267 108.326 109.528 110.167 108.399C110.297 108.319 110.365 108.168 110.335 108.019L109.882 105.753C109.795 105.187 109.642 104.578 109.467 103.992M103.192 115.816L102.077 112.294M98.309 98.2053C97.8944 97.6249 97.0208 96.2247 96.8066 95.2205C96.8017 95.1975 96.7995 95.1744 96.7995 95.1509V89.9031V88.142M98.309 98.2053C102.737 100.218 105.186 100.055 105.856 99.7226M108.875 102.231C108.372 104.243 106.863 106.256 104.85 108.772M108.875 102.231C109.059 102.731 109.276 103.348 109.467 103.992M109.467 103.992C109.354 104.663 108.875 106.357 107.869 107.765C106.611 109.526 104.85 111.036 104.347 112.042M103.192 97.4505C101.328 94.4315 98.0574 89.1483 98.0574 88.142C98.0574 87.1357 102.038 94.2018 103.192 97.4505ZM103.192 97.4505C103.972 98.7131 104.959 99.389 105.856 99.7226M102.077 112.294L98.5752 102.523C98.5655 102.496 98.5606 102.467 98.5606 102.439V102.439C98.5606 102.168 98.9322 102.091 99.039 102.341L99.3153 102.985L102.077 112.294Z" stroke="black" stroke-width="0.155357"/>
<path d="M114.662 109.676C111.895 106.974 110.977 102.648 109.887 100.971L109.247 102.25C109.178 102.388 109.205 102.553 109.309 102.666C109.539 102.913 109.933 103.361 110.138 103.738C110.439 104.29 110.386 106.154 114.662 109.676Z" stroke="black" stroke-width="0.155357"/>
<path d="M152.342 132.701L162.337 129.667C165.549 129.667 168.94 130.559 168.94 130.559C168.94 130.559 169.265 131.619 169.654 132.483C170.028 133.314 170.462 134.129 170.725 134.129C171.26 134.129 160.909 135.021 159.124 135.556C157.833 135.944 153.551 135.584 150.201 135.355V135.2L151.272 133.95L152.342 132.701Z" fill="#D9D9D9"/>
<path d="M168.94 130.559C168.94 130.559 165.549 129.667 162.337 129.667L152.342 132.701L151.272 133.95M168.94 130.559C168.94 130.559 169.265 131.619 169.654 132.483M168.94 130.559C168.94 131.63 167.833 132.808 165.549 133.217M146.988 135.2C147.777 135.2 148.921 135.268 150.201 135.355M150.201 135.355C153.551 135.584 157.833 135.944 159.124 135.556C160.909 135.021 171.26 134.129 170.725 134.129C170.462 134.129 170.028 133.314 169.654 132.483M150.201 135.355V135.2L151.272 133.95M151.272 133.95L157.875 134.664L161.444 133.95L165.549 133.217M169.654 132.483L165.549 133.217" stroke="black" stroke-width="0.155357"/>
<path d="M169.651 132.487C169.262 131.623 168.938 130.742 168.938 130.742C168.759 131.398 168.581 132.681 162.513 133.776L169.651 132.487Z" fill="#4E4E4E" stroke="black" stroke-width="0.155357"/>
<path d="M188.725 133.882L190.153 129.42L194.604 128.415C195.282 128.262 195.992 128.447 196.509 128.912L197.47 129.777L199.611 133.346V140.842L195.864 142.27L194.079 142.95L192.116 143.698C192.116 143.698 190.056 143.333 188.725 143.341C187.463 143.348 185.512 143.698 185.512 143.698L186.94 134.953L188.189 134.239L188.725 133.882Z" fill="#D9D9D9"/>
<path d="M190.153 129.42L188.725 133.882M190.153 129.42L194.604 128.415C195.282 128.262 195.992 128.447 196.509 128.912L197.47 129.777M190.153 129.42L191.58 130.58L194.525 130.179L197.47 129.777M188.725 133.882L187.833 139.593L187.476 138.879L188.189 134.239M188.725 133.882L188.189 134.239M185.512 143.698L186.94 134.953L188.189 134.239M185.512 143.698C185.512 143.698 187.463 143.348 188.725 143.341M185.512 143.698L183.192 144.233M197.47 129.777L199.611 133.346V140.842L195.864 142.27M188.725 143.341C190.056 143.333 192.116 143.698 192.116 143.698L194.079 142.95M188.725 143.341V142.448L188.903 141.556L192.473 140.307L193.544 138.879H194.079V142.95M195.864 142.27C196.221 141.497 196.934 139.2 196.934 136.202L197.738 135.577M195.864 142.27L194.079 142.95M197.738 135.577L198.541 134.953L197.827 133.525L197.738 135.577Z" stroke="black" stroke-width="0.155357"/>
<path d="M197.827 133.525L198.54 134.953L197.737 135.578L197.827 133.525Z" fill="#4E4E4E" stroke="black" stroke-width="0.155357"/>
<path d="M192.116 143.699C192.116 143.699 190.056 143.335 188.725 143.342V142.45L188.903 141.558L192.472 140.308L193.543 138.881L194.436 131.563L196.934 130.85L194.971 132.277L194.079 138.881V142.951L192.116 143.699Z" fill="#4E4E4E" stroke="black" stroke-width="0.155357"/>
<path d="M187.833 139.595L188.726 133.884L188.19 134.241L187.477 138.881L187.833 139.595Z" fill="#4E4E4E" stroke="black" stroke-width="0.155357"/>
<path d="M183.193 144.227L185.513 143.692C185.513 143.692 187.464 143.342 188.726 143.335C190.057 143.327 192.117 143.692 192.117 143.692L194.08 142.944L195.865 142.264L199.612 140.836C200.715 140.492 210.499 137.984 210.499 137.984C210.499 137.984 214.425 140.304 215.139 140.837" stroke="black" stroke-width="0.155357"/>
<path d="M175.647 133.082L171.7 132.695L171.705 131.739L172.075 130.978C172.256 130.607 172.634 130.372 173.047 130.375L177.057 130.407C177.442 130.41 177.796 130.619 177.983 130.955L178.611 132.079L178.81 132.435L175.647 133.082Z" fill="#D9D9D9"/>
<path d="M171.705 131.739L172.075 130.978C172.256 130.607 172.634 130.372 173.047 130.375L177.057 130.407C177.442 130.41 177.796 130.619 177.983 130.955L178.611 132.079M171.705 131.739L171.7 132.695L175.647 133.082L178.81 132.435L178.611 132.079M171.705 131.739C172.703 132.226 174.123 132.441 175.482 132.512C176.14 132.547 178.159 132.149 178.159 132.149L178.611 132.079" stroke="black" stroke-width="0.155357"/>
<path d="M175.65 133.082L171.703 132.696L171.708 131.74C172.532 132.142 174.358 132.405 175.485 132.508L175.65 133.082Z" fill="#4E4E4E" stroke="black" stroke-width="0.155357"/>
<path d="M231.354 54.0984C228.731 64.3292 210.424 76.7164 201.598 81.6311C215.763 73.6329 220.512 64.3501 219.377 64.6674C218.241 64.9847 216.839 63.908 216.463 61.6876C216.162 59.9113 219.181 58.2761 220.728 57.6805C221.596 55.9691 223.558 55.5432 226.663 56.1439C229.147 56.6245 230.826 54.9805 231.354 54.0984Z" fill="white" stroke="black" stroke-width="0.148132"/>
</g>
<path d="M244.8 79.0151C246.464 81.2617 246.464 84.2151 244.8 86.4618C238.743 94.6392 223.382 114.048 202.164 131.408C180.938 148.774 153.906 164.047 124.5 164.047C95.0936 164.047 68.0617 148.774 46.8365 131.408C25.6185 114.048 10.2571 94.6392 4.19991 86.4618C2.53577 84.2152 2.53577 81.2617 4.1999 79.0151C10.2571 70.8377 25.6185 51.4291 46.8365 34.0688C68.0617 16.7026 95.0936 1.43031 124.5 1.43031C153.906 1.43031 180.938 16.7026 202.164 34.0688C223.382 51.4291 238.743 70.8377 244.8 79.0151Z" stroke="#7E7E7E" stroke-width="0.860627"/>
<defs>
<radialGradient id="paint0_radial_3222_2135" cx="0" cy="0" r="1" gradientUnits="userSpaceOnUse" gradientTransform="translate(44.1522 84.581) rotate(90) scale(31.2847)">
<stop stop-color="#EDFFD0"/>
<stop offset="1" stop-color="#EDFFD0"/>
</radialGradient>
<radialGradient id="paint1_radial_3222_2135" cx="0" cy="0" r="1" gradientUnits="userSpaceOnUse" gradientTransform="translate(127.975 55.2493) rotate(90) scale(203.885)">
<stop stop-color="#EDFFD0"/>
<stop offset="1" stop-color="#EDFFD0"/>
</radialGradient>
</defs>
</svg>
