<svg width="25" height="24" viewBox="0 0 25 24" fill="none" xmlns="http://www.w3.org/2000/svg">
<g clip-path="url(#clip0_4001_2614)">
<path d="M12.5002 3C16.3997 3 19.3957 5.22682 21.3547 7.31641C22.3431 8.37064 23.098 9.42097 23.6057 10.207C23.8601 10.6009 24.054 10.9317 24.1858 11.166C24.2516 11.2831 24.3024 11.3767 24.3372 11.4424C24.3545 11.4751 24.3686 11.501 24.3782 11.5195C24.3828 11.5286 24.3861 11.5365 24.3889 11.542C24.3903 11.5447 24.3919 11.5471 24.3928 11.5488L24.3938 11.5508L24.3948 11.5518C24.395 11.5521 24.3946 11.5528 23.5002 12C24.3506 12.4252 24.3928 12.4468 24.3948 12.4482L24.3938 12.4492L24.3928 12.4512C24.3919 12.4529 24.3903 12.4553 24.3889 12.458C24.3861 12.4635 24.3829 12.4714 24.3782 12.4805C24.3687 12.499 24.3545 12.5249 24.3372 12.5576C24.3024 12.6233 24.2516 12.7169 24.1858 12.834C24.054 13.0683 23.8601 13.3991 23.6057 13.793C23.098 14.579 22.3431 15.6293 21.3547 16.6836C19.3957 18.7732 16.3998 21 12.5002 21C8.60075 21 5.60477 18.7732 3.64575 16.6836C2.65742 15.6293 1.90246 14.579 1.39478 13.793C1.1404 13.3991 0.946499 13.0683 0.814697 12.834C0.748853 12.7169 0.698098 12.6233 0.66333 12.5576C0.646011 12.5249 0.631832 12.499 0.622314 12.4805C0.617641 12.4714 0.614342 12.4635 0.611572 12.458C0.610195 12.4553 0.608551 12.4529 0.607666 12.4512L0.606689 12.4492L0.605713 12.4482C0.607304 12.447 0.646037 12.4271 1.50024 12C0.605912 11.5528 0.605529 11.5521 0.605713 11.5518L0.606689 11.5508L0.607666 11.5488C0.608581 11.5471 0.610212 11.5447 0.611572 11.542C0.614342 11.5365 0.617637 11.5286 0.622314 11.5195C0.631847 11.501 0.646017 11.4751 0.66333 11.4424C0.698112 11.3767 0.748858 11.2831 0.814697 11.166C0.946514 10.9317 1.14041 10.6009 1.39478 10.207C1.90248 9.42097 2.65742 8.37065 3.64575 7.31641C5.60477 5.22682 8.6008 3.00001 12.5002 3ZM12.5002 5C9.3999 5.00001 6.8957 6.77331 5.10474 8.68359C4.21842 9.629 3.53548 10.5791 3.07446 11.293C2.89525 11.5705 2.75105 11.8113 2.64185 12C2.75104 12.1887 2.89525 12.4295 3.07446 12.707C3.53546 13.4208 4.21842 14.371 5.10474 15.3164C6.8957 17.2267 9.39985 19 12.5002 19C15.6006 19 18.1048 17.2267 19.8958 15.3164C20.7821 14.371 21.465 13.4208 21.926 12.707C22.1051 12.4297 22.2485 12.1886 22.3577 12C22.2485 11.8114 22.1051 11.5703 21.926 11.293C21.465 10.5791 20.7821 9.62899 19.8958 8.68359C18.1048 6.77332 15.6006 5 12.5002 5ZM12.5002 8C14.7093 8.00009 16.5002 9.79092 16.5002 12C16.5002 14.2091 14.7093 15.9999 12.5002 16C10.2911 16 8.50024 14.2091 8.50024 12C8.50024 9.79086 10.2911 8 12.5002 8ZM12.5002 10C11.3957 10 10.5002 10.8954 10.5002 12C10.5002 13.1046 11.3957 14 12.5002 14C13.6047 13.9999 14.5002 13.1045 14.5002 12C14.5002 10.8955 13.6047 10.0001 12.5002 10ZM1.50024 12L0.605713 12.4473C0.465031 12.1658 0.464977 11.8342 0.605713 11.5527L1.50024 12ZM24.3948 11.5527C24.5355 11.8342 24.5355 12.1658 24.3948 12.4473L23.5002 12L24.3948 11.5527Z" fill="url(#paint0_linear_4001_2614)"/>
</g>
<defs>
<linearGradient id="paint0_linear_4001_2614" x1="13.2625" y1="-6.87688" x2="13.2625" y2="59.7255" gradientUnits="userSpaceOnUse">
<stop stop-color="#D5FF5C"/>
<stop offset="0.813676" stop-color="#809937"/>
</linearGradient>
<clipPath id="clip0_4001_2614">
<rect width="24" height="24" fill="white" transform="translate(0.5)"/>
</clipPath>
</defs>
</svg>
