<svg width="200" height="59" viewBox="0 0 200 59" fill="none" xmlns="http://www.w3.org/2000/svg" xmlns:xlink="http://www.w3.org/1999/xlink">
<path opacity="0.3" d="M110.255 -67.1748C81.9617 -65.9503 55.7271 -48.3035 44.9268 -20.1849C33.6386 9.2037 42.5329 41.3811 64.8133 61.0774" stroke="white" stroke-width="0.624488" stroke-dasharray="1.25 1.25"/>
<g style="mix-blend-mode:lighten">
<path d="M71.2983 -31.5098L234.001 39.7883L162.703 202.491L4.72441e-05 131.193L71.2983 -31.5098Z" fill="url(#pattern0_4197_3418)"/>
</g>
<g filter="url(#filter0_f_4197_3418)">
<ellipse cx="27.9292" cy="17.1871" rx="27.9292" ry="17.1871" transform="matrix(-0.999029 0.0440461 0.0440464 0.999029 140.444 29.0269)" fill="#C9C9C9" fill-opacity="0.06"/>
</g>
<g filter="url(#filter1_f_4197_3418)">
<path d="M62.9524 34.4985L63.4221 38.434L66.8829 38.9681L63.4221 39.5022L62.9524 43.4377L62.4827 39.5022L59.022 38.9681L62.4827 38.434L62.9524 34.4985Z" fill="#C0B6B6"/>
</g>
<path d="M62.9661 34.4307L63.1214 35.732C63.3072 37.2891 64.5078 38.5316 66.0576 38.7708L66.8965 38.9002L66.0576 39.0297C64.5078 39.2689 63.3072 40.5114 63.1214 42.0685L62.9661 43.3698L62.8108 42.0685C62.6249 40.5114 61.4244 39.2689 59.8746 39.0297L59.0356 38.9002L59.8746 38.7708C61.4244 38.5316 62.6249 37.2891 62.8108 35.732L62.9661 34.4307Z" fill="white"/>
<g clip-path="url(#paint0_angular_4197_3418_clip_path)" data-figma-skip-parse="true"><g transform="matrix(-0.0366671 -5.45438e-05 5.4544e-05 -0.036667 111.459 -32.0948)"><foreignObject x="-978.711" y="-978.711" width="1957.42" height="1957.42"><div xmlns="http://www.w3.org/1999/xhtml" style="background:conic-gradient(from 90deg,rgba(255, 255, 255, 1) 0deg,rgba(153, 153, 153, 0) 360deg);height:100%;width:100%;opacity:1"></div></foreignObject></g></g><path d="M146.534 -32.0948H146.155C146.155 -12.9327 130.621 2.6013 111.459 2.6013V2.98032V3.35933C131.04 3.35933 146.913 -12.514 146.913 -32.0948H146.534ZM111.459 2.98032V2.6013C92.2968 2.6013 76.7628 -12.9327 76.7628 -32.0948H76.3838H76.0048C76.0048 -12.514 91.8782 3.35933 111.459 3.35933V2.98032ZM76.3838 -32.0948H76.7628C76.7628 -51.2569 92.2968 -66.7909 111.459 -66.7909V-67.1699V-67.5489C91.8782 -67.5489 76.0048 -51.6756 76.0048 -32.0948H76.3838ZM111.459 -67.1699V-66.7909C130.621 -66.7909 146.155 -51.2569 146.155 -32.0948H146.534H146.913C146.913 -51.6756 131.04 -67.5489 111.459 -67.5489V-67.1699Z" data-figma-gradient-fill="{&#34;type&#34;:&#34;GRADIENT_ANGULAR&#34;,&#34;stops&#34;:[{&#34;color&#34;:{&#34;r&#34;:1.0,&#34;g&#34;:1.0,&#34;b&#34;:1.0,&#34;a&#34;:1.0},&#34;position&#34;:0.0},{&#34;color&#34;:{&#34;r&#34;:0.60000002384185791,&#34;g&#34;:0.60000002384185791,&#34;b&#34;:0.60000002384185791,&#34;a&#34;:0.0},&#34;position&#34;:1.0}],&#34;stopsVar&#34;:[{&#34;color&#34;:{&#34;r&#34;:1.0,&#34;g&#34;:1.0,&#34;b&#34;:1.0,&#34;a&#34;:1.0},&#34;position&#34;:0.0},{&#34;color&#34;:{&#34;r&#34;:0.60000002384185791,&#34;g&#34;:0.60000002384185791,&#34;b&#34;:0.60000002384185791,&#34;a&#34;:0.0},&#34;position&#34;:1.0}],&#34;transform&#34;:{&#34;m00&#34;:-73.334197998046875,&#34;m01&#34;:0.10908806324005127,&#34;m02&#34;:148.07159423828125,&#34;m10&#34;:-0.10908766090869904,&#34;m11&#34;:-73.333923339843750,&#34;m12&#34;:4.6267013549804688},&#34;opacity&#34;:1.0,&#34;blendMode&#34;:&#34;NORMAL&#34;,&#34;visible&#34;:true}"/>
<ellipse cx="80.2713" cy="13.3844" rx="0.985431" ry="0.985427" fill="white"/>
<g filter="url(#filter2_f_4197_3418)">
<path d="M155.547 7.42285L155.892 10.3099L158.43 10.7018L155.892 11.0936L155.547 13.9807L155.202 11.0936L152.664 10.7018L155.202 10.3099L155.547 7.42285Z" fill="#999999"/>
</g>
<path d="M155.547 7.42285L155.765 9.25135C155.84 9.8771 156.322 10.3764 156.945 10.4726L158.43 10.7018L156.945 10.931C156.322 11.0271 155.84 11.5265 155.765 12.1522L155.547 13.9807L155.329 12.1522C155.254 11.5265 154.772 11.0271 154.149 10.931L152.664 10.7018L154.149 10.4726C154.772 10.3764 155.254 9.8771 155.329 9.25135L155.547 7.42285Z" fill="white"/>
<path d="M58.3313 13.4482L58.3313 11.0831" stroke="white" stroke-width="0.183848"/>
<path d="M58.3311 8.36768L58.3311 6.00252" stroke="white" stroke-width="0.183848"/>
<path d="M62.0554 9.72461L59.6903 9.72461" stroke="white" stroke-width="0.183848"/>
<path d="M56.9753 9.72461L54.6102 9.72461" stroke="white" stroke-width="0.183848"/>
<g filter="url(#filter3_f_4197_3418)">
<ellipse cx="107.871" cy="48.1633" rx="22.7424" ry="13.9953" fill="#BFFF00" fill-opacity="0.06"/>
</g>
<path d="M108.647 29.0464C100.313 29.0465 93.1921 32.1533 90.3384 36.5366L89.062 36.5395L89.062 39.8911C89.0235 40.1918 89.0044 40.4957 89.0044 40.8022C89.0044 47.2948 97.7985 52.558 108.647 52.5581C119.496 52.5581 128.291 47.2948 128.291 40.8022C128.291 40.4054 128.257 40.0132 128.193 39.6265L128.193 36.4761L126.919 36.478C124.041 32.1251 116.944 29.0464 108.647 29.0464Z" fill="url(#paint1_linear_4197_3418)"/>
<path d="M108.647 29.0464L108.647 28.8184L108.647 28.8184L108.647 29.0464ZM90.3384 36.5366L90.5294 36.661L90.4622 36.7643L90.3389 36.7646L90.3384 36.5366ZM89.062 36.5395L88.834 36.5395L88.834 36.3121L89.0615 36.3116L89.062 36.5395ZM89.062 39.8911L89.29 39.8911L89.29 39.9057L89.2881 39.9201L89.062 39.8911ZM89.0044 40.8022L88.7764 40.8022L88.7764 40.8022L89.0044 40.8022ZM108.647 52.5581L108.647 52.7861L108.647 52.7861L108.647 52.5581ZM128.291 40.8022L128.518 40.8022L128.518 40.8022L128.291 40.8022ZM128.193 39.6265L127.968 39.6638L127.965 39.6453L127.965 39.6265L128.193 39.6265ZM128.193 36.4761L128.193 36.2481L128.421 36.2478L128.421 36.4761L128.193 36.4761ZM126.919 36.478L126.92 36.706L126.797 36.7062L126.729 36.6038L126.919 36.478ZM108.647 29.0464L108.647 29.2744C100.352 29.2744 93.3237 32.369 90.5294 36.661L90.3384 36.5366L90.1473 36.4122C93.0605 31.9375 100.274 28.8185 108.647 28.8184L108.647 29.0464ZM90.3384 36.5366L90.3389 36.7646L89.0625 36.7675L89.062 36.5395L89.0615 36.3116L90.3379 36.3086L90.3384 36.5366ZM89.062 36.5395L89.29 36.5395L89.29 39.8911L89.062 39.8911L88.834 39.8911L88.834 36.5395L89.062 36.5395ZM89.062 39.8911L89.2881 39.9201C89.2509 40.2109 89.2324 40.5051 89.2324 40.8023L89.0044 40.8022L88.7764 40.8022C88.7764 40.4862 88.7961 40.1726 88.8359 39.8621L89.062 39.8911ZM89.0044 40.8022L89.2324 40.8022C89.2324 43.9367 91.3564 46.8136 94.8746 48.9192C98.3881 51.0221 103.257 52.3301 108.647 52.3301L108.647 52.5581L108.647 52.7861C103.189 52.786 98.236 51.4624 94.6404 49.3105C91.0494 47.1613 88.7764 44.1603 88.7764 40.8022L89.0044 40.8022ZM108.647 52.5581L108.647 52.3301C114.037 52.3301 118.906 51.0221 122.42 48.9193C125.938 46.8137 128.063 43.9367 128.063 40.8022L128.291 40.8022L128.518 40.8022C128.518 44.1604 126.245 47.1613 122.654 49.3105C119.058 51.4625 114.105 52.7861 108.647 52.7861L108.647 52.5581ZM128.291 40.8022L128.063 40.8023C128.063 40.4183 128.03 40.0386 127.968 39.6638L128.193 39.6265L128.418 39.5891C128.484 39.9879 128.518 40.3925 128.518 40.8022L128.291 40.8022ZM128.193 39.6265L127.965 39.6265L127.965 36.4761L128.193 36.4761L128.421 36.4761L128.421 39.6265L128.193 39.6265ZM128.193 36.4761L128.193 36.704L126.92 36.706L126.919 36.478L126.919 36.2501L128.193 36.2481L128.193 36.4761ZM126.919 36.478L126.729 36.6038C123.91 32.3409 116.906 29.2744 108.647 29.2744L108.647 29.0464L108.647 28.8184C116.983 28.8184 124.172 31.9094 127.11 36.3523L126.919 36.478Z" fill="white"/>
<ellipse cx="19.6056" cy="11.7405" rx="19.6056" ry="11.7405" transform="matrix(-1 -8.08411e-08 -9.45403e-08 1 128.215 24.5918)" fill="url(#paint2_linear_4197_3418)" stroke="white" stroke-width="0.683916"/>
<mask id="mask0_4197_3418" style="mask-type:alpha" maskUnits="userSpaceOnUse" x="88" y="24" width="41" height="25">
<ellipse cx="19.6432" cy="11.7559" rx="19.6432" ry="11.7559" transform="matrix(-1 -8.08411e-08 -9.45404e-08 1 128.311 24.5918)" fill="url(#paint3_linear_4197_3418)" stroke="white" stroke-width="0.455944"/>
</mask>
<g mask="url(#mask0_4197_3418)">
<ellipse cx="13.2661" cy="13.457" rx="13.2661" ry="13.457" transform="matrix(0.850712 0.525633 -0.874539 0.484955 109.24 22.436)" fill="url(#paint4_linear_4197_3418)" stroke="white" stroke-width="0.683917"/>
<g style="mix-blend-mode:hard-light">
<path fill-rule="evenodd" clip-rule="evenodd" d="M105.966 31.6569C104.847 31.6395 103.828 31.6803 103.047 31.7305C102.669 31.7549 102.467 31.769 102.319 31.7924C102.208 31.81 102.173 31.826 102.138 31.8474C102.103 31.8687 102.077 31.8897 102.05 31.9569C102.013 32.0461 101.993 32.1676 101.958 32.395C101.885 32.8793 101.832 33.5153 101.887 34.2114C102.264 33.648 102.832 33.1171 103.589 32.6548C104.296 32.2236 105.104 31.8907 105.966 31.6569ZM111.509 40.0558C112.778 40.0904 113.942 40.0463 114.811 39.9904C115.19 39.966 115.392 39.9519 115.539 39.9285C115.651 39.9109 115.685 39.8949 115.72 39.8735C115.755 39.8522 115.781 39.8311 115.809 39.7639C115.846 39.6748 115.866 39.5533 115.9 39.3259C115.977 38.8186 116.031 38.1451 115.963 37.4103C115.586 37.9722 115.019 38.5016 114.264 38.9627C113.455 39.4563 112.513 39.8209 111.509 40.0558ZM114.411 32.5155C112.737 31.5262 110.486 31.0713 108.384 30.8785C106.274 30.6851 104.234 30.7481 102.894 30.8342C102.855 30.8368 102.815 30.8392 102.775 30.8417C102.182 30.8786 101.561 30.9173 101.071 31.2166C100.58 31.5159 100.526 31.8891 100.474 32.2458L100.474 32.2461C100.47 32.27 100.467 32.2938 100.463 32.3175C100.341 33.1234 100.269 34.3489 100.625 35.6127C100.98 36.8722 101.773 38.2161 103.447 39.2054C105.122 40.1947 107.372 40.6495 109.475 40.8424C111.585 41.0358 113.625 40.9728 114.964 40.8867C115.004 40.8841 115.043 40.8817 115.083 40.8792L115.084 40.8791C115.677 40.8422 116.297 40.8036 116.788 40.5043C117.278 40.205 117.333 39.8318 117.385 39.4751C117.388 39.4511 117.392 39.4272 117.395 39.4034C117.517 38.5975 117.589 37.3719 117.233 36.1082C116.879 34.8487 116.085 33.5048 114.411 32.5155ZM104.573 38.4651C106.907 39.844 110.767 39.8141 113.196 38.332C115.625 36.8498 115.613 34.5314 113.28 33.1525C110.946 31.7735 107.085 31.8035 104.657 33.2856C102.228 34.7677 102.24 37.0861 104.573 38.4651ZM111.284 37.2547C109.973 38.0549 107.835 38.0682 106.508 37.2843C105.182 36.5005 105.169 35.2164 106.481 34.4162C107.792 33.616 109.931 33.6027 111.257 34.3866C112.583 35.1704 112.596 36.4545 111.284 37.2547ZM112.352 37.8855C110.458 39.0414 107.369 39.0605 105.453 37.9283C103.537 36.7961 103.519 34.9412 105.413 33.7854C107.308 32.6295 110.396 32.6104 112.312 33.7426C114.228 34.8748 114.246 36.7297 112.352 37.8855ZM109.237 36.0462C109.043 36.1647 108.726 36.1667 108.53 36.0505C108.333 35.9344 108.331 35.7442 108.526 35.6256C108.72 35.5071 109.037 35.5051 109.233 35.6212C109.43 35.7374 109.432 35.9276 109.237 36.0462ZM110.305 36.6769C109.528 37.1511 108.26 37.159 107.474 36.6945C106.688 36.23 106.681 35.469 107.458 34.9948C108.235 34.5206 109.503 34.5128 110.289 34.9773C111.075 35.4418 111.082 36.2028 110.305 36.6769Z" fill="#D4F968"/>
</g>
</g>
<path d="M108.647 24.7148C100.313 24.7149 93.192 27.8216 90.3384 32.2051L89.062 32.208L89.062 35.5596C89.0235 35.8602 89.0044 36.1641 89.0044 36.4707C89.0044 42.9632 97.7985 48.2265 108.647 48.2266C119.496 48.2266 128.291 42.9633 128.291 36.4707C128.291 36.0738 128.257 35.6817 128.193 35.2949L128.193 32.1445L126.919 32.1465C124.041 27.7935 116.944 24.7148 108.647 24.7148Z" fill="url(#paint5_linear_4197_3418)"/>
<path d="M108.647 24.7148L108.647 24.4869L108.647 24.4869L108.647 24.7148ZM90.3384 32.2051L90.5294 32.3295L90.4622 32.4328L90.3389 32.433L90.3384 32.2051ZM89.062 32.208L88.834 32.208L88.834 31.9806L89.0615 31.98L89.062 32.208ZM89.062 35.5596L89.29 35.5596L89.29 35.5741L89.2881 35.5885L89.062 35.5596ZM89.0044 36.4707L88.7764 36.4707L88.7764 36.4707L89.0044 36.4707ZM108.647 48.2266L108.647 48.4545L108.647 48.4545L108.647 48.2266ZM128.291 36.4707L128.518 36.4707L128.518 36.4707L128.291 36.4707ZM128.193 35.2949L127.968 35.3322L127.965 35.3137L127.965 35.2949L128.193 35.2949ZM128.193 32.1445L128.193 31.9166L128.421 31.9162L128.421 32.1445L128.193 32.1445ZM126.919 32.1465L126.92 32.3745L126.797 32.3746L126.729 32.2722L126.919 32.1465ZM108.647 24.7148L108.647 24.9428C100.352 24.9429 93.3236 28.0374 90.5294 32.3295L90.3384 32.2051L90.1473 32.0807C93.0604 27.6059 100.274 24.4869 108.647 24.4869L108.647 24.7148ZM90.3384 32.2051L90.3389 32.433L89.0625 32.436L89.062 32.208L89.0615 31.98L90.3379 31.9771L90.3384 32.2051ZM89.062 32.208L89.29 32.208L89.29 35.5596L89.062 35.5596L88.834 35.5596L88.834 32.208L89.062 32.208ZM89.062 35.5596L89.2881 35.5885C89.2509 35.8794 89.2324 36.1736 89.2324 36.4707L89.0044 36.4707L88.7764 36.4707C88.7764 36.1546 88.7961 35.8411 88.8359 35.5306L89.062 35.5596ZM89.0044 36.4707L89.2324 36.4707C89.2324 39.6051 91.3564 42.4821 94.8746 44.5877C98.3881 46.6905 103.257 47.9985 108.647 47.9986L108.647 48.2266L108.647 48.4545C103.189 48.4545 98.236 47.1309 94.6404 44.9789C91.0494 42.8297 88.7764 39.8288 88.7764 36.4707L89.0044 36.4707ZM108.647 48.2266L108.647 47.9986C114.037 47.9986 118.906 46.6906 122.42 44.5877C125.938 42.4821 128.063 39.6052 128.063 36.4707L128.291 36.4707L128.518 36.4707C128.518 39.8288 126.245 42.8298 122.654 44.979C119.058 47.1309 114.105 48.4545 108.647 48.4545L108.647 48.2266ZM128.291 36.4707L128.063 36.4707C128.063 36.0867 128.03 35.707 127.968 35.3322L128.193 35.2949L128.418 35.2576C128.484 35.6563 128.518 36.061 128.518 36.4707L128.291 36.4707ZM128.193 35.2949L127.965 35.2949L127.965 32.1445L128.193 32.1445L128.421 32.1445L128.421 35.2949L128.193 35.2949ZM128.193 32.1445L128.193 32.3725L126.92 32.3745L126.919 32.1465L126.919 31.9185L128.193 31.9166L128.193 32.1445ZM126.919 32.1465L126.729 32.2722C123.91 28.0093 116.906 24.9428 108.647 24.9428L108.647 24.7148L108.647 24.4869C116.983 24.4869 124.172 27.5778 127.11 32.0207L126.919 32.1465Z" fill="white"/>
<ellipse cx="19.6056" cy="11.7405" rx="19.6056" ry="11.7405" transform="matrix(-1 -8.08411e-08 -9.45403e-08 1 128.215 20.2612)" fill="url(#paint6_linear_4197_3418)" stroke="white" stroke-width="0.683916"/>
<mask id="mask1_4197_3418" style="mask-type:alpha" maskUnits="userSpaceOnUse" x="88" y="20" width="41" height="25">
<ellipse cx="19.6432" cy="11.7559" rx="19.6432" ry="11.7559" transform="matrix(-1 -8.08411e-08 -9.45404e-08 1 128.312 20.2612)" fill="url(#paint7_linear_4197_3418)" stroke="white" stroke-width="0.455944"/>
</mask>
<g mask="url(#mask1_4197_3418)">
<ellipse cx="13.2661" cy="13.457" rx="13.2661" ry="13.457" transform="matrix(0.850712 0.525633 -0.874539 0.484955 109.241 18.106)" fill="url(#paint8_linear_4197_3418)" stroke="white" stroke-width="0.683917"/>
<g style="mix-blend-mode:hard-light">
<path fill-rule="evenodd" clip-rule="evenodd" d="M105.967 27.3263C104.848 27.309 103.829 27.3497 103.048 27.4C102.67 27.4243 102.468 27.4385 102.32 27.4618C102.208 27.4795 102.174 27.4954 102.139 27.5168C102.104 27.5382 102.078 27.5592 102.05 27.6264C102.014 27.7155 101.993 27.837 101.959 28.0644C101.886 28.5488 101.833 29.1847 101.888 29.8808C102.265 29.3174 102.832 28.7865 103.59 28.3242C104.296 27.893 105.105 27.5602 105.967 27.3263ZM111.51 35.7252C112.779 35.7599 113.943 35.7157 114.812 35.6598C115.19 35.6355 115.392 35.6213 115.54 35.5979C115.652 35.5803 115.686 35.5643 115.721 35.543C115.756 35.5216 115.782 35.5006 115.81 35.4334C115.846 35.3443 115.867 35.2228 115.901 34.9953C115.978 34.4881 116.032 33.8145 115.964 33.0798C115.587 33.6416 115.02 34.1711 114.264 34.6322C113.456 35.1257 112.513 35.4904 111.51 35.7252ZM114.412 28.1849C112.738 27.1956 110.487 26.7408 108.384 26.548C106.274 26.3545 104.235 26.4175 102.895 26.5037C102.855 26.5062 102.815 26.5087 102.776 26.5112C102.182 26.5481 101.562 26.5867 101.071 26.886C100.581 27.1853 100.527 27.5585 100.475 27.9152L100.475 27.9155C100.471 27.9394 100.468 27.9632 100.464 27.9869C100.342 28.7928 100.27 30.0184 100.626 31.2821C100.981 32.5416 101.774 33.8855 103.448 34.8749C105.122 35.8642 107.373 36.319 109.476 36.5118C111.586 36.7053 113.625 36.6422 114.965 36.5561C115.004 36.5536 115.044 36.5511 115.083 36.5486L115.084 36.5486C115.678 36.5117 116.298 36.473 116.789 36.1738C117.279 35.8745 117.333 35.5012 117.385 35.1445C117.389 35.1205 117.392 35.0966 117.396 35.0728C117.518 34.267 117.59 33.0414 117.234 31.7776C116.879 30.5182 116.086 29.1742 114.412 28.1849ZM104.574 34.1345C106.907 35.5134 110.768 35.4835 113.197 34.0014C115.626 32.5193 115.614 30.2008 113.28 28.8219C110.947 27.443 107.086 27.4729 104.657 28.955C102.228 30.4371 102.24 32.7556 104.574 34.1345ZM111.285 32.9242C109.974 33.7244 107.835 33.7376 106.509 32.9538C105.182 32.1699 105.17 30.8858 106.481 30.0856C107.793 29.2854 109.931 29.2722 111.258 30.056C112.584 30.8398 112.596 32.124 111.285 32.9242ZM112.353 33.555C110.458 34.7108 107.37 34.7299 105.453 33.5977C103.537 32.4655 103.52 30.6107 105.414 29.4548C107.308 28.299 110.397 28.2798 112.313 29.4121C114.229 30.5443 114.247 32.3991 112.353 33.555ZM109.238 31.7156C109.044 31.8341 108.727 31.8361 108.53 31.72C108.334 31.6038 108.332 31.4136 108.526 31.2951C108.721 31.1765 109.038 31.1746 109.234 31.2907C109.431 31.4068 109.432 31.597 109.238 31.7156ZM110.306 32.3464C109.528 32.8206 108.261 32.8284 107.475 32.3639C106.689 31.8994 106.682 31.1385 107.459 30.6643C108.236 30.1901 109.503 30.1822 110.289 30.6467C111.075 31.1112 111.083 31.8722 110.306 32.3464Z" fill="#D4F968"/>
</g>
</g>
<path d="M108.647 20.3838C100.313 20.3839 93.1921 23.4906 90.3384 27.874L89.062 27.8769L89.062 31.2285C89.0235 31.5292 89.0044 31.8331 89.0044 32.1396C89.0044 38.6322 97.7985 43.8954 108.647 43.8955C119.496 43.8955 128.291 38.6323 128.291 32.1396C128.291 31.7428 128.257 31.3506 128.193 30.9639L128.193 27.8135L126.919 27.8154C124.041 23.4625 116.944 20.3838 108.647 20.3838Z" fill="url(#paint9_linear_4197_3418)"/>
<path d="M108.647 20.3838L108.647 20.1558L108.647 20.1558L108.647 20.3838ZM90.3384 27.874L90.5294 27.9984L90.4622 28.1017L90.3389 28.102L90.3384 27.874ZM89.062 27.8769L88.834 27.8769L88.834 27.6495L89.0615 27.649L89.062 27.8769ZM89.062 31.2285L89.29 31.2285L89.29 31.2431L89.2881 31.2575L89.062 31.2285ZM89.0044 32.1396L88.7764 32.1396L88.7764 32.1396L89.0044 32.1396ZM108.647 43.8955L108.647 44.1235L108.647 44.1235L108.647 43.8955ZM128.291 32.1396L128.518 32.1396L128.518 32.1396L128.291 32.1396ZM128.193 30.9639L127.968 31.0012L127.965 30.9827L127.965 30.9639L128.193 30.9639ZM128.193 27.8135L128.193 27.5855L128.421 27.5852L128.421 27.8135L128.193 27.8135ZM126.919 27.8154L126.92 28.0434L126.797 28.0436L126.729 27.9412L126.919 27.8154ZM108.647 20.3838L108.647 20.6118C100.352 20.6118 93.3237 23.7064 90.5294 27.9984L90.3384 27.874L90.1473 27.7496C93.0605 23.2749 100.274 20.1559 108.647 20.1558L108.647 20.3838ZM90.3384 27.874L90.3389 28.102L89.0625 28.1049L89.062 27.8769L89.0615 27.649L90.3379 27.646L90.3384 27.874ZM89.062 27.8769L89.29 27.8769L89.29 31.2285L89.062 31.2285L88.834 31.2285L88.834 27.8769L89.062 27.8769ZM89.062 31.2285L89.2881 31.2575C89.2509 31.5483 89.2324 31.8425 89.2324 32.1397L89.0044 32.1396L88.7764 32.1396C88.7764 31.8236 88.7961 31.51 88.8359 31.1995L89.062 31.2285ZM89.0044 32.1396L89.2324 32.1396C89.2324 35.2741 91.3564 38.151 94.8746 40.2566C98.3881 42.3595 103.257 43.6675 108.647 43.6675L108.647 43.8955L108.647 44.1235C103.189 44.1234 98.236 42.7998 94.6404 40.6479C91.0494 38.4987 88.7764 35.4977 88.7764 32.1396L89.0044 32.1396ZM108.647 43.8955L108.647 43.6675C114.037 43.6675 118.906 42.3595 122.42 40.2567C125.938 38.1511 128.063 35.2741 128.063 32.1396L128.291 32.1396L128.518 32.1396C128.518 35.4978 126.245 38.4988 122.654 40.6479C119.058 42.7999 114.105 44.1235 108.647 44.1235L108.647 43.8955ZM128.291 32.1396L128.063 32.1397C128.063 31.7557 128.03 31.376 127.968 31.0012L128.193 30.9639L128.418 30.9265C128.484 31.3253 128.518 31.7299 128.518 32.1396L128.291 32.1396ZM128.193 30.9639L127.965 30.9639L127.965 27.8135L128.193 27.8135L128.421 27.8135L128.421 30.9639L128.193 30.9639ZM128.193 27.8135L128.193 28.0414L126.92 28.0434L126.919 27.8154L126.919 27.5875L128.193 27.5855L128.193 27.8135ZM126.919 27.8154L126.729 27.9412C123.91 23.6783 116.906 20.6118 108.647 20.6118L108.647 20.3838L108.647 20.1558C116.983 20.1558 124.172 23.2468 127.11 27.6897L126.919 27.8154Z" fill="white"/>
<ellipse cx="19.6056" cy="11.7405" rx="19.6056" ry="11.7405" transform="matrix(-1 -8.08411e-08 -9.45403e-08 1 128.215 15.9302)" fill="url(#paint10_linear_4197_3418)" stroke="white" stroke-width="0.455944"/>
<mask id="mask2_4197_3418" style="mask-type:alpha" maskUnits="userSpaceOnUse" x="88" y="15" width="41" height="25">
<ellipse cx="19.6432" cy="11.7559" rx="19.6432" ry="11.7559" transform="matrix(-1 -8.08411e-08 -9.45404e-08 1 128.312 15.9302)" fill="url(#paint11_linear_4197_3418)" stroke="white" stroke-width="0.455944"/>
</mask>
<g mask="url(#mask2_4197_3418)">
<ellipse cx="12.675" cy="12.8796" rx="12.675" ry="12.8796" transform="matrix(0.860543 0.509377 -0.88312 0.469147 109.135 14.207)" fill="url(#paint12_linear_4197_3418)" stroke="white" stroke-width="0.455944"/>
<g style="mix-blend-mode:hard-light">
<path fill-rule="evenodd" clip-rule="evenodd" d="M105.74 22.5387C104.621 22.5214 103.602 22.5621 102.821 22.6124C102.443 22.6367 102.241 22.6509 102.093 22.6742C101.981 22.6919 101.947 22.7078 101.912 22.7292C101.877 22.7506 101.851 22.7716 101.823 22.8388C101.787 22.9279 101.766 23.0494 101.732 23.2769C101.659 23.7612 101.606 24.3971 101.661 25.0932C102.038 24.5298 102.605 23.9989 103.363 23.5366C104.069 23.1054 104.878 22.7726 105.74 22.5387ZM111.283 30.9376C112.552 30.9723 113.716 30.9281 114.585 30.8722C114.963 30.8479 115.165 30.8337 115.313 30.8103C115.425 30.7927 115.459 30.7767 115.494 30.7554C115.529 30.734 115.555 30.713 115.583 30.6458C115.619 30.5567 115.64 30.4352 115.674 30.2077C115.751 29.7005 115.805 29.0269 115.737 28.2922C115.36 28.854 114.793 29.3835 114.037 29.8446C113.229 30.3381 112.286 30.7028 111.283 30.9376ZM114.185 23.3973C112.511 22.408 110.26 21.9532 108.157 21.7604C106.047 21.5669 104.008 21.6299 102.668 21.7161C102.628 21.7186 102.588 21.7211 102.549 21.7236C101.955 21.7605 101.335 21.7991 100.844 22.0984C100.354 22.3977 100.3 22.7709 100.248 23.1276L100.248 23.1279C100.244 23.1518 100.241 23.1756 100.237 23.1993C100.115 24.0052 100.043 25.2308 100.399 26.4945C100.754 27.754 101.547 29.098 103.221 30.0873C104.895 31.0766 107.146 31.5314 109.249 31.7242C111.359 31.9177 113.398 31.8546 114.738 31.7685C114.777 31.766 114.817 31.7635 114.856 31.761L114.857 31.761C115.45 31.7241 116.071 31.6854 116.562 31.3862C117.052 31.0869 117.106 30.7136 117.158 30.3569C117.162 30.3329 117.165 30.309 117.169 30.2852C117.291 29.4794 117.363 28.2538 117.007 26.99C116.652 25.7306 115.859 24.3866 114.185 23.3973ZM104.347 29.3469C106.68 30.7258 110.541 30.6959 112.97 29.2138C115.399 27.7317 115.387 25.4132 113.053 24.0343C110.72 22.6554 106.859 22.6853 104.43 24.1674C102.001 25.6495 102.013 27.968 104.347 29.3469ZM111.058 28.1366C109.747 28.9368 107.608 28.95 106.282 28.1662C104.955 27.3823 104.943 26.0982 106.254 25.298C107.566 24.4978 109.704 24.4846 111.031 25.2684C112.357 26.0523 112.369 27.3364 111.058 28.1366ZM112.125 28.7674C110.231 29.9232 107.142 29.9423 105.226 28.8101C103.31 27.6779 103.293 25.8231 105.187 24.6672C107.081 23.5114 110.17 23.4922 112.086 24.6245C114.002 25.7567 114.02 27.6115 112.125 28.7674ZM109.011 26.928C108.817 27.0465 108.5 27.0485 108.303 26.9324C108.107 26.8163 108.105 26.626 108.299 26.5075C108.494 26.3889 108.81 26.387 109.007 26.5031C109.203 26.6192 109.205 26.8094 109.011 26.928ZM110.078 27.5588C109.301 28.033 108.034 28.0408 107.248 27.5763C106.462 27.1118 106.455 26.3509 107.232 25.8767C108.009 25.4025 109.276 25.3946 110.062 25.8591C110.848 26.3236 110.856 27.0846 110.078 27.5588Z" fill="#D4F968"/>
</g>
</g>
<defs>
<pattern id="pattern0_4197_3418" patternContentUnits="objectBoundingBox" width="1" height="1">
<use xlink:href="#image0_4197_3418" transform="scale(0.000462963)"/>
</pattern>
<filter id="filter0_f_4197_3418" x="79.1257" y="23.9514" width="68.3473" height="46.9523" filterUnits="userSpaceOnUse" color-interpolation-filters="sRGB">
<feFlood flood-opacity="0" result="BackgroundImageFix"/>
<feBlend mode="normal" in="SourceGraphic" in2="BackgroundImageFix" result="shape"/>
<feGaussianBlur stdDeviation="3.13052" result="effect1_foregroundBlur_4197_3418"/>
</filter>
<filter id="filter1_f_4197_3418" x="57.1587" y="32.6352" width="11.5875" height="12.6656" filterUnits="userSpaceOnUse" color-interpolation-filters="sRGB">
<feFlood flood-opacity="0" result="BackgroundImageFix"/>
<feBlend mode="normal" in="SourceGraphic" in2="BackgroundImageFix" result="shape"/>
<feGaussianBlur stdDeviation="0.93166" result="effect1_foregroundBlur_4197_3418"/>
</filter>
<clipPath id="paint0_angular_4197_3418_clip_path"><path d="M146.534 -32.0948H146.155C146.155 -12.9327 130.621 2.6013 111.459 2.6013V2.98032V3.35933C131.04 3.35933 146.913 -12.514 146.913 -32.0948H146.534ZM111.459 2.98032V2.6013C92.2968 2.6013 76.7628 -12.9327 76.7628 -32.0948H76.3838H76.0048C76.0048 -12.514 91.8782 3.35933 111.459 3.35933V2.98032ZM76.3838 -32.0948H76.7628C76.7628 -51.2569 92.2968 -66.7909 111.459 -66.7909V-67.1699V-67.5489C91.8782 -67.5489 76.0048 -51.6756 76.0048 -32.0948H76.3838ZM111.459 -67.1699V-66.7909C130.621 -66.7909 146.155 -51.2569 146.155 -32.0948H146.534H146.913C146.913 -51.6756 131.04 -67.5489 111.459 -67.5489V-67.1699Z"/></clipPath><filter id="filter2_f_4197_3418" x="151.181" y="5.94012" width="8.73232" height="9.52309" filterUnits="userSpaceOnUse" color-interpolation-filters="sRGB">
<feFlood flood-opacity="0" result="BackgroundImageFix"/>
<feBlend mode="normal" in="SourceGraphic" in2="BackgroundImageFix" result="shape"/>
<feGaussianBlur stdDeviation="0.741368" result="effect1_foregroundBlur_4197_3418"/>
</filter>
<filter id="filter3_f_4197_3418" x="80.0306" y="29.0697" width="55.6815" height="38.1873" filterUnits="userSpaceOnUse" color-interpolation-filters="sRGB">
<feFlood flood-opacity="0" result="BackgroundImageFix"/>
<feBlend mode="normal" in="SourceGraphic" in2="BackgroundImageFix" result="shape"/>
<feGaussianBlur stdDeviation="2.54915" result="effect1_foregroundBlur_4197_3418"/>
</filter>
<linearGradient id="paint1_linear_4197_3418" x1="128.291" y1="52.5581" x2="80.5827" y2="38.2542" gradientUnits="userSpaceOnUse">
<stop stop-color="#0D0D11"/>
<stop offset="1" stop-color="#536C34"/>
</linearGradient>
<linearGradient id="paint2_linear_4197_3418" x1="0" y1="23.4811" x2="47.6216" y2="9.21169" gradientUnits="userSpaceOnUse">
<stop stop-color="#0D0D11"/>
<stop offset="1" stop-color="#536C34"/>
</linearGradient>
<linearGradient id="paint3_linear_4197_3418" x1="0" y1="23.5118" x2="47.7079" y2="9.20788" gradientUnits="userSpaceOnUse">
<stop stop-color="#0D0D11"/>
<stop offset="1" stop-color="#536C34"/>
</linearGradient>
<linearGradient id="paint4_linear_4197_3418" x1="0" y1="26.914" x2="34.0507" y2="20.8908" gradientUnits="userSpaceOnUse">
<stop stop-color="#0D0D11"/>
<stop offset="1" stop-color="#536C34"/>
</linearGradient>
<linearGradient id="paint5_linear_4197_3418" x1="128.291" y1="48.2266" x2="80.5827" y2="33.9227" gradientUnits="userSpaceOnUse">
<stop stop-color="#0D0D11"/>
<stop offset="1" stop-color="#536C34"/>
</linearGradient>
<linearGradient id="paint6_linear_4197_3418" x1="0" y1="23.4811" x2="47.6216" y2="9.21169" gradientUnits="userSpaceOnUse">
<stop stop-color="#0D0D11"/>
<stop offset="1" stop-color="#536C34"/>
</linearGradient>
<linearGradient id="paint7_linear_4197_3418" x1="0" y1="23.5118" x2="47.7079" y2="9.20788" gradientUnits="userSpaceOnUse">
<stop stop-color="#0D0D11"/>
<stop offset="1" stop-color="#536C34"/>
</linearGradient>
<linearGradient id="paint8_linear_4197_3418" x1="0" y1="26.914" x2="34.0507" y2="20.8908" gradientUnits="userSpaceOnUse">
<stop stop-color="#0D0D11"/>
<stop offset="1" stop-color="#536C34"/>
</linearGradient>
<linearGradient id="paint9_linear_4197_3418" x1="128.291" y1="43.8955" x2="80.5827" y2="29.5916" gradientUnits="userSpaceOnUse">
<stop stop-color="#0D0D11"/>
<stop offset="1" stop-color="#536C34"/>
</linearGradient>
<linearGradient id="paint10_linear_4197_3418" x1="0" y1="23.4811" x2="47.6216" y2="9.21169" gradientUnits="userSpaceOnUse">
<stop stop-color="#0D0D11"/>
<stop offset="1" stop-color="#536C34"/>
</linearGradient>
<linearGradient id="paint11_linear_4197_3418" x1="0" y1="23.5118" x2="47.7079" y2="9.20788" gradientUnits="userSpaceOnUse">
<stop stop-color="#0D0D11"/>
<stop offset="1" stop-color="#536C34"/>
</linearGradient>
<linearGradient id="paint12_linear_4197_3418" x1="0" y1="25.7592" x2="32.5369" y2="20.0137" gradientUnits="userSpaceOnUse">
<stop stop-color="#0D0D11"/>
<stop offset="1" stop-color="#536C34"/>
</linearGradient>
</defs>
</svg>
