<svg width="60" height="40" viewBox="0 0 60 40" fill="none" xmlns="http://www.w3.org/2000/svg">
<path fill-rule="evenodd" clip-rule="evenodd" d="M22.1257 0.873903C20.9594 -0.291301 19.0681 -0.291301 17.9032 0.873903L0.874749 17.8901C-0.291583 19.0553 -0.291583 20.9447 0.874749 22.1099L17.9018 39.1261C19.0681 40.2913 20.9594 40.2913 22.1243 39.1261L29.5288 31.726L19.9062 22.1099C18.7399 20.9447 18.7399 19.0553 19.9062 17.8901L29.5288 8.274L22.1257 0.873903Z" fill="#00A754"/>
<path fill-rule="evenodd" clip-rule="evenodd" d="M41.1558 0.873934C39.9895 -0.291311 38.0982 -0.291311 36.9333 0.873934L29.5288 8.27289L39.1514 17.8893C40.3177 19.0545 40.3177 20.9441 39.1514 22.1093L29.5288 31.7257L36.9333 39.1261C38.0996 40.2913 39.9909 40.2913 41.1558 39.1261L58.1829 22.1093C59.3492 20.9441 59.3492 19.0545 58.1829 17.8893L41.1558 0.873934Z" fill="#0A6E5C"/>
</svg>
