<svg width="187" height="182" viewBox="0 0 187 182" fill="none" xmlns="http://www.w3.org/2000/svg">
<path opacity="0.5" d="M193.301 -49.976C286.694 -52.671 363.701 -9.89467 365.301 45.5677C366.902 101.03 292.489 148.176 199.097 150.871C105.704 153.566 28.6973 110.789 27.0969 55.3271L27.0969 11.0977" stroke="white"/>
<ellipse cx="196.699" cy="10.5" rx="169.5" ry="100.5" stroke="url(#paint0_linear_4929_1869)"/>
<g filter="url(#filter0_f_4929_1869)">
<ellipse cx="75.699" cy="130.098" rx="45.5" ry="28" fill="#C9C9C9" fill-opacity="0.06"/>
</g>
<mask id="path-5-outside-1_4929_1869" maskUnits="userSpaceOnUse" x="34.3295" y="88.5855" width="83.2558" height="56.5163" fill="black">
<rect fill="white" x="34.3295" y="88.5855" width="83.2558" height="56.5163"/>
<path d="M75.0342 91.3596C58.3756 92.0941 44.4379 99.4373 39.1528 109.164L36.6027 109.282L36.9224 116.532C36.8745 117.184 36.8647 117.84 36.8938 118.5C37.5129 132.534 55.5917 143.134 77.2748 142.178C98.958 141.222 116.035 129.072 115.416 115.039C115.378 114.181 115.274 113.336 115.109 112.506L114.809 105.696L112.262 105.812C106.093 96.6576 91.6178 90.6285 75.0342 91.3596Z"/>
</mask>
<g filter="url(#filter1_i_4929_1869)">
<path d="M75.0342 91.3596C58.3756 92.0941 44.4379 99.4373 39.1528 109.164L36.6027 109.282L36.9224 116.532C36.8745 117.184 36.8647 117.84 36.8938 118.5C37.5129 132.534 55.5917 143.134 77.2748 142.178C98.958 141.222 116.035 129.072 115.416 115.039C115.378 114.181 115.274 113.336 115.109 112.506L114.809 105.696L112.262 105.812C106.093 96.6576 91.6178 90.6285 75.0342 91.3596Z" fill="#271E23"/>
</g>
<path d="M75.0342 91.3596L74.9902 90.3606L74.9902 90.3606L75.0342 91.3596ZM39.1528 109.164L40.0315 109.642L39.7622 110.137L39.1987 110.163L39.1528 109.164ZM36.6027 109.282L35.6037 109.326L35.5597 108.329L36.5568 108.283L36.6027 109.282ZM36.9224 116.532L37.9215 116.488L37.924 116.547L37.9197 116.606L36.9224 116.532ZM36.8938 118.5L35.8948 118.545L35.8948 118.545L36.8938 118.5ZM77.2748 142.178L77.3188 143.177L77.3188 143.177L77.2748 142.178ZM115.416 115.039L116.415 114.994L116.415 114.994L115.416 115.039ZM115.109 112.506L114.128 112.701L114.113 112.626L114.11 112.55L115.109 112.506ZM114.809 105.696L114.763 104.697L115.764 104.651L115.808 105.652L114.809 105.696ZM112.262 105.812L112.307 106.811L111.746 106.837L111.432 106.371L112.262 105.812ZM75.0342 91.3596L75.0783 92.3587C58.6196 93.0844 45.088 100.335 40.0315 109.642L39.1528 109.164L38.2741 108.687C43.7879 98.5391 58.1315 91.1039 74.9902 90.3606L75.0342 91.3596ZM39.1528 109.164L39.1987 110.163L36.6487 110.281L36.6027 109.282L36.5568 108.283L39.1068 108.165L39.1528 109.164ZM36.6027 109.282L37.6018 109.238L37.9215 116.488L36.9224 116.532L35.9234 116.577L35.6037 109.326L36.6027 109.282ZM36.9224 116.532L37.9197 116.606C37.8747 117.218 37.8655 117.835 37.8929 118.456L36.8938 118.5L35.8948 118.545C35.864 117.845 35.8743 117.149 35.9251 116.459L36.9224 116.532ZM36.8938 118.5L37.8929 118.456C38.1824 125.021 42.5629 130.918 49.6911 135.098C56.8091 139.271 66.5531 141.65 77.2307 141.179L77.2748 142.178L77.3188 143.177C66.3134 143.663 56.1764 141.219 48.6795 136.823C41.1927 132.433 36.2243 126.013 35.8948 118.545L36.8938 118.5ZM77.2748 142.178L77.2307 141.179C87.9085 140.709 97.4055 137.482 104.129 132.698C110.862 127.907 114.706 121.647 114.417 115.083L115.416 115.039L116.415 114.994C116.744 122.463 112.36 129.295 105.288 134.327C98.2071 139.366 88.3243 142.692 77.3188 143.177L77.2748 142.178ZM115.416 115.039L114.417 115.083C114.382 114.277 114.284 113.482 114.128 112.701L115.109 112.506L116.09 112.311C116.265 113.189 116.375 114.085 116.415 114.994L115.416 115.039ZM115.109 112.506L114.11 112.55L113.81 105.74L114.809 105.696L115.808 105.652L116.108 112.462L115.109 112.506ZM114.809 105.696L114.854 106.695L112.307 106.811L112.262 105.812L112.216 104.813L114.763 104.697L114.809 105.696ZM112.262 105.812L111.432 106.371C105.529 97.6097 91.4618 91.6363 75.0783 92.3587L75.0342 91.3596L74.9902 90.3606C91.7739 89.6206 106.657 95.7055 113.091 105.253L112.262 105.812Z" fill="white" mask="url(#path-5-outside-1_4929_1869)"/>
<path d="M74.5879 81.2297C63.6645 81.7114 53.8788 85.0135 46.8872 89.9886C39.9004 94.9604 35.6507 101.649 35.97 108.892C36.2894 116.135 41.1113 122.424 48.5085 126.761C55.9107 131.102 65.9492 133.53 76.8725 133.049C87.7961 132.567 97.5825 129.265 104.574 124.29C111.561 119.318 115.811 112.629 115.491 105.386C115.172 98.1434 110.35 91.8543 102.953 87.5167C95.5505 83.1762 85.5115 80.7481 74.5879 81.2297Z" fill="#261F22" stroke="white"/>
<mask id="mask0_4929_1869" style="mask-type:alpha" maskUnits="userSpaceOnUse" x="36" y="81" width="80" height="52">
<path d="M74.6422 82.2223C63.8827 82.6967 54.2894 85.9486 47.4769 90.7963C40.6594 95.6475 36.6799 102.051 36.9793 108.842C37.2787 115.632 41.8063 121.661 49.0243 125.893C56.237 130.122 66.0793 132.517 76.8387 132.043C87.5984 131.569 97.1924 128.317 104.005 123.469C110.822 118.618 114.802 112.214 114.503 105.424C114.203 98.6329 109.676 92.6047 102.458 88.3722C95.2448 84.1428 85.4019 81.7479 74.6422 82.2223Z" fill="#F384BD" stroke="#EDC00C"/>
</mask>
<g mask="url(#mask0_4929_1869)">
<ellipse cx="27.1552" cy="27.4542" rx="27.1552" ry="27.4542" transform="matrix(0.855134 0.518408 -0.834131 0.551566 75.5603 77.0136)" fill="url(#paint1_linear_4929_1869)" fill-opacity="0.4" stroke="white"/>
</g>
<g filter="url(#filter2_f_4929_1869)">
<path d="M13.0563 -8.90226L14.1148 -0.0335665L21.9137 1.17009L14.1148 2.37375L13.0563 11.2424L11.9979 2.37375L4.19897 1.17009L11.9979 -0.0335665L13.0563 -8.90226Z" fill="#CCABAB"/>
</g>
<path d="M13.0563 -8.90226L13.4063 -5.96973C13.8251 -2.46076 16.5306 0.339284 20.0231 0.878309L21.9137 1.17009L20.0231 1.46187C16.5306 2.0009 13.8251 4.80094 13.4063 8.30991L13.0563 11.2424L12.7063 8.30991C12.2875 4.80094 9.58204 2.0009 6.08952 1.46187L4.19897 1.17009L6.08952 0.878309C9.58204 0.339284 12.2875 -2.46076 12.7063 -5.96973L13.0563 -8.90226Z" fill="white"/>
<g filter="url(#filter3_f_4929_1869)">
<path d="M136.307 138.098L137.156 145.215L143.414 146.18L137.156 147.146L136.307 154.263L135.457 147.146L129.199 146.18L135.457 145.215L136.307 138.098Z" fill="#CCABAB"/>
</g>
<path d="M136.307 138.098L136.588 140.451C136.924 143.267 139.095 145.514 141.897 145.946L143.414 146.18L141.897 146.415C139.095 146.847 136.924 149.094 136.588 151.91L136.307 154.263L136.026 151.91C135.69 149.094 133.519 146.847 130.716 146.415L129.199 146.18L130.716 145.946C133.519 145.514 135.69 143.267 136.026 140.451L136.307 138.098Z" fill="white"/>
<path d="M75.7784 114.589C81.1665 114.606 85.5295 116.047 85.5238 117.805C85.5174 119.563 81.1454 120.974 75.7577 120.957C70.37 120.939 66.0072 119.5 66.0122 117.742C66.0179 115.983 70.3903 114.571 75.7784 114.589ZM89.3922 110.231C92.0947 107.622 96.484 106.228 99.1963 107.116C101.909 108.004 101.916 110.838 99.2138 113.446C96.5113 116.054 92.1219 117.449 89.4097 116.561C86.6977 115.673 86.6898 112.839 89.3922 110.231ZM52.4114 106.963C55.1294 106.093 59.5105 107.515 62.1961 110.141C64.8815 112.767 64.8551 115.602 62.1374 116.472C59.4195 117.342 55.0383 115.919 52.3528 113.293C49.6676 110.667 49.6939 107.833 52.4114 106.963ZM52.4021 98.1191C55.1046 95.5109 59.4939 94.1165 62.2062 95.0045C64.9183 95.8925 64.9262 98.7264 62.2237 101.335C59.5212 103.943 55.1318 105.337 52.4196 104.449C49.7073 103.561 49.6995 100.727 52.4021 98.1191ZM89.4765 95.093C92.1945 94.2227 96.5756 95.6456 99.2612 98.2713C101.947 100.897 101.92 103.732 99.2025 104.602C96.4846 105.473 92.1034 104.05 89.4179 101.424C86.7324 98.7983 86.7589 95.9635 89.4765 95.093ZM75.8563 90.6084C81.2443 90.6259 85.6073 92.0654 85.6017 93.8236C85.596 95.5819 81.2237 96.993 75.8356 96.9755C70.4475 96.958 66.0844 95.5185 66.0901 93.7602C66.0959 92.002 70.4683 90.5909 75.8563 90.6084Z" fill="white"/>
<defs>
<filter id="filter0_f_4929_1869" x="19.999" y="91.8977" width="111.4" height="76.4" filterUnits="userSpaceOnUse" color-interpolation-filters="sRGB">
<feFlood flood-opacity="0" result="BackgroundImageFix"/>
<feBlend mode="normal" in="SourceGraphic" in2="BackgroundImageFix" result="shape"/>
<feGaussianBlur stdDeviation="5.1" result="effect1_foregroundBlur_4929_1869"/>
</filter>
<filter id="filter1_i_4929_1869" x="35.5598" y="90.2999" width="80.8728" height="52.9384" filterUnits="userSpaceOnUse" color-interpolation-filters="sRGB">
<feFlood flood-opacity="0" result="BackgroundImageFix"/>
<feBlend mode="normal" in="SourceGraphic" in2="BackgroundImageFix" result="shape"/>
<feColorMatrix in="SourceAlpha" type="matrix" values="0 0 0 0 0 0 0 0 0 0 0 0 0 0 0 0 0 0 127 0" result="hardAlpha"/>
<feOffset dx="6.90346" dy="-8.87587"/>
<feComposite in2="hardAlpha" operator="arithmetic" k2="-1" k3="1"/>
<feColorMatrix type="matrix" values="0 0 0 0 0.151574 0 0 0 0 0.11943 0 0 0 0 0.136574 0 0 0 1 0"/>
<feBlend mode="normal" in2="shape" result="effect1_innerShadow_4929_1869"/>
</filter>
<filter id="filter2_f_4929_1869" x="-6.53267e-05" y="-13.1013" width="26.1127" height="28.5428" filterUnits="userSpaceOnUse" color-interpolation-filters="sRGB">
<feFlood flood-opacity="0" result="BackgroundImageFix"/>
<feBlend mode="normal" in="SourceGraphic" in2="BackgroundImageFix" result="shape"/>
<feGaussianBlur stdDeviation="2.09952" result="effect1_foregroundBlur_4929_1869"/>
</filter>
<filter id="filter3_f_4929_1869" x="125.829" y="134.728" width="20.9548" height="22.9047" filterUnits="userSpaceOnUse" color-interpolation-filters="sRGB">
<feFlood flood-opacity="0" result="BackgroundImageFix"/>
<feBlend mode="normal" in="SourceGraphic" in2="BackgroundImageFix" result="shape"/>
<feGaussianBlur stdDeviation="1.6848" result="effect1_foregroundBlur_4929_1869"/>
</filter>
<linearGradient id="paint0_linear_4929_1869" x1="55.699" y1="22.5977" x2="196.699" y2="111" gradientUnits="userSpaceOnUse">
<stop stop-color="#A2A895"/>
<stop offset="1" stop-color="#999999"/>
</linearGradient>
<linearGradient id="paint1_linear_4929_1869" x1="99.5362" y1="-16.6274" x2="12.75" y2="83.0135" gradientUnits="userSpaceOnUse">
<stop offset="0.239531" stop-color="#E6007A"/>
<stop offset="0.577962" stop-color="#E6007A" stop-opacity="0.4"/>
<stop offset="1" stop-opacity="0"/>
</linearGradient>
</defs>
</svg>
