<svg width="210" height="37" viewBox="0 0 210 37" fill="none" xmlns="http://www.w3.org/2000/svg">
<g clip-path="url(#clip0_21_16453)">
<path fill-rule="evenodd" clip-rule="evenodd" d="M8.40742 15.1506L8.57758 8.42846C8.57758 4.88631 10.6501 3.13158 13.6481 4.02023C13.9117 4.09837 14.2904 4.45332 14.2904 4.7683L14.3518 11.2115C14.3547 11.5107 14.5981 11.7518 14.8973 11.7518C15.1985 11.7518 15.4428 11.5075 15.4428 11.2063V3.41489C15.4428 1.68874 16.8421 0.289429 18.5682 0.289429C20.2944 0.289429 21.6937 1.68874 21.6937 3.41489V11.2063C21.6937 11.5075 21.9379 11.7518 22.2392 11.7518C22.5384 11.7518 22.7818 11.5107 22.7846 11.2115L22.8461 4.77181C22.8461 4.45401 23.2437 4.09793 23.5096 4.02023C26.1078 3.26096 28.4954 4.6774 28.4954 8.3594L28.6603 15.09C25.8609 16.5189 23.1675 16.8131 20.0791 15.8532C18.9006 15.2753 18.0516 15.3772 16.8372 15.8525C13.7745 16.5405 11.1704 16.5715 8.40742 15.1506ZM7.64598 15.7859C8.23084 16.0661 8.81588 16.3465 9.42 16.5528L10.6554 16.9747C12.754 17.6359 14.8253 17.3686 16.8584 16.7356C17.9157 16.2053 19.0075 16.2892 20.0892 16.7356C22.2287 17.6186 24.0926 17.6165 26.359 16.9904L26.3615 16.9747L27.5968 16.5528C28.201 16.3465 28.786 16.0661 29.3709 15.7859C30.9827 15.0136 33.4923 15.2532 35.1872 17.1858C35.9641 18.0716 35.363 19.3533 34.2446 19.7243C33.7054 19.9031 33.217 20.206 32.7605 20.5442C32.7087 20.5826 32.6561 20.6209 32.6028 20.6591C31.1944 21.6698 30.2881 23.1837 30.1979 24.9149L30.1563 25.7137C30.1592 25.993 30.1539 26.2734 30.1393 26.5542C29.7272 30.4956 27.1845 33.8925 23.5189 35.3985C20.3174 36.714 16.7262 36.714 13.5247 35.3985C9.85913 33.8925 7.31639 30.4956 6.90433 26.5542L6.81894 24.9149C6.72877 23.1837 5.82243 21.6698 4.414 20.6591C4.3607 20.6209 4.3081 20.5826 4.25637 20.5442C3.79985 20.206 3.31147 19.9031 2.77221 19.7243C1.65388 19.3533 1.05276 18.0716 1.82965 17.1858C3.52455 15.2532 6.03416 15.0136 7.64598 15.7859Z" fill="#FD4848"/>
<g clip-path="url(#clip1_21_16453)">
<path fill-rule="evenodd" clip-rule="evenodd" d="M13.5511 23.886C12.9576 24.4381 12.4651 24.9893 12.1037 25.4281C11.9288 25.6406 11.8363 25.755 11.7797 25.8499C11.737 25.9215 11.7326 25.9527 11.7326 25.9888C11.7326 26.0248 11.737 26.056 11.7797 26.1276C11.8363 26.2225 11.9288 26.337 12.1037 26.5494C12.4763 27.0017 12.9881 27.5735 13.6062 28.1425C13.3237 27.4686 13.1673 26.726 13.1673 25.9461C13.1673 25.2183 13.3035 24.5232 13.5511 23.886ZM23.5359 28.2781C24.2213 27.6652 24.7857 27.0377 25.1879 26.5494C25.3629 26.337 25.4553 26.2225 25.5119 26.1276C25.5546 26.056 25.559 26.0248 25.559 25.9888C25.559 25.9527 25.5546 25.9215 25.5119 25.8499C25.4553 25.755 25.3629 25.6406 25.1879 25.4281C24.7977 24.9544 24.2547 24.3496 23.5968 23.7542C23.8781 24.4269 24.0338 25.1678 24.0338 25.9461C24.0338 26.7787 23.8555 27.5687 23.5359 28.2781ZM18.6458 20.3442C16.9416 20.3442 15.3922 21.0944 14.1414 21.9944C12.8862 22.8974 11.8848 23.9847 11.265 24.7373L11.2096 24.8041C10.9342 25.1362 10.646 25.4837 10.646 25.9888C10.646 26.4938 10.9342 26.8413 11.2096 27.1734L11.265 27.2403C11.8848 27.9929 12.8862 29.0801 14.1414 29.9831C15.3922 30.8831 16.9416 31.6333 18.6458 31.6333C20.3501 31.6333 21.8994 30.8831 23.1503 29.9831C24.4054 29.0801 25.4068 27.9929 26.0267 27.2403L26.082 27.1734C26.3574 26.8413 26.6456 26.4938 26.6456 25.9888C26.6456 25.4837 26.3574 25.1362 26.082 24.8041L26.0267 24.7373C25.4068 23.9847 24.4054 22.8974 23.1503 21.9944C21.8994 21.0944 20.35 20.3442 18.6458 20.3442ZM18.6006 30.4285C20.976 30.4285 22.9471 28.4471 22.9471 25.9461C22.9471 23.445 20.976 21.4636 18.6006 21.4636C16.2251 21.4636 14.254 23.445 14.254 25.9461C14.254 28.4471 16.2251 30.4285 18.6006 30.4285ZM21.0455 25.9913C21.0455 27.3417 19.9508 28.4363 18.6005 28.4363C17.2502 28.4363 16.1556 27.3417 16.1556 25.9913C16.1556 24.641 17.2502 23.5464 18.6005 23.5464C19.9508 23.5464 21.0455 24.641 21.0455 25.9913ZM22.1321 25.9913C22.1321 27.9418 20.551 29.5229 18.6005 29.5229C16.6501 29.5229 15.0689 27.9418 15.0689 25.9913C15.0689 24.0409 16.6501 22.4597 18.6005 22.4597C20.551 22.4597 22.1321 24.0409 22.1321 25.9913ZM18.9626 25.9913C18.9626 26.1914 18.8004 26.3536 18.6003 26.3536C18.4003 26.3536 18.2381 26.1914 18.2381 25.9913C18.2381 25.7913 18.4003 25.6291 18.6003 25.6291C18.8004 25.6291 18.9626 25.7913 18.9626 25.9913ZM20.0492 25.9913C20.0492 26.7915 19.4005 27.4402 18.6003 27.4402C17.8002 27.4402 17.1515 26.7915 17.1515 25.9913C17.1515 25.1912 17.8002 24.5425 18.6003 24.5425C19.4005 24.5425 20.0492 25.1912 20.0492 25.9913Z" fill="#D1FC9A"/>
</g>
</g>
<path d="M55.4578 31.9624H60.6643V8.69927H70.5567V4.2682H45.7256V8.69927H55.4578V31.9624Z" fill="white"/>
<path d="M67.4988 26.8983C67.4988 30.3799 70.062 32.5558 73.9068 32.5558C77.1509 32.5558 79.1934 30.6568 80.0345 27.8478H81.7566C81.8367 30.9337 82.5977 31.9624 85.8818 31.9624H87.9644V28.1643H86.082C85.0407 28.1643 84.8805 27.9665 84.8805 26.9774V19.0252C84.8805 14.2381 81.8768 11.6665 76.3899 11.6665C70.9831 11.6665 67.6189 14.515 67.2184 17.4823L71.664 18.6296C72.1846 16.6119 73.6665 15.3459 76.3899 15.3459C78.9131 15.3459 80.0345 16.4141 80.0345 18.4318V19.1044C76.2297 19.4604 73.1859 20.2121 70.903 21.399C68.6202 22.5464 67.4988 24.4058 67.4988 26.8983ZM80.0345 23.8519C80.0345 27.2148 77.9519 28.916 75.4688 28.916C73.5463 28.916 72.465 28.0061 72.465 26.4235C72.465 23.8915 75.2685 22.7837 80.0345 22.2694V23.8519Z" fill="white"/>
<path d="M91.1503 31.9624H96.0364V4.2682H91.1503V31.9624Z" fill="white"/>
<path d="M101.823 9.13446H107.03V4.22864H101.823V9.13446ZM102.023 31.9624H106.869V12.26H102.023V31.9624Z" fill="white"/>
<path d="M111.017 26.8983C111.898 30.3799 115.662 32.5163 120.148 32.5163C125.635 32.5163 128.959 30.0238 128.959 26.1862C128.959 24.3663 128.278 22.9816 126.957 22.032C125.635 21.0825 124.033 20.41 122.151 20.0539L119.547 19.5791C117.144 19.1044 116.504 18.5109 116.504 17.3636C116.504 16.058 117.665 15.1481 119.788 15.1481C122.071 15.1481 123.512 16.4536 124.153 18.1549L128.278 16.4141C127.357 14.0007 124.714 11.6665 119.948 11.6665C115.182 11.6665 111.858 14.159 111.858 17.7988C111.858 21.5177 114.261 22.9024 118.306 23.7333L120.949 24.208C123.192 24.6432 123.913 25.4345 123.913 26.6609C123.913 28.0456 122.631 28.916 120.348 28.916C117.184 28.916 115.903 27.1752 115.542 25.4345L111.017 26.8983Z" fill="white"/>
<path d="M133.312 31.9624H138.199V22.2299C138.199 20.0143 138.359 18.1944 139.6 16.7701C140.201 16.058 141.122 15.7019 142.364 15.7019C144.767 15.7019 145.968 17.1262 145.968 19.9352V31.9624H150.774V22.2299C150.774 19.9748 150.894 18.1944 152.136 16.7701C152.737 16.058 153.698 15.7019 154.939 15.7019C157.222 15.7019 158.544 17.0471 158.544 19.9352V31.9624H163.39V19.1044C163.39 14.3172 160.587 11.6665 156.742 11.6665C154.018 11.6665 151.816 13.5655 150.975 16.2954H149.252C148.572 13.3282 146.449 11.6665 143.765 11.6665C140.842 11.6665 139.12 13.6051 138.359 16.2954H136.076C136.917 15.1481 137.638 13.4073 137.638 12.26H133.312V31.9624Z" fill="white"/>
<path d="M167.898 26.8983C167.898 30.3799 170.461 32.5558 174.306 32.5558C177.55 32.5558 179.593 30.6568 180.434 27.8478H182.156C182.236 30.9337 182.997 31.9624 186.281 31.9624H188.363V28.1643H186.481C185.44 28.1643 185.28 27.9665 185.28 26.9774V19.0252C185.28 14.2381 182.276 11.6665 176.789 11.6665C171.382 11.6665 168.018 14.515 167.618 17.4823L172.063 18.6296C172.584 16.6119 174.066 15.3459 176.789 15.3459C179.312 15.3459 180.434 16.4141 180.434 18.4318V19.1044C176.629 19.4604 173.585 20.2121 171.302 21.399C169.019 22.5464 167.898 24.4058 167.898 26.8983ZM180.434 23.8519C180.434 27.2148 178.351 28.916 175.868 28.916C173.945 28.916 172.864 28.0061 172.864 26.4235C172.864 23.8915 175.668 22.7837 180.434 22.2694V23.8519Z" fill="white"/>
<path d="M191.549 31.9624H196.435V22.942C196.435 20.5682 196.596 18.5109 197.917 16.9284C198.598 16.0976 199.639 15.7019 201.001 15.7019C203.284 15.7019 204.606 17.0867 204.606 19.9352V31.9624H209.492V18.9857C209.492 14.4359 207.129 11.6665 202.643 11.6665C199.359 11.6665 197.277 14.159 196.395 16.8097H194.113C195.234 15.1876 196.035 13.4073 196.075 12.26H191.549V31.9624Z" fill="white"/>
<defs>
<clipPath id="clip0_21_16453">
<rect width="36.3251" height="36.3251" fill="white" transform="translate(0.508301 0.337402)"/>
</clipPath>
<clipPath id="clip1_21_16453">
<rect width="16.028" height="11.4098" fill="white" transform="translate(10.6316 20.2864)"/>
</clipPath>
</defs>
</svg>
