<svg width="1em" height="1em" viewBox="0 0 21 20" fill="none" xmlns="http://www.w3.org/2000/svg">
<path d="M12.1813 6.95987C11.7043 7.29995 11.1206 7.49999 10.4901 7.49999C8.87926 7.49999 7.57343 6.19415 7.57343 4.58332C7.57343 2.97249 8.87926 1.66666 10.4901 1.66666C11.5342 1.66666 12.4503 2.21534 12.9655 3.04011M5.90676 16.7393H8.082C8.36562 16.7393 8.64749 16.773 8.92244 16.8405L11.2208 17.3991C11.7195 17.5205 12.2391 17.5324 12.743 17.4345L15.2842 16.9401C15.9555 16.8093 16.5731 16.4879 17.057 16.0171L18.855 14.2681C19.3685 13.7695 19.3685 12.9603 18.855 12.4609C18.3927 12.0112 17.6607 11.9606 17.1377 12.3419L15.0423 13.8707C14.7422 14.0901 14.377 14.2082 14.0015 14.2082H11.978L13.266 14.2081C13.9919 14.2081 14.58 13.6361 14.58 12.9299V12.6743C14.58 12.0879 14.1697 11.5766 13.5852 11.4349L11.5973 10.9514C11.2737 10.873 10.9424 10.8333 10.6094 10.8333C9.80537 10.8333 8.35 11.499 8.35 11.499L5.90676 12.5207M17.5734 5.41666C17.5734 7.02749 16.2676 8.33332 14.6568 8.33332C13.0459 8.33332 11.7401 7.02749 11.7401 5.41666C11.7401 3.80583 13.0459 2.49999 14.6568 2.49999C16.2676 2.49999 17.5734 3.80583 17.5734 5.41666ZM2.57343 12.1667L2.57343 17C2.57343 17.4667 2.57343 17.7001 2.66425 17.8783C2.74415 18.0351 2.87163 18.1626 3.02843 18.2425C3.20669 18.3333 3.44005 18.3333 3.90676 18.3333H4.57342C5.04014 18.3333 5.27349 18.3333 5.45175 18.2425C5.60855 18.1626 5.73604 18.0351 5.81593 17.8783C5.90676 17.7001 5.90676 17.4667 5.90676 17V12.1667C5.90676 11.6999 5.90676 11.4666 5.81593 11.2883C5.73604 11.1315 5.60855 11.004 5.45175 10.9242C5.27349 10.8333 5.04014 10.8333 4.57343 10.8333L3.90676 10.8333C3.44005 10.8333 3.20669 10.8333 3.02843 10.9242C2.87163 11.004 2.74415 11.1315 2.66425 11.2883C2.57343 11.4666 2.57343 11.6999 2.57343 12.1667Z" stroke="currentColor" stroke-width="1.33" stroke-linecap="round" stroke-linejoin="round"/>
</svg>
