<svg xmlns="http://www.w3.org/2000/svg" width="1em" height="1em" viewBox="0 0 14 15" fill="none">
<g clip-path="url(#clip0_2035_55740)">
<path d="M7.0158 3.50937C8.34437 3.50937 9.42132 2.85439 9.42132 2.04644C9.42132 1.23848 8.34437 0.583496 7.0158 0.583496C5.68729 0.583496 4.61028 1.23848 4.61028 2.04644C4.61028 2.85439 5.68729 3.50937 7.0158 3.50937Z" fill="white"/>
<path d="M7.0158 14.5267C8.34437 14.5267 9.42132 13.8717 9.42132 13.0638C9.42132 12.2558 8.34437 11.6008 7.0158 11.6008C5.68729 11.6008 4.61028 12.2558 4.61028 13.0638C4.61028 13.8717 5.68729 14.5267 7.0158 14.5267Z" fill="white"/>
<path d="M3.66312 5.53201C4.32739 4.3296 4.32326 3.02745 3.6539 2.62357C2.98453 2.2197 1.9034 2.86703 1.23914 4.06944C0.574871 5.27184 0.579005 6.57402 1.24837 6.97785C1.91774 7.38175 2.99886 6.73439 3.66312 5.53201Z" fill="white"/>
<path d="M12.7937 11.0408C13.458 9.83837 13.4537 8.53615 12.7842 8.1322C12.1146 7.72819 11.0334 8.37543 10.3691 9.57784C9.70483 10.7802 9.70913 12.0825 10.3786 12.4865C11.0482 12.8904 12.1294 12.2432 12.7937 11.0408Z" fill="white"/>
<path d="M3.65391 12.4867C4.32344 12.0827 4.32771 10.7805 3.66344 9.57808C2.99918 8.37567 1.91792 7.72843 1.24838 8.13244C0.578847 8.53639 0.574575 9.83862 1.23885 11.041C1.90311 12.2434 2.98437 12.8907 3.65391 12.4867Z" fill="white"/>
<path d="M12.784 6.9779C13.4535 6.57395 13.4578 5.27171 12.7935 4.06931C12.1292 2.86691 11.048 2.21966 10.3784 2.62364C9.70892 3.02762 9.70462 4.32985 10.3689 5.53225C11.0332 6.73467 12.1144 7.38191 12.784 6.9779Z" fill="white"/>
</g>
<defs>
<clipPath id="clip0_2035_55740">
<rect width="14" height="14" fill="white" transform="translate(0 0.541504)"/>
</clipPath>
</defs>
</svg>