<svg width="32" height="32" viewBox="0 0 32 32" fill="none" xmlns="http://www.w3.org/2000/svg">
<circle cx="16" cy="16" r="16" fill="#686868"/>
<path d="M16 6C16.9913 6 17.7949 6.80364 17.7949 7.79492C17.7949 8.50225 17.3846 9.11184 16.79 9.4043V12.0039C17.2748 12.0998 17.7287 12.281 18.1357 12.5312L19.8955 10.7695C19.8644 10.6371 19.8467 10.4993 19.8467 10.3574C19.8467 9.36629 20.6495 8.56274 21.6406 8.5625C22.6319 8.5625 23.4355 9.36614 23.4355 10.3574C23.4355 11.3487 22.6319 12.1523 21.6406 12.1523C21.3864 12.1523 21.1449 12.0984 20.9258 12.0029L19.3105 13.6201C19.6523 14.0905 19.8966 14.636 20.0137 15.2275H22.5879C22.8772 14.6245 23.4915 14.2071 24.2051 14.207C25.1964 14.207 26 15.0107 26 16.002C26 16.9932 25.1963 17.7969 24.2051 17.7969C23.5116 17.7968 22.9112 17.4029 22.6123 16.8271H20.0137C19.8959 17.4239 19.6489 17.9739 19.3027 18.4473L20.876 20.0205C21.1081 19.9108 21.3668 19.8477 21.6406 19.8477C22.6319 19.8477 23.4355 20.6513 23.4355 21.6426C23.4355 22.6338 22.6319 23.4375 21.6406 23.4375C20.6496 23.4373 19.8467 22.6337 19.8467 21.6426C19.8467 21.5209 19.8578 21.402 19.8809 21.2871L18.125 19.5312C17.7207 19.7782 17.2706 19.9567 16.79 20.0518V22.5947C17.3848 22.8871 17.7949 23.4976 17.7949 24.2051C17.7949 25.1964 16.9913 26 16 26C15.0087 26 14.2051 25.1964 14.2051 24.2051C14.2051 23.5054 14.6062 22.9006 15.1904 22.6045V20.0527C14.5983 19.9358 14.0528 19.6906 13.582 19.3486L12.0049 20.9268C12.1005 21.1461 12.1543 21.388 12.1543 21.6426C12.1543 22.6337 11.3504 23.4373 10.3594 23.4375C9.36811 23.4375 8.56448 22.6338 8.56445 21.6426C8.56445 20.6513 9.36809 19.8477 10.3594 19.8477C10.5013 19.8477 10.6391 19.8653 10.7715 19.8965L12.4932 18.1738C12.2429 17.7668 12.0616 17.3129 11.9658 16.8281H9.3877C9.08865 17.4034 8.48808 17.7969 7.79492 17.7969C6.80366 17.7969 6.00003 16.9932 6 16.002C6 15.0107 6.80364 14.207 7.79492 14.207C8.50847 14.2071 9.12277 14.6245 9.41211 15.2275H11.9658C12.0608 14.7474 12.2396 14.2976 12.4863 13.8936L10.71 12.1172C10.5965 12.1397 10.4794 12.1523 10.3594 12.1523C9.36811 12.1523 8.56448 11.3487 8.56445 10.3574C8.56445 9.36614 9.36809 8.5625 10.3594 8.5625C11.3505 8.56272 12.1543 9.36628 12.1543 10.3574C12.1543 10.632 12.0908 10.8913 11.9805 11.124L13.5713 12.7148C14.0444 12.3689 14.594 12.1207 15.1904 12.0029V9.39453C14.6065 9.09837 14.2051 8.49447 14.2051 7.79492C14.2051 6.80364 15.0087 6 16 6ZM15.9902 13.3262C14.4977 13.3262 13.2881 14.5358 13.2881 16.0283C13.2881 17.5209 14.4977 18.7305 15.9902 18.7305C17.4826 18.7302 18.6924 17.5207 18.6924 16.0283C18.6924 14.5359 17.4826 13.3264 15.9902 13.3262Z" fill="#D5FF5C"/>
</svg>