<svg width="24" height="24" viewBox="0 0 24 24" fill="none" xmlns="http://www.w3.org/2000/svg">
<path d="M12 1C18.0751 1 23 5.92487 23 12C23 18.0751 18.0751 23 12 23C5.92487 23 1 18.0751 1 12C1 5.92487 5.92487 1 12 1ZM11.9053 7.58789C8.03623 7.58796 4.89517 12.0708 4.85938 12.1221C4.89066 12.1669 8.03341 16.6562 11.9053 16.6562C15.7832 16.6557 18.9301 12.1522 18.9512 12.1221C18.9466 12.1155 15.7934 7.58848 11.9053 7.58789ZM11.9043 8.95898C13.6518 8.95898 15.0684 10.3755 15.0684 12.123C15.0682 13.8704 13.6517 15.2871 11.9043 15.2871C10.1571 15.2869 8.74037 13.8703 8.74023 12.123C8.74023 10.3757 10.157 8.95921 11.9043 8.95898ZM11.9053 10.6875C11.1128 10.6875 10.4699 11.3296 10.4697 12.1221C10.4698 12.9147 11.1127 13.5576 11.9053 13.5576C12.6979 13.5575 13.3408 12.9147 13.3408 12.1221C13.3406 11.3296 12.6978 10.6876 11.9053 10.6875Z" fill="currentColor"/>
</svg>
