<svg width="158" height="158" viewBox="0 0 158 158" fill="none" xmlns="http://www.w3.org/2000/svg">
    <mask id="a" fill="#fff">
        <path fill-rule="evenodd" clip-rule="evenodd" d="M122.589 65.411c1.434-.627 2.854-1.307 4.274-1.987 7.216-3.453 18.45-1.855 26.038 6.787 3.478 3.962.787 10.045-4.22 11.704-2.414.8-4.6 2.154-6.644 3.666-.231.172-.467.343-.705.514-6.305 4.52-9.793 11.64-10.197 19.382-.059 1.36-.09 1.527-.124 1.712-.033.18-.07.377-.138 1.694-1.845 17.625-13.797 32.815-30.207 39.549a58.915 58.915 0 0 1-44.74 0c-16.41-6.734-28.362-21.924-30.207-39.549l-.382-3.406c-.404-7.741-3.892-14.863-10.197-19.382a57.145 57.145 0 0 1-.706-.514c-2.043-1.512-4.23-2.867-6.644-3.666-5.006-1.66-7.697-7.742-4.22-11.704 7.588-8.642 18.823-10.24 26.038-6.787 1.424.682 2.849 1.364 4.287 1.992l.705-29.708c0-15.54 11.481-23.239 24.628-19.34 1.156.343 2.817 1.9 2.817 3.282l.27 28.268c.003.356-.059.786-.122 1.224-.17 1.182-.35 2.428.712 2.462 1.093.035.917-1.302.755-2.534-.056-.424-.11-.836-.11-1.174V13.712C63.55 6.14 70.843 0 78.413 0c7.57 0 14.81 6.14 14.81 13.712v34.184c0 .358-.08.798-.16 1.247-.218 1.206-.448 2.482.804 2.46 1.238-.02 1.015-1.254.802-2.431-.081-.45-.161-.89-.158-1.254l.27-28.252c0-1.395 1.743-2.957 2.91-3.298 11.394-3.331 24.256 2.883 24.256 19.037l.642 30.006Z"/>
    </mask>
    <path fill-rule="evenodd" clip-rule="evenodd" d="M122.589 65.411c1.434-.627 2.854-1.307 4.274-1.987 7.216-3.453 18.45-1.855 26.038 6.787 3.478 3.962.787 10.045-4.22 11.704-2.414.8-4.6 2.154-6.644 3.666-.231.172-.467.343-.705.514-6.305 4.52-9.793 11.64-10.197 19.382-.059 1.36-.09 1.527-.124 1.712-.033.18-.07.377-.138 1.694-1.845 17.625-13.797 32.815-30.207 39.549a58.915 58.915 0 0 1-44.74 0c-16.41-6.734-28.362-21.924-30.207-39.549l-.382-3.406c-.404-7.741-3.892-14.863-10.197-19.382a57.145 57.145 0 0 1-.706-.514c-2.043-1.512-4.23-2.867-6.644-3.666-5.006-1.66-7.697-7.742-4.22-11.704 7.588-8.642 18.823-10.24 26.038-6.787 1.424.682 2.849 1.364 4.287 1.992l.705-29.708c0-15.54 11.481-23.239 24.628-19.34 1.156.343 2.817 1.9 2.817 3.282l.27 28.268c.003.356-.059.786-.122 1.224-.17 1.182-.35 2.428.712 2.462 1.093.035.917-1.302.755-2.534-.056-.424-.11-.836-.11-1.174V13.712C63.55 6.14 70.843 0 78.413 0c7.57 0 14.81 6.14 14.81 13.712v34.184c0 .358-.08.798-.16 1.247-.218 1.206-.448 2.482.804 2.46 1.238-.02 1.015-1.254.802-2.431-.081-.45-.161-.89-.158-1.254l.27-28.252c0-1.395 1.743-2.957 2.91-3.298 11.394-3.331 24.256 2.883 24.256 19.037l.642 30.006Z" fill="#FD4848"/>
    <path d="m126.863 63.424-.692-1.446.692 1.446Zm-4.274 1.987-1.604.034.052 2.395 2.194-.96-.642-1.469Zm30.312 4.8 1.205-1.058-1.205 1.058Zm-4.22 11.704-.504-1.523.504 1.523Zm-6.644 3.666-.954-1.289.954 1.29Zm-.705.514.934 1.303-.934-1.303Zm-10.197 19.382-1.601-.083-.001.013 1.602.07Zm-.124 1.712 1.577.292v-.001l-1.577-.291Zm-.138 1.694 1.595.166.004-.041.002-.042-1.601-.083Zm-30.207 39.549.609 1.484-.609-1.484Zm-44.74 0-.61 1.484.61-1.484Zm-30.207-39.549 1.595-.167-.002-.012-1.593.179Zm-.382-3.406-1.602.084.003.048.005.047 1.594-.179ZM15.14 86.095l-.934 1.303.934-1.303Zm-.706-.514.954-1.289-.954 1.29ZM7.79 81.915l.505-1.523-.505 1.523ZM3.57 70.21l-1.204-1.058 1.205 1.058Zm26.038-6.787.693-1.446-.693 1.446Zm4.287 1.992-.642 1.47 2.188.956.057-2.388-1.603-.038Zm.705-29.708 1.604.038v-.038H34.6Zm24.628-19.34-.456 1.538.456-1.538Zm2.817 3.282h-1.604v.016l1.604-.016Zm.27 28.268 1.603-.015-1.603.015Zm-.122 1.224-1.587-.229 1.587.23Zm.712 2.462-.05 1.603.05-1.603Zm.755-2.534-1.59.21 1.59-.21Zm29.562-35.358h1.604-1.604Zm0 34.184H91.62h1.603Zm-.16 1.247 1.579.284-1.579-.284Zm.805 2.46L93.84 50l.027 1.604Zm.802-2.431 1.578-.285-1.578.285Zm-.158-1.254 1.604.016-1.604-.016Zm.27-28.252 1.603.015v-.015h-1.603Zm2.91-3.298.45 1.54-.45-1.54Zm24.256 19.037h-1.604v.018l.001.017 1.603-.035Zm4.224 26.573c-1.424.682-2.82 1.35-4.225 1.964l1.285 2.938c1.464-.64 2.909-1.331 4.325-2.01l-1.385-2.892Zm27.935 7.175c-8.027-9.142-20.025-10.961-27.935-7.175l1.385 2.893c6.521-3.122 16.992-1.743 24.14 6.398l2.41-2.116Zm-4.92 14.284c2.967-.983 5.249-3.271 6.282-5.93 1.044-2.689.833-5.854-1.362-8.354l-2.41 2.116c1.283 1.462 1.465 3.319.782 5.077-.695 1.787-2.262 3.37-4.301 4.046l1.009 3.045Zm-6.195 3.433c1.983-1.467 4.012-2.71 6.195-3.433l-1.009-3.045c-2.645.877-4.988 2.342-7.094 3.9l1.908 2.578Zm-.725.528c.245-.175.487-.351.725-.528l-1.908-2.578c-.224.166-.453.333-.686.5l1.869 2.606Zm-9.529 18.163c.381-7.313 3.665-13.96 9.529-18.163l-1.869-2.606c-6.746 4.835-10.437 12.431-10.863 20.602l3.203.167Zm-.149 1.919c.057-.309.09-.579.149-1.933l-3.204-.14c-.059 1.366-.088 1.429-.099 1.491l3.154.582Zm-.114 1.486c.068-1.311.101-1.417.114-1.485l-3.154-.583c-.054.292-.094.58-.163 1.901l3.203.167Zm-31.199 40.95c16.924-6.946 29.283-22.622 31.193-40.867l-3.19-.333c-1.78 17.005-13.326 31.709-29.221 38.233l1.218 2.967Zm-45.959 0a60.53 60.53 0 0 0 45.959 0l-1.218-2.967a57.32 57.32 0 0 1-43.523 0l-1.218 2.967Zm-31.192-40.867c1.91 18.245 14.269 33.921 31.192 40.867l1.218-2.967c-15.895-6.524-27.44-21.228-29.22-38.233l-3.19.333Zm-.38-3.393.381 3.405 3.188-.357-.383-3.406-3.187.358Zm-9.538-18.258c5.864 4.204 9.148 10.85 9.53 18.163l3.202-.167c-.426-8.17-4.117-15.767-10.864-20.602l-1.868 2.606Zm-.726-.528c.24.177.481.353.726.528l1.868-2.606a56.046 56.046 0 0 1-.686-.5L13.48 86.87Zm-6.194-3.433c2.183.723 4.212 1.966 6.194 3.433l1.908-2.578c-2.105-1.558-4.448-3.023-7.093-3.9l-1.009 3.045Zm-4.92-14.284c-2.195 2.5-2.406 5.665-1.362 8.354 1.033 2.659 3.314 4.947 6.282 5.93l1.009-3.045c-2.04-.675-3.607-2.258-4.301-4.046-.683-1.758-.501-3.615.782-5.077l-2.41-2.116ZM30.3 61.978c-7.91-3.786-19.909-1.967-27.935 7.175l2.41 2.116c7.148-8.141 17.619-9.52 24.14-6.398l1.385-2.893Zm4.236 1.969c-1.408-.616-2.808-1.286-4.236-1.97l-1.385 2.894c1.42.68 2.869 1.373 4.337 2.015l1.284-2.94Zm.961 1.507.706-29.707-3.207-.077-.705 29.708 3.206.076Zm.706-29.746c0-7.366 2.707-12.655 6.741-15.676 4.042-3.026 9.655-3.957 15.827-2.126l.912-3.075c-6.974-2.069-13.675-1.1-18.661 2.634-4.993 3.739-8.026 10.07-8.026 18.243h3.207Zm22.568-17.802c.224.066.693.34 1.121.803.447.482.548.841.548.941h3.208c0-1.281-.729-2.392-1.402-3.12-.691-.747-1.63-1.423-2.563-1.7l-.912 3.076Zm1.67 1.76.269 28.268 3.207-.03-.27-28.27-3.207.032Zm.269 28.268c.002.206-.037.502-.105.98l3.174.457c.058-.4.143-.964.138-1.468l-3.207.03Zm-.105.98c-.074.507-.213 1.375-.107 2.117.058.4.209.958.647 1.43.478.516 1.105.726 1.708.746L62.956 50c.024 0 .105.007.216.053a.93.93 0 0 1 .325.227c.178.192.186.358.177.294a2.076 2.076 0 0 1 .007-.418c.02-.229.055-.48.099-.786l-3.175-.458Zm2.248 4.293c.624.02 1.293-.165 1.807-.698.463-.48.618-1.06.678-1.46.113-.756-.019-1.654-.089-2.188l-3.18.419c.042.316.077.585.095.83.019.251.012.396.002.465-.012.083-.008-.092.185-.292a.963.963 0 0 1 .365-.237.675.675 0 0 1 .24-.045l-.103 3.206Zm2.396-4.346c-.06-.458-.096-.754-.096-.965h-3.207c0 .466.072.993.123 1.383l3.18-.418Zm-.096-.965V13.712h-3.207v34.184h3.207Zm0-34.184c0-6.526 6.405-12.108 13.259-12.108v-3.208c-8.285 0-16.466 6.696-16.466 15.316h3.207ZM78.413 1.604c6.847 0 13.206 5.575 13.206 12.108h3.207c0-8.613-8.12-15.316-16.413-15.316v3.208Zm13.206 12.108v34.184h3.207V13.712h-3.207Zm0 34.184c0 .184-.046.467-.135.963l3.157.568c.072-.402.185-.998.185-1.531h-3.207Zm-.135.963c-.09.503-.277 1.427-.155 2.219.069.444.258 1.043.784 1.514.54.484 1.2.625 1.782.615L93.84 50c-.044.001.176-.01.413.204.224.2.25.408.246.386a1.698 1.698 0 0 1 .015-.371c.026-.227.07-.48.127-.792l-3.157-.568Zm2.411 4.348c.575-.01 1.213-.169 1.732-.643.508-.465.699-1.047.769-1.493.124-.786-.06-1.696-.15-2.184l-3.155.57c.055.306.098.549.123.767a2.596 2.596 0 0 1 .016.322l-.001.019v.005l-.001.001v-.002l.001-.005a.581.581 0 0 1 .037-.104.845.845 0 0 1 .196-.263c.22-.2.421-.197.378-.197l.055 3.207Zm2.352-4.32c-.09-.499-.134-.775-.132-.953l-3.207-.03c-.005.546.11 1.153.183 1.553l3.156-.57Zm-.132-.953.27-28.253-3.208-.03-.27 28.252 3.208.03Zm.27-28.268c0-.084.098-.44.572-.935.449-.47.945-.754 1.184-.824l-.9-3.078c-.928.271-1.887.938-2.6 1.684-.69.72-1.464 1.842-1.464 3.153h3.207Zm1.756-1.759c5.299-1.549 10.856-.854 15.049 1.999 4.146 2.82 7.153 7.884 7.153 15.5h3.208c0-8.539-3.424-14.66-8.557-18.152-5.087-3.46-11.659-4.207-17.753-2.425l.9 3.078Zm22.203 17.533.641 30.005 3.207-.068-.642-30.006-3.206.069Z" fill="#EFFF58" mask="url(#a)"/>
    <path d="m69 125 4.029-1.343c.314-.105.622-.228.943-.308.59-.147 1.805-.349 4.028-.349s3.437.202 4.028.349c.321.08.63.204.944.308L87 125" stroke="#EFFF58" stroke-width="4" stroke-linecap="round"/>
    <path d="M33.254 54.492c3.333-1.773 9.873-4.749 18.398-6.153 22.335-3.68 35.555-3.102 48.166-2.012 9.081.784 16.37 3.064 19.763 4.29 1.187.429 1.781 1.714 1.403 2.918l-3.441 10.955a2.494 2.494 0 0 1-2.793 1.701c-15.354-2.555-25.225-2.328-36.415-1.91-17.726.66-32.257 3.668-40.993 5.486-1.919.4-3.547-1.547-3.382-3.5.273-3.211-.575-6.011-1.595-8.005-.681-1.332-.432-3.067.89-3.77Z" fill="#EFFF58" stroke="#EFFF58" stroke-width="1.605"/>
    <path d="M119.559 55.299c-7.3-2.124-22.46-4.497-38.556-3.791-17.863.783-36.201 3.25-47.35 8.822" stroke="#FD4848" stroke-width="1.852"/>
    <path d="M117.902 60.573c-7.3-2.125-22.581-3.592-40.038-2.492-17.082 1.076-27.37 2.494-43.308 7.066" stroke="#FD4848" stroke-width="1.852"/>
    <path d="M19.081 87.159c3.257-3.574 10.759-11.063 20.85-16.492 24.338-13.093 39.737-17.47 54.622-20.985 11.123-2.627 20.61-2.539 24.729-2.323 1.253.066 2.193 1.112 2.193 2.367v16.012a2.49 2.49 0 0 1-2.133 2.456c-18.841 2.776-30.184 6.877-42.996 11.73C55.59 87.787 38.583 98.34 29.018 104.12c-1.698 1.026-3.87-.32-4.162-2.282-.741-4.995-3.245-8.69-5.456-10.884-1.039-1.031-1.305-2.712-.319-3.794Z" fill="#EFFF58" stroke="#EFFF58" stroke-width="1.605"/>
    <path d="M120.475 53.076c-9.155.206-27.432 3.13-45.672 10.184-20.244 7.828-41.996 19.13-52.796 30.24" stroke="#FD4848" stroke-width="1.852"/>
    <path d="M120.475 60.174c-9.155.206-27.244 4.285-46.906 12.344C54.329 80.403 41.67 87.273 25.007 99" stroke="#FD4848" stroke-width="1.852"/>
    <path d="m62 114 33-19" stroke="#EFFF58" stroke-width="4" stroke-linecap="round"/>
    <path d="m62 95 33 19" stroke="#EFFF58" stroke-width="4" stroke-linecap="round"/>
</svg>
